/* XPM */
static char * close_prelight_xpm[] = {
"24 26 203 2",
"  	c None",
". 	c #282825",
"+ 	c #575968",
"@ 	c #575868",
"# 	c #585968",
"$ 	c #595A68",
"% 	c #8587AA",
"& 	c #8588AA",
"* 	c #8688AA",
"= 	c #8385A9",
"- 	c #7F82A8",
"; 	c #7D80A7",
"> 	c #8386A9",
", 	c #8688AB",
"' 	c #A6AAE2",
") 	c #A7ABE2",
"! 	c #A8ACE2",
"~ 	c #A3A7E0",
"{ 	c #9DA1DE",
"] 	c #989DDC",
"^ 	c #999EDC",
"/ 	c #9EA2DE",
"( 	c #A5A9E1",
"_ 	c #A9ADE3",
": 	c #A2A7E0",
"< 	c #A6ABE2",
"[ 	c #AAAFF2",
"} 	c #A9AEF2",
"| 	c #ACB1F3",
"1 	c #AEB3F4",
"2 	c #ADB2F4",
"3 	c #A9AFF2",
"4 	c #A5AAF0",
"5 	c #A1A7EE",
"6 	c #A0A5EE",
"7 	c #9399DD",
"8 	c #9499DD",
"9 	c #9096DB",
"0 	c #8E94DA",
"a 	c #9398DD",
"b 	c #A3A8E3",
"c 	c #B9BDED",
"d 	c #C6C9F2",
"e 	c #C0C4F0",
"f 	c #ABAFE6",
"g 	c #9095DB",
"h 	c #8086D4",
"i 	c #9398DC",
"j 	c #8388C8",
"k 	c #7D82C6",
"l 	c #7A7FC4",
"m 	c #8085C7",
"n 	c #9BA0D3",
"o 	c #C6C8E5",
"p 	c #FF0000",
"q 	c #C9CBE6",
"r 	c #969AD0",
"s 	c #7379C1",
"t 	c #9CA0D3",
"u 	c #7C82C5",
"v 	c #8287C7",
"w 	c #8186C7",
"x 	c #7B81C4",
"y 	c #797EC3",
"z 	c #7C81C4",
"A 	c #959ACF",
"B 	c #C4C6E4",
"C 	c #C4C6E5",
"D 	c #9EA2D4",
"E 	c #7C81C5",
"F 	c #7B80C4",
"G 	c #8186C6",
"H 	c #7E83C5",
"I 	c #7D82C5",
"J 	c #7A7FC3",
"K 	c #868BC8",
"L 	c #A5A8D5",
"M 	c #D5D6EB",
"N 	c #D9DBEF",
"O 	c #8287C6",
"P 	c #7D82C2",
"Q 	c #7E83C3",
"R 	c #777CC0",
"S 	c #767BBF",
"T 	c #9CA0D0",
"U 	c #C4C6E3",
"V 	c #7B80C0",
"W 	c #7C81C1",
"X 	c #7D82C1",
"Y 	c #797EBF",
"Z 	c #7479BD",
"` 	c #696FB8",
" .	c #6F74BB",
"..	c #878CC6",
"+.	c #BABCDD",
"@.	c #787DBD",
"#.	c #797EBD",
"$.	c #797EBE",
"%.	c #696FB6",
"&.	c #5E64B1",
"*.	c #666BB4",
"=.	c #9599CB",
"-.	c #E1D2DF",
";.	c #767BBB",
">.	c #777BBB",
",.	c #777CBB",
"'.	c #757ABA",
").	c #656AB2",
"!.	c #5A60AC",
"~.	c #6368B1",
"{.	c #9498CA",
"].	c #EB96A0",
"^.	c #7277B7",
"/.	c #7378B8",
"(.	c #7479B8",
"_.	c #6F74B6",
":.	c #696FB2",
"<.	c #5D63AC",
"[.	c #6469B0",
"}.	c #8084BE",
"|.	c #B7BADB",
"1.	c #7075B5",
"2.	c #6F74B5",
"3.	c #696EB1",
"4.	c #676DB0",
"5.	c #6F75B5",
"6.	c #9397C7",
"7.	c #C0C2DF",
"8.	c #6C71B1",
"9.	c #6D72B1",
"0.	c #686DAF",
"a.	c #676CAE",
"b.	c #6469AC",
"c.	c #7378B5",
"d.	c #989CC9",
"e.	c #D1D2E7",
"f.	c #D0D2E5",
"g.	c #6B70B1",
"h.	c #6C71B2",
"i.	c #6369AD",
"j.	c #6066AB",
"k.	c #646AAE",
"l.	c #8589BF",
"m.	c #BEC0DE",
"n.	c #B9BBDB",
"o.	c #8B8FC2",
"p.	c #676CAD",
"q.	c #686DAE",
"r.	c #6065AA",
"s.	c #5C61A7",
"t.	c #868ABE",
"u.	c #BBBDDB",
"v.	c #FB1E20",
"w.	c #BFC1DD",
"x.	c #7F84BB",
"y.	c #555BA4",
"z.	c #696EB2",
"A.	c #6A6FB2",
"B.	c #656AB0",
"C.	c #6368AE",
"D.	c #7C81BC",
"E.	c #989CCB",
"F.	c #A9ACD4",
"G.	c #A2A6D1",
"H.	c #888CC3",
"I.	c #666BB0",
"J.	c #5258A5",
"K.	c #656AAA",
"L.	c #656AA9",
"M.	c #6569A9",
"N.	c #666AAA",
"O.	c #686DAB",
"P.	c #6B6FAC",
"Q.	c #6A6EAC",
"R.	c #666BAA",
"S.	c #6065A7",
"T.	c #5C61A5",
"U.	c #5A5FA4",
"V.	c #474B81",
"W.	c #474B80",
"X.	c #484C81",
"Y.	c #494C81",
"Z.	c #42467E",
"`.	c #3A3E7A",
" +	c #353976",
".+	c #353977",
"++	c #3B3F7A",
"@+	c #45487F",
"#+	c #4B4E82",
"$+	c #202243",
"%+	c #212244",
"&+	c #212344",
"*+	c #1D1F42",
"=+	c #181A3F",
"-+	c #14173D",
";+	c #1E2042",
">+	c #10111E",
",+	c #11121E",
"'+	c #12131F",
")+	c #11111E",
"!+	c #3D3D38",
"~+	c #8D8D82",
"{+	c #D5D6C9",
". . . . . . . . . . . . . . . . . . . . . . . . ",
"+ + @ @ @ # # $ $ # # @ @ # # $ $ # # @ @ @ + + ",
"% % & * & = - ; ; - > , , > - ; ; - = & * & % & ",
"' ' ) ! ) ~ { ] ^ / ( _ _ ( / ^ ] { : ) ! ) ' < ",
"[ [ } } [ | 1 2 3 4 5 6 6 5 4 3 2 1 | [ } } [ [ ",
"7 8 9 0 a b c d e f g h h g f e d c b 7 0 g 8 i ",
"j j k l m n o p p q r s s r q p p o t m l u j v ",
"w v x y z A B p p p C D D C p p p B A E y F v G ",
"G v H I J K L M p p p N N p p p M L K J I H O G ",
"P Q P Q R S P T U p p p p p p U T P S R Q P P P ",
"V V W X Y Z `  ...+.p p p p +... .` Z Y X W V W ",
"@.@.#.#.$.$.%.&.*.=.-.p p -.=.*.&.%.$.$.#.#.@.@.",
";.;.>.,.,.'.).!.~.{.].p p ].{.~.!.).'.,.,.>.;.;.",
"^.^./.(._.:.<.[.}.|.p p p p |.}.[.<.:._.(./.^.^.",
"1.1.2.1.3.4.5.6.7.p p p p p p 7.6.5.4.3.1.2.1.1.",
"8.9.0.a.b.c.d.e.p p p f.f.p p p e.d.c.b.a.0.9.8.",
"g.h.i.j.k.l.m.p p p n.o.o.n.p p p m.l.k.j.i.h.g.",
"p.q.r.s.b.t.u.v.p w.x.y.y.x.w.p v.u.t.b.s.r.q.p.",
"z.A.B.C.z.D.E.F.G.H.I.J.J.I.H.G.F.E.D.z.C.B.A.z.",
"K.K.L.M.N.O.P.Q.R.S.T.U.U.T.S.R.Q.P.O.N.M.L.K.K.",
"V.W.X.Y.V.Z.`. +.+++@+#+#+@+++.+ +`.Z.V.Y.X.W.V.",
"$+$+%+&+$+*+=+-+-+=+;+&+&+;+=+-+-+=+*+$+&+%+$+$+",
">+>+>+>+>+,+,+'+'+,+)+>+>+)+,+'+'+,+,+>+>+>+>+>+",
"!+!+!+!+!+!+!+!+!+!+!+!+!+!+!+!+!+!+!+!+!+!+!+!+",
"~+~+~+~+~+~+~+~+~+~+~+~+~+~+~+~+~+~+~+~+~+~+~+~+",
"{+{+{+{+{+{+{+{+{+{+{+{+{+{+{+{+{+{+{+{+{+{+{+{+"};
