/* XPM */
static char * close_active_xpm[] = {
"24 26 217 2",
"  	c None",
". 	c #282825",
"+ 	c #575968",
"@ 	c #575868",
"# 	c #585968",
"$ 	c #595A68",
"% 	c #8587AA",
"& 	c #8588AA",
"* 	c #8688AA",
"= 	c #8385A9",
"- 	c #7F82A8",
"; 	c #7D80A7",
"> 	c #8386A9",
", 	c #8688AB",
"' 	c #A6AAE2",
") 	c #A7ABE2",
"! 	c #A8ACE2",
"~ 	c #A3A7E0",
"{ 	c #9DA1DE",
"] 	c #989DDC",
"^ 	c #999EDC",
"/ 	c #9EA2DE",
"( 	c #A5A9E1",
"_ 	c #A9ADE3",
": 	c #A2A7E0",
"< 	c #A6ABE2",
"[ 	c #AAAFF2",
"} 	c #A9AEF2",
"| 	c #ACB1F3",
"1 	c #AEB3F4",
"2 	c #ADB2F4",
"3 	c #A9AFF2",
"4 	c #A5AAF0",
"5 	c #A1A7EE",
"6 	c #A0A5EE",
"7 	c #9399DD",
"8 	c #9499DD",
"9 	c #9096DB",
"0 	c #8E94DA",
"a 	c #9398DD",
"b 	c #A3A8E3",
"c 	c #B9BDED",
"d 	c #C6C9F2",
"e 	c #C0C4F0",
"f 	c #ABAFE6",
"g 	c #9095DB",
"h 	c #8086D4",
"i 	c #9398DC",
"j 	c #8388C8",
"k 	c #7D82C6",
"l 	c #7A7FC4",
"m 	c #8085C7",
"n 	c #9BA0D3",
"o 	c #C6C8E5",
"p 	c #E8E8F4",
"q 	c #E9EAF4",
"r 	c #C9CBE6",
"s 	c #969AD0",
"t 	c #7379C1",
"u 	c #9CA0D3",
"v 	c #7C82C5",
"w 	c #8287C7",
"x 	c #8186C7",
"y 	c #7B81C4",
"z 	c #797EC3",
"A 	c #7C81C4",
"B 	c #959ACF",
"C 	c #C4C6E4",
"D 	c #F5F5F9",
"E 	c #FFFFFF",
"F 	c #F6F6FA",
"G 	c #C4C6E5",
"H 	c #9EA2D4",
"I 	c #7C81C5",
"J 	c #7B80C4",
"K 	c #8186C6",
"L 	c #7E83C5",
"M 	c #7D82C5",
"N 	c #7A7FC3",
"O 	c #868BC8",
"P 	c #A5A8D5",
"Q 	c #D5D6EB",
"R 	c #F9F9FC",
"S 	c #F0F0F9",
"T 	c #D9DBEF",
"U 	c #8287C6",
"V 	c #7D82C2",
"W 	c #7E83C3",
"X 	c #777CC0",
"Y 	c #767BBF",
"Z 	c #9CA0D0",
"` 	c #C4C6E3",
" .	c #EDEDF6",
"..	c #7B80C0",
"+.	c #7C81C1",
"@.	c #7D82C1",
"#.	c #797EBF",
"$.	c #7479BD",
"%.	c #696FB8",
"&.	c #6F74BB",
"*.	c #878CC6",
"=.	c #BABCDD",
"-.	c #787DBD",
";.	c #797EBD",
">.	c #797EBE",
",.	c #696FB6",
"'.	c #5E64B1",
").	c #666BB4",
"!.	c #9599CB",
"~.	c #DFE1EF",
"{.	c #767BBB",
"].	c #777BBB",
"^.	c #777CBB",
"/.	c #757ABA",
"(.	c #656AB2",
"_.	c #5A60AC",
":.	c #6368B1",
"<.	c #9498CA",
"[.	c #E1E2F1",
"}.	c #7277B7",
"|.	c #7378B8",
"1.	c #7479B8",
"2.	c #6F74B6",
"3.	c #696FB2",
"4.	c #5D63AC",
"5.	c #6469B0",
"6.	c #8084BE",
"7.	c #B7BADB",
"8.	c #F7F7FB",
"9.	c #7075B5",
"0.	c #6F74B5",
"a.	c #696EB1",
"b.	c #676DB0",
"c.	c #6F75B5",
"d.	c #9397C7",
"e.	c #C0C2DF",
"f.	c #EDEEF6",
"g.	c #6C71B1",
"h.	c #6D72B1",
"i.	c #686DAF",
"j.	c #676CAE",
"k.	c #6469AC",
"l.	c #7378B5",
"m.	c #989CC9",
"n.	c #D1D2E7",
"o.	c #FAFAFD",
"p.	c #EBECF4",
"q.	c #D0D2E5",
"r.	c #6B70B1",
"s.	c #6C71B2",
"t.	c #6369AD",
"u.	c #6066AB",
"v.	c #646AAE",
"w.	c #8589BF",
"x.	c #BEC0DE",
"y.	c #F9F9FE",
"z.	c #F7F7FC",
"A.	c #B9BBDB",
"B.	c #8B8FC2",
"C.	c #676CAD",
"D.	c #686DAE",
"E.	c #6065AA",
"F.	c #5C61A7",
"G.	c #868ABE",
"H.	c #BBBDDB",
"I.	c #E5E6F2",
"J.	c #E6E7F3",
"K.	c #BFC1DD",
"L.	c #7F84BB",
"M.	c #555BA4",
"N.	c #696EB2",
"O.	c #6A6FB2",
"P.	c #656AB0",
"Q.	c #6368AE",
"R.	c #7C81BC",
"S.	c #989CCB",
"T.	c #A9ACD4",
"U.	c #A2A6D1",
"V.	c #888CC3",
"W.	c #666BB0",
"X.	c #5258A5",
"Y.	c #656AAA",
"Z.	c #656AA9",
"`.	c #6569A9",
" +	c #666AAA",
".+	c #686DAB",
"++	c #6B6FAC",
"@+	c #6A6EAC",
"#+	c #666BAA",
"$+	c #6065A7",
"%+	c #5C61A5",
"&+	c #5A5FA4",
"*+	c #474B81",
"=+	c #474B80",
"-+	c #484C81",
";+	c #494C81",
">+	c #42467E",
",+	c #3A3E7A",
"'+	c #353976",
")+	c #353977",
"!+	c #3B3F7A",
"~+	c #45487F",
"{+	c #4B4E82",
"]+	c #202243",
"^+	c #212244",
"/+	c #212344",
"(+	c #1D1F42",
"_+	c #181A3F",
":+	c #14173D",
"<+	c #1E2042",
"[+	c #10111E",
"}+	c #11121E",
"|+	c #12131F",
"1+	c #11111E",
"2+	c #3D3D38",
"3+	c #8D8D82",
"4+	c #D5D6C9",
". . . . . . . . . . . . . . . . . . . . . . . . ",
"+ + @ @ @ # # $ $ # # @ @ # # $ $ # # @ @ @ + + ",
"% % & * & = - ; ; - > , , > - ; ; - = & * & % & ",
"' ' ) ! ) ~ { ] ^ / ( _ _ ( / ^ ] { : ) ! ) ' < ",
"[ [ } } [ | 1 2 3 4 5 6 6 5 4 3 2 1 | [ } } [ [ ",
"7 8 9 0 a b c d e f g h h g f e d c b 7 0 g 8 i ",
"j j k l m n o p q r s t t s r q p o u m l v j w ",
"x w y z A B C D E F G H H G F E D C B I z J w K ",
"K w L M N O P Q R E S T T S E R Q P O N M L U K ",
"V W V W X Y V Z `  .E E E E  .` Z V Y X W V V V ",
"....+.@.#.$.%.&.*.=.D E E D =.*.&.%.$.#.@.+...+.",
"-.-.;.;.>.>.,.'.).!.~.E E ~.!.).'.,.>.>.;.;.-.-.",
"{.{.].^.^./.(._.:.<.[.E E [.<.:._.(./.^.^.].{.{.",
"}.}.|.1.2.3.4.5.6.7.8.E E 8.7.6.5.4.3.2.1.|.}.}.",
"9.9.0.9.a.b.c.d.e.f.E E E E f.e.d.c.b.a.9.0.9.9.",
"g.h.i.j.k.l.m.n.o.E p.q.q.p.E o.n.m.l.k.j.i.h.g.",
"r.s.t.u.v.w.x.y.E z.A.B.B.A.z.E y.x.w.v.u.t.s.r.",
"C.D.E.F.k.G.H.I.J.K.L.M.M.L.K.J.I.H.G.k.F.E.D.C.",
"N.O.P.Q.N.R.S.T.U.V.W.X.X.W.V.U.T.S.R.N.Q.P.O.N.",
"Y.Y.Z.`. +.+++@+#+$+%+&+&+%+$+#+@+++.+ +`.Z.Y.Y.",
"*+=+-+;+*+>+,+'+)+!+~+{+{+~+!+)+'+,+>+*+;+-+=+*+",
"]+]+^+/+]+(+_+:+:+_+<+/+/+<+_+:+:+_+(+]+/+^+]+]+",
"[+[+[+[+[+}+}+|+|+}+1+[+[+1+}+|+|+}+}+[+[+[+[+[+",
"2+2+2+2+2+2+2+2+2+2+2+2+2+2+2+2+2+2+2+2+2+2+2+2+",
"3+3+3+3+3+3+3+3+3+3+3+3+3+3+3+3+3+3+3+3+3+3+3+3+",
"4+4+4+4+4+4+4+4+4+4+4+4+4+4+4+4+4+4+4+4+4+4+4+4+"};
