/* XPM */
static char * close_pressed_xpm[] = {
"24 26 447 2",
"  	c None",
". 	c #292827",
"+ 	c #282827",
"@ 	c #282826",
"# 	c #282726",
"$ 	c #272726",
"% 	c #252523",
"& 	c #232321",
"* 	c #262524",
"= 	c #595B6A",
"- 	c #4E4F5E",
"; 	c #3F404F",
"> 	c #333442",
", 	c #30313E",
"' 	c #32323F",
") 	c #353643",
"! 	c #353542",
"~ 	c #343542",
"{ 	c #363743",
"] 	c #363744",
"^ 	c #31323F",
"/ 	c #2C2C39",
"( 	c #2B2C39",
"_ 	c #373846",
": 	c #494A59",
"< 	c #595A6A",
"[ 	c #9093B9",
"} 	c #787A9F",
"| 	c #5A5D7F",
"1 	c #424464",
"2 	c #3B3D5D",
"3 	c #3A3C5D",
"4 	c #3A3D60",
"5 	c #36385D",
"6 	c #3A3C60",
"7 	c #404263",
"8 	c #444666",
"9 	c #3B3D61",
"0 	c #3A3C5C",
"a 	c #404262",
"b 	c #595B7D",
"c 	c #77799E",
"d 	c #B1B5F0",
"e 	c #9295CD",
"f 	c #6D70A3",
"g 	c #4F5282",
"h 	c #464A7A",
"i 	c #44487C",
"j 	c #43477F",
"k 	c #3C407A",
"l 	c #3D417A",
"m 	c #43477E",
"n 	c #4E5185",
"o 	c #545889",
"p 	c #3A3E77",
"q 	c #40447B",
"r 	c #46497D",
"s 	c #535788",
"t 	c #66699B",
"u 	c #8488BC",
"v 	c #9EA3DB",
"w 	c #B2B7F2",
"x 	c #AAAFF2",
"y 	c #8E92D0",
"z 	c #6B6FA8",
"A 	c #505489",
"B 	c #4C5086",
"C 	c #53588F",
"D 	c #5C6199",
"E 	c #5B5F97",
"F 	c #565B94",
"G 	c #505590",
"H 	c #4B508D",
"I 	c #494E8C",
"J 	c #575B95",
"K 	c #565A92",
"L 	c #545990",
"M 	c #565B92",
"N 	c #6A6EA7",
"O 	c #858AC3",
"P 	c #A1A5E2",
"Q 	c #ACB1F1",
"R 	c #ADB3F6",
"S 	c #949ADE",
"T 	c #7F84C1",
"U 	c #60649D",
"V 	c #4A4E85",
"W 	c #4E5389",
"X 	c #696D9F",
"Y 	c #8D91BB",
"Z 	c #9EA1C5",
"` 	c #969ABF",
" .	c #7A7EAD",
"..	c #545A95",
"+.	c #3E4487",
"@.	c #979BC0",
"#.	c #979ABD",
"$.	c #8184AE",
"%.	c #6E72A5",
"&.	c #7A7FB8",
"*.	c #999DDA",
"=.	c #AEB3F2",
"-.	c #ABAFF0",
";.	c #999EE2",
">.	c #8388C8",
",.	c #7377B1",
"'.	c #555990",
").	c #43477C",
"!.	c #4C5084",
"~.	c #777AA5",
"{.	c #B5B8D2",
"].	c #E2E3ED",
"^.	c #E3E4ED",
"/.	c #B8BBD2",
"(.	c #7376A5",
"_.	c #454A88",
":.	c #E4E5EE",
"<.	c #DADBE5",
"[.	c #A8ABC4",
"}.	c #7C7FAB",
"|.	c #7B80B7",
"1.	c #989CD7",
"2.	c #AAAEEB",
"3.	c #A1A6E3",
"4.	c #878CCD",
"5.	c #8287C7",
"6.	c #7176B0",
"7.	c #45497E",
"8.	c #4B4F85",
"9.	c #7578A6",
"0.	c #B8BAD5",
"a.	c #F8F8FC",
"b.	c #FFFFFF",
"c.	c #F5F6F9",
"d.	c #B1B3CE",
"e.	c #7F82AE",
"f.	c #F0F1F4",
"g.	c #ACAEC7",
"h.	c #7A7DAB",
"i.	c #797DB6",
"j.	c #979BD7",
"k.	c #A7ABE8",
"l.	c #9FA3E1",
"m.	c #868BCC",
"n.	c #8287C6",
"o.	c #7175AF",
"p.	c #595C92",
"q.	c #4C4F82",
"r.	c #4A4E84",
"s.	c #62669A",
"t.	c #9093BB",
"u.	c #CDCEE1",
"v.	c #F9F9FC",
"w.	c #E9EAF1",
"x.	c #CCCDDE",
"y.	c #FAFAFD",
"z.	c #C6C7D9",
"A.	c #8487AF",
"B.	c #676A9F",
"C.	c #7579B3",
"D.	c #989CD5",
"E.	c #A4A9E4",
"F.	c #9BA0DD",
"G.	c #868BCB",
"H.	c #7D82C2",
"I.	c #6D72AC",
"J.	c #5B5F93",
"K.	c #535687",
"L.	c #4E5288",
"M.	c #545893",
"N.	c #6266A0",
"O.	c #888BB7",
"P.	c #B9BBD4",
"Q.	c #EBECF3",
"R.	c #BABCD5",
"S.	c #8184AF",
"T.	c #575B93",
"U.	c #595D98",
"V.	c #797DB7",
"W.	c #9FA3DA",
"X.	c #A8ACE6",
"Y.	c #989DDA",
"Z.	c #7B80C0",
"`.	c #6B70AA",
" +	c #5C6093",
".+	c #555989",
"++	c #54588D",
"@+	c #565A95",
"#+	c #4E5294",
"$+	c #545897",
"%+	c #7175A8",
"&+	c #AFB1CE",
"*+	c #F5F6FA",
"=+	c #7276A9",
"-+	c #4D518F",
";+	c #424787",
">+	c #5B5F9A",
",+	c #7F83BB",
"'+	c #A2A6DC",
")+	c #A9ADE7",
"!+	c #969BD8",
"~+	c #8085C5",
"{+	c #787DBC",
"]+	c #696DA7",
"^+	c #5B5E92",
"/+	c #555889",
"(+	c #5B5F92",
"_+	c #63679E",
":+	c #555A9A",
"<+	c #484D90",
"[+	c #505594",
"}+	c #878AB6",
"|+	c #DDDEEB",
"1+	c #515695",
"2+	c #414689",
"3+	c #4A4F8D",
"4+	c #676CA3",
"5+	c #868AC0",
"6+	c #A7ACE5",
"7+	c #9498D6",
"8+	c #7C81C1",
"9+	c #757ABA",
"0+	c #676BA5",
"a+	c #5A5D91",
"b+	c #55598A",
"c+	c #5D6193",
"d+	c #666AA1",
"e+	c #595F9D",
"f+	c #4B5194",
"g+	c #525897",
"h+	c #DCDDE9",
"i+	c #535998",
"j+	c #444A8C",
"k+	c #4D5391",
"l+	c #6A6FA6",
"m+	c #878CC2",
"n+	c #A2A6DD",
"o+	c #A7ABE4",
"p+	c #9297D4",
"q+	c #7A7FBF",
"r+	c #7176B6",
"s+	c #6469A3",
"t+	c #595D90",
"u+	c #585B8B",
"v+	c #60659E",
"w+	c #595E9E",
"x+	c #5E63A0",
"y+	c #777CAE",
"z+	c #B1B4D0",
"A+	c #F4F4F8",
"B+	c #787DAF",
"C+	c #575C98",
"D+	c #4D5392",
"E+	c #656AA3",
"F+	c #868BC2",
"G+	c #A4A8DE",
"H+	c #A6AAE3",
"I+	c #8F94D1",
"J+	c #767BBB",
"K+	c #6F74B3",
"L+	c #6367A1",
"M+	c #575B8F",
"N+	c #575A8B",
"O+	c #595D92",
"P+	c #6267A0",
"Q+	c #6F74AC",
"R+	c #9194BF",
"S+	c #BCBED7",
"T+	c #EBEBF2",
"U+	c #BDBFD8",
"V+	c #8A8DB7",
"W+	c #63689F",
"X+	c #8388C0",
"Y+	c #A3A7DE",
"Z+	c #A4A8E2",
"`+	c #8D92CF",
" @	c #7378B8",
".@	c #6B6FAF",
"+@	c #53578C",
"@@	c #54578A",
"#@	c #5B5F95",
"$@	c #7579AC",
"%@	c #9DA0C7",
"&@	c #D2D3E5",
"*@	c #F8F9FB",
"=@	c #EDEEF5",
"-@	c #D4D5E6",
";@	c #F9FAFC",
">@	c #CBCCDE",
",@	c #9194BB",
"'@	c #797DB1",
")@	c #8589C3",
"!@	c #9FA4DC",
"~@	c #9FA3DF",
"{@	c #8B8FCC",
"]@	c #6F74B4",
"^@	c #696EAF",
"/@	c #5D619B",
"(@	c #484C80",
"_@	c #585C91",
":@	c #8487B4",
"<@	c #BFC1DB",
"[@	c #F5F5F9",
"}@	c #F4F4F7",
"|@	c #BABCD6",
"1@	c #8E92BC",
"2@	c #EEEEF1",
"3@	c #B3B4CD",
"4@	c #898CB9",
"5@	c #868AC3",
"6@	c #9A9ED9",
"7@	c #9CA0DD",
"8@	c #8A8FCD",
"9@	c #6E73B4",
"0@	c #656AAB",
"a@	c #585C97",
"b@	c #45497F",
"c@	c #44477B",
"d@	c #898CB7",
"e@	c #C0C2DB",
"f@	c #E5E5EF",
"g@	c #E3E4EC",
"h@	c #BFC1D8",
"i@	c #8487B5",
"j@	c #5D619F",
"k@	c #E4E5ED",
"l@	c #DDDEE7",
"m@	c #B3B5CD",
"n@	c #8E91BC",
"o@	c #898DC4",
"p@	c #999EDA",
"q@	c #878CCA",
"r@	c #6A6FB1",
"s@	c #666CAF",
"t@	c #6064A2",
"u@	c #585C95",
"v@	c #5F6299",
"w@	c #7478AF",
"x@	c #9598CC",
"y@	c #B3B6E1",
"z@	c #C0C3E8",
"A@	c #B6B9E0",
"B@	c #9EA2D2",
"C@	c #7F83C0",
"D@	c #6C71B5",
"E@	c #B7BAE1",
"F@	c #B9BBE0",
"G@	c #A7AAD4",
"H@	c #9A9DD1",
"I@	c #A0A4DE",
"J@	c #ADB1EE",
"K@	c #A7ABEA",
"L@	c #8C91D1",
"M@	c #6B70B4",
"N@	c #6367A7",
"O@	c #6B6FAC",
"P@	c #8C90C9",
"Q@	c #9BA0DA",
"R@	c #A7ABE7",
"S@	c #A9ADE9",
"T@	c #9CA0E0",
"U@	c #989CDD",
"V@	c #969BDC",
"W@	c #A2A6E3",
"X@	c #A2A6E2",
"Y@	c #A1A5E0",
"Z@	c #AAAEEA",
"`@	c #B9BEFA",
" #	c #C1C6FF",
".#	c #AEB3F0",
"+#	c #898ECC",
"@#	c #666AAA",
"##	c #44487E",
"$#	c #5B5F94",
"%#	c #797DB3",
"&#	c #9599D0",
"*#	c #9FA3DB",
"=#	c #9CA0DB",
"-#	c #9095D3",
";#	c #8B90D0",
">#	c #8B8FCF",
",#	c #9195D3",
"'#	c #9A9ED8",
")#	c #898ECE",
"!#	c #8D91CF",
"~#	c #9DA2DD",
"{#	c #ACB0E9",
"]#	c #ADB1E9",
"^#	c #9194CC",
"/#	c #686CA2",
"(#	c #46497F",
"_#	c #1E2041",
":#	c #37395D",
"<#	c #57597F",
"[#	c #70739A",
"}#	c #7578A0",
"|#	c #6F729B",
"1#	c #656892",
"2#	c #626591",
"3#	c #656893",
"4#	c #6B6D96",
"5#	c #6E7097",
"6#	c #74779F",
"7#	c #6E7198",
"8#	c #55577D",
"9#	c #36385C",
"0#	c #10101D",
"a#	c #1E1F2E",
"b#	c #303141",
"c#	c #3D3E50",
"d#	c #3F4051",
"e#	c #3C3D4E",
"f#	c #393A4A",
"g#	c #3A3B4B",
"h#	c #393A4B",
"i#	c #3B3C4C",
"j#	c #3A3C4D",
"k#	c #353647",
"l#	c #282939",
"m#	c #1A1B29",
"n#	c #0F101C",
"o#	c #3D3D38",
"p#	c #3F3F3B",
"q#	c #41413E",
"r#	c #42423F",
"s#	c #42423E",
"t#	c #40413D",
"u#	c #40403C",
"v#	c #40413C",
"w#	c #3D3D39",
"x#	c #3C3C38",
"y#	c #8D8E83",
"z#	c #898A7E",
"A#	c #858579",
"B#	c #818175",
"C#	c #808074",
"D#	c #828276",
"E#	c #818276",
"F#	c #85867A",
"G#	c #8A8A7F",
"H#	c #D5D6C9",
"I#	c #D3D4C7",
"J#	c #D0D1C4",
"K#	c #CECEC1",
"L#	c #CDCEC1",
"M#	c #CECFC2",
"N#	c #CECEC2",
". + + + @ # # # @ @ @ @ @ @ @ # @ + $ % & & * @ ",
"= - ; > , ' ) ) ) ! ~ > > ~ ! ) { ] ^ / ( _ : < ",
"[ } | 1 2 3 4 5 5 6 7 8 8 7 6 5 5 9 3 0 a b c [ ",
"d e f g h i j k l m n o o n m l p q r s t u v w ",
"x y z A B C D E F G H I I H G J K L M N O P Q R ",
"S T U V W X Y Z `  ...+.+... .@.#.$.%.&.*.=.-.;.",
">.,.'.).!.~.{.].^./.(._._.(./.:.<.[.}.|.1.2.3.4.",
"5.6.'.7.8.9.0.a.b.c.d.e.e.d.c.b.f.g.h.i.j.k.l.m.",
"n.o.p.q.r.s.t.u.v.b.w.x.x.w.b.y.z.A.B.C.D.E.F.G.",
"H.I.J.K.L.M.N.O.P.Q.b.b.b.b.Q.R.S.T.U.V.W.X.Y.5.",
"Z.`. +.+++@+#+$+%+&+*+b.b.*+&+=+-+;+>+,+'+)+!+~+",
"{+]+^+/+(+_+:+<+[+}+|+b.b.|+}+1+2+3+4+5+'+6+7+8+",
"9+0+a+b+c+d+e+f+g+O.h+b.b.h+O.i+j+k+l+m+n+o+p+q+",
"r+s+t+u+J.v+w+x+y+z+A+b.b.A+z+B+C+D+E+F+G+H+I+J+",
"K+L+M+N+O+P+Q+R+S+T+b.b.b.b.T+U+V+W+0+X+Y+Z+`+ @",
".@v++@@@#@$@%@&@*@b.=@-@-@=@b.;@>@,@'@)@!@~@{@]@",
"^@/@r.(@_@:@<@[@b.}@|@1@1@|@}@b.2@3@4@5@6@7@8@9@",
"0@a@b@c@a+d@e@f@g@h@i@j@j@i@h@k@l@m@n@o@1.p@q@r@",
"s@t@u@v@w@x@y@z@A@B@C@D@D@C@B@E@F@G@H@I@J@K@L@M@",
"N@O@i.P@Q@R@S@k.P T@U@V@V@U@T@W@X@Y@Z@`@ #.#+#@#",
"##$#%#&#*#=#-#;#>#,#'#*#*#'#,#;#)#!#~#{#]#^#/#(#",
"_#:#<#[#}#|#1#2#2#3#4#5#5#4#3#2#2#1#|#6#7#8#9#_#",
"0#a#b#c#d#e#f#g#g#g#h#h#h#h#g#g#i#g#e#j#k#l#m#n#",
"o#p#q#r#s#t#u#u#u#u#u#u#u#u#u#u#v#t#u#p#w#x#x#o#",
"y#z#A#B#C#B#D#E#E#E#E#E#E#E#E#E#E#E#B#B#D#F#G#y#",
"H#I#J#K#L#L#M#N#N#N#N#N#N#N#N#N#N#M#L#L#K#J#I#H#"};
