/* XPM */
static char * close_inactive_xpm[] = {
"24 26 192 2",
"  	c None",
". 	c #000000",
"+ 	c #46474D",
"@ 	c #47474D",
"# 	c #46464D",
"$ 	c #9E9FB0",
"% 	c #9EA0B0",
"& 	c #9D9EAF",
"* 	c #9B9DAF",
"= 	c #9A9BAE",
"- 	c #9D9EB0",
"; 	c #9D9FB0",
"> 	c #E0E2FD",
", 	c #E0E3FD",
"' 	c #E1E3FD",
") 	c #DEE1FC",
"! 	c #DBDEFB",
"~ 	c #D9DCFA",
"{ 	c #DADCFB",
"] 	c #DCDEFB",
"^ 	c #DFE2FD",
"/ 	c #E1E4FE",
"( 	c #DCDEFC",
"_ 	c #E9ECFF",
": 	c #EAEDFF",
"< 	c #EBEEFF",
"[ 	c #E7EAFF",
"} 	c #E5E8FF",
"| 	c #E4E8FF",
"1 	c #D9DCFD",
"2 	c #D8DBFC",
"3 	c #D7DAFC",
"4 	c #E0E3FF",
"5 	c #EAECFF",
"6 	c #F0F2FF",
"7 	c #EDEFFF",
"8 	c #E4E6FF",
"9 	c #D0D3F9",
"0 	c #D9DCFC",
"a 	c #D6DAFC",
"b 	c #C5C8E8",
"c 	c #C2C6E6",
"d 	c #C1C4E6",
"e 	c #C4C7E7",
"f 	c #D0D3EC",
"g 	c #E4E5F3",
"h 	c #F3F3F9",
"i 	c #F4F4F9",
"j 	c #E5E7F4",
"k 	c #CDD0EB",
"l 	c #BEC1E4",
"m 	c #BDC1E4",
"n 	c #CDD0EA",
"o 	c #E5E6F4",
"p 	c #F3F4F9",
"q 	c #E3E5F3",
"r 	c #D0D2EB",
"s 	c #C3C6E6",
"t 	c #C0C3E5",
"u 	c #C1C5E6",
"v 	c #C5C8E7",
"w 	c #C5C9E8",
"x 	c #C6C9E8",
"y 	c #C3C6E7",
"z 	c #C2C5E7",
"A 	c #CFD1EC",
"B 	c #E4E5F4",
"C 	c #FAFAFD",
"D 	c #FFFFFF",
"E 	c #FBFBFD",
"F 	c #D2D5ED",
"G 	c #E3E5F4",
"H 	c #CED1EB",
"I 	c #C3C7E7",
"J 	c #C7CAE9",
"K 	c #D5D8EE",
"L 	c #EBECF7",
"M 	c #FCFCFE",
"N 	c #F8F8FC",
"O 	c #EEEFF8",
"P 	c #EDEEF8",
"Q 	c #D5D7EE",
"R 	c #C7CAE8",
"S 	c #C2C5E6",
"T 	c #C4C6E6",
"U 	c #D1D3EC",
"V 	c #F7F7FB",
"W 	c #C3C5E5",
"X 	c #C3C6E5",
"Y 	c #C1C4E4",
"Z 	c #BFC2E4",
"` 	c #BABDE1",
" .	c #BDBFE2",
"..	c #C8CAE7",
"+.	c #DFE0F1",
"@.	c #C2C4E4",
"#.	c #C1C3E3",
"$.	c #C2C3E3",
"%.	c #BABCE0",
"&.	c #B5B7DE",
"*.	c #B9BBDF",
"=.	c #CED0E9",
"-.	c #F0F1F8",
";.	c #F1F1F8",
">.	c #C0C2E2",
",.	c #B8BADE",
"'.	c #B3B5DC",
").	c #B7B9DE",
"!.	c #CECFE8",
"~.	c #F1F2F9",
"{.	c #BEC0E0",
"].	c #BEC1E1",
"^.	c #BFC1E1",
"/.	c #BCBFE0",
"(.	c #BABCDE",
"_.	c #B4B7DC",
":.	c #B7BADD",
"<.	c #C4C6E3",
"[.	c #DEDFF0",
"}.	c #BCBFDF",
"|.	c #B9BCDE",
"1.	c #B8BBDE",
"2.	c #CDCFE7",
"3.	c #E2E3F1",
"4.	c #BABDDE",
"5.	c #B8BBDD",
"6.	c #B6B9DC",
"7.	c #BDC0E0",
"8.	c #CFD1E8",
"9.	c #E9EAF5",
"0.	c #FDFDFE",
"a.	c #F6F6FA",
"b.	c #E9EAF4",
"c.	c #B9BDDE",
"d.	c #B4B8DC",
"e.	c #B6BADD",
"f.	c #C5C8E4",
"g.	c #E0E2F1",
"h.	c #FCFCFF",
"i.	c #FBFCFE",
"j.	c #DEE0F0",
"k.	c #C9CBE5",
"l.	c #B6BADB",
"m.	c #B7BADB",
"n.	c #B3B6D9",
"o.	c #B1B5D9",
"p.	c #B5B8DA",
"q.	c #C5C8E2",
"r.	c #DEDFEF",
"s.	c #F1F2F8",
"t.	c #F2F3F9",
"u.	c #E0E1F0",
"v.	c #C2C4E1",
"w.	c #AEB2D7",
"x.	c #C1C4E7",
"y.	c #BFC3E6",
"z.	c #BEC2E6",
"A.	c #CACDEC",
"B.	c #D7DAF2",
"C.	c #DFE1F6",
"D.	c #DCDEF5",
"E.	c #D0D2EF",
"F.	c #C0C3E7",
"G.	c #B6BAE2",
"H.	c #C5C8E9",
"I.	c #C4C7E9",
"J.	c #C4C7E8",
"K.	c #C6C9E9",
"L.	c #C7CAEA",
"M.	c #C2C5E8",
"N.	c #A3A5C2",
"O.	c #A3A6C2",
"P.	c #A4A6C2",
"Q.	c #A0A3C1",
"R.	c #9D9FBF",
"S.	c #9A9DBD",
"T.	c #9A9DBE",
"U.	c #9DA0BF",
"V.	c #A2A4C1",
"W.	c #A4A7C2",
"X.	c #616274",
"Y.	c #5F6073",
"Z.	c #5D5E72",
"`.	c #5B5D71",
" +	c #5F6173",
".+	c #2D2E34",
"++	c #2D2D34",
"@+	c #2D2E35",
"#+	c #2E2E35",
"$+	c #3B3C38",
"%+	c #84847B",
"&+	c #CFD0C5",
". . . . . . . . . . . . . . . . . . . . . . . . ",
"+ + + + + + + @ @ + + # # + + @ @ + + + # + + + ",
"$ $ $ % $ & * = = * - % % ; * = = * & $ % % $ $ ",
"> > , ' > ) ! ~ { ] ^ / / ^ ( { ~ ! ) , ' ' > > ",
"_ _ _ _ _ : < : _ [ } | | } [ _ : < : _ _ _ _ _ ",
"1 1 2 3 1 4 5 6 7 8 3 9 9 3 8 7 6 5 4 0 a 3 1 0 ",
"b b c d e f g h i j k l m n o i p q r s t u v e ",
"w x y z y A B C D E B F F G E D C B H z d z b b ",
"b x e I z J K L M D N O P N D M L Q R S y I b b ",
"s s s T t t s U g V D D D D V g U s t t s s s s ",
"W W W X Y Z `  ...+.C D D C +... .` Z @.X W W W ",
"#.#.#.#.$.#.%.&.*.=.-.D D ;.=.*.&.%.#.$.$.#.#.#.",
">.>.>.>.>.>.,.'.).!.~.D D ~.!.).'.,.>.>.>.>.>.>.",
"{.{.].^./.(._.:.<.[.E D D E [.<.:._.(./.^.].{.{.",
"/./.}./.|.1./.2.3.V D D D D V 3.2./.1.|./.}././.",
"4.4.5.5.6.7.8.9.0.D a.b.b.a.D 0.9.8.7.6.5.5.4.4.",
"c.4.6.d.e.f.g.h.D i.j.k.k.j.i.D h.g.f.e.d.6.4.c.",
"l.m.n.o.p.q.r.s.t.u.v.w.w.v.u.t.s.r.q.p.o.n.m.l.",
"x.z y.z.x.A.B.C.D.E.F.G.G.F.E.D.C.B.A.x.z.y.z x.",
"H.H.I.J.H.K.L.L.H.M.F.y.y.F.M.H.L.L.K.H.J.I.H.H.",
"N.N.O.P.N.Q.R.S.T.U.V.W.W.V.U.T.S.R.Q.N.P.O.N.N.",
"X.X.X.X.X.Y.Z.`.`.Z. +X.X. +Z.`.`.Z.Y.X.X.X.X.X.",
".+.+.+++.+@+#+#+#+#+@+++++@+#+#+#+#+@+.+++.+.+.+",
"$+$+$+$+$+$+$+$+$+$+$+$+$+$+$+$+$+$+$+$+$+$+$+$+",
"%+%+%+%+%+%+%+%+%+%+%+%+%+%+%+%+%+%+%+%+%+%+%+%+",
"&+&+&+&+&+&+&+&+&+&+&+&+&+&+&+&+&+&+&+&+&+&+&+&+"};
