/* XPM */
static char * hide_prelight_xpm[] = {
"24 26 129 2",
"  	c None",
". 	c #292826",
"+ 	c #595A69",
"@ 	c #8E91B7",
"# 	c #AFB3EE",
"$ 	c #A8AEF0",
"% 	c #9399DD",
"& 	c #9399DC",
"* 	c #9398DC",
"= 	c #8388C8",
"- 	c #8287C8",
"; 	c #8287C7",
"> 	c #8186C7",
", 	c #8186C6",
"' 	c #7D82C2",
") 	c #7E83C3",
"! 	c #7F84C3",
"~ 	c #7B80C0",
"{ 	c #7C81C1",
"] 	c #787EBF",
"^ 	c #757ABD",
"/ 	c #7177BB",
"( 	c #7176BB",
"_ 	c #7277BB",
": 	c #787DBD",
"< 	c #797EBE",
"[ 	c #7A7FBE",
"} 	c #797DBD",
"| 	c #7479BB",
"1 	c #6E73B8",
"2 	c #696FB5",
"3 	c #686DB5",
"4 	c #686EB5",
"5 	c #6A6FB6",
"6 	c #767BBB",
"7 	c #757ABA",
"8 	c #7378B9",
"9 	c #7277B9",
"0 	c #7277B8",
"a 	c #7277B7",
"b 	c #7378B7",
"c 	c #6F75B6",
"d 	c #6E73B5",
"e 	c #7176B7",
"f 	c #7F83BE",
"g 	c #8F93C6",
"h 	c #9DA1CD",
"i 	c #A0A4CF",
"j 	c #9FA2CE",
"k 	c #9C9FCD",
"l 	c #9CA0CD",
"m 	c #7075B5",
"n 	c #7176B5",
"o 	c #686EB1",
"p 	c #646AAF",
"q 	c #6D72B3",
"r 	c #9195C6",
"s 	c #BEC0DE",
"t 	c #E2E3F1",
"u 	c #BBEFF6",
"v 	c #E7E7F3",
"w 	c #DEDFEF",
"x 	c #DFE0EF",
"y 	c #6C71B1",
"z 	c #6E72B2",
"A 	c #6166AB",
"B 	c #5B61A8",
"C 	c #686DAF",
"D 	c #9EA1CB",
"E 	c #E0E1EE",
"F 	c #00FFFC",
"G 	c #6B70B1",
"H 	c #6C71B2",
"I 	c #5F65AB",
"J 	c #5A5FA8",
"K 	c #676CAF",
"L 	c #9DA1CC",
"M 	c #E0E1F0",
"N 	c #676CAD",
"O 	c #686DAE",
"P 	c #5F65A9",
"Q 	c #5B61A7",
"R 	c #646AAC",
"S 	c #8A8EC0",
"T 	c #B8BAD9",
"U 	c #DDDEED",
"V 	c #E6E7F2",
"W 	c #E2E3F0",
"X 	c #D9DBEB",
"Y 	c #DADCEC",
"Z 	c #696EB2",
"` 	c #696FB2",
" .	c #666BB0",
"..	c #686DB1",
"+.	c #767BB9",
"@.	c #888DC3",
"#.	c #979BCB",
"$.	c #9A9ECD",
"%.	c #999CCC",
"&.	c #9599CA",
"*.	c #969ACA",
"=.	c #656AAA",
"-.	c #666AAA",
";.	c #6469A9",
">.	c #6368A8",
",.	c #6267A8",
"'.	c #474B81",
").	c #474B80",
"!.	c #484C81",
"~.	c #494C81",
"{.	c #42467E",
"].	c #3C407B",
"^.	c #373B78",
"/.	c #363A77",
"(.	c #383C78",
"_.	c #202243",
":.	c #212244",
"<.	c #212344",
"[.	c #1D1F42",
"}.	c #191B3F",
"|.	c #16183E",
"1.	c #15173D",
"2.	c #10111E",
"3.	c #11121E",
"4.	c #12121F",
"5.	c #12131F",
"6.	c #3D3D38",
"7.	c #8D8D82",
"8.	c #D5D6C9",
". . . . . . . . . . . . . . . . . . . . . . . . ",
"+ + + + + + + + + + + + + + + + + + + + + + + + ",
"@ @ @ @ @ @ @ @ @ @ @ @ @ @ @ @ @ @ @ @ @ @ @ @ ",
"# # # # # # # # # # # # # # # # # # # # # # # # ",
"$ $ $ $ $ $ $ $ $ $ $ $ $ $ $ $ $ $ $ $ $ $ $ $ ",
"% % % % % % % % % % % % % % % % % % % % % & * * ",
"= = = = = = = = = = = = = = = = = = = = = - - ; ",
"> > > > > > > > > > > > > > > > > > > > > > , , ",
", , , , , , , , , , , , , , , , , , , , , , , , ",
"' ' ' ' ' ) ) ! ! ! ! ! ! ! ! ! ! ) ) ' ' ' ' ' ",
"~ ~ { { { ] ^ / ( ( _ _ _ _ ( ( / ^ ] { { { ~ { ",
": : < [ } | 1 2 3 4 5 2 2 5 4 3 2 1 | } [ < : : ",
"6 6 6 6 6 7 8 9 0 9 9 9 9 9 9 0 9 8 7 6 6 6 6 6 ",
"a b c d e f g h i j k l l k j i h g f e d c b a ",
"m n o p q r s t u v w x x w v u t s r q p o n m ",
"y z A B C D E F F F F F F F F F F E D C B A z y ",
"G H I J K L M F F F F F F F F F F M L K J I H G ",
"N O P Q R S T U V W X Y Y X W V U T S R Q P O N ",
"Z `  .p ..+.@.#.$.%.&.*.*.&.%.$.#.@.+...p  .` Z ",
"=.=.=.-.=.;.>.,.,.,.,.,.,.,.,.,.,.>.;.=.-.=.=.=.",
"'.).!.~.'.{.].^./.^.(.(.(.(.^./.^.].{.'.~.!.).'.",
"_._.:.<._.[.}.|.1.1.|.|.|.|.1.1.|.}.[._.<.:._._.",
"2.2.2.2.2.3.3.4.5.5.4.4.4.4.5.5.4.3.3.2.2.2.2.2.",
"6.6.6.6.6.6.6.6.6.6.6.6.6.6.6.6.6.6.6.6.6.6.6.6.",
"7.7.7.7.7.7.7.7.7.7.7.7.7.7.7.7.7.7.7.7.7.7.7.7.",
"8.8.8.8.8.8.8.8.8.8.8.8.8.8.8.8.8.8.8.8.8.8.8.8."};
