/* XPM */
static char * hide_inactive_xpm[] = {
"24 26 112 2",
"  	c None",
". 	c #000000",
"+ 	c #46474D",
"@ 	c #9E9FB0",
"# 	c #E0E2FD",
"$ 	c #E9ECFF",
"% 	c #D9DCFD",
"& 	c #D9DCFC",
"* 	c #C5C8E8",
"= 	c #C5C8E7",
"- 	c #C4C8E7",
"; 	c #C4C7E7",
"> 	c #C5C9E8",
", 	c #C3C6E6",
"' 	c #C4C6E6",
") 	c #C4C7E6",
"! 	c #C3C5E5",
"~ 	c #C1C3E4",
"{ 	c #BFC2E3",
"] 	c #BEC0E3",
"^ 	c #BEC0E2",
"/ 	c #BEC1E3",
"( 	c #C1C4E4",
"_ 	c #C1C3E3",
": 	c #C2C3E3",
"< 	c #C2C4E3",
"[ 	c #BFC1E2",
"} 	c #BCBEE1",
"| 	c #BABCE0",
"1 	c #BABCDF",
"2 	c #BABDE0",
"3 	c #C0C2E2",
"4 	c #BFC1E1",
"5 	c #BEC0E1",
"6 	c #BEC0E0",
"7 	c #BDBFE0",
"8 	c #BCBEDF",
"9 	c #BDC0E0",
"0 	c #C4C6E3",
"a 	c #CCCDE7",
"b 	c #D2D3EA",
"c 	c #D3D5EA",
"d 	c #D3D4EA",
"e 	c #D1D3E9",
"f 	c #BCBFE0",
"g 	c #B9BCDE",
"h 	c #B7BADD",
"i 	c #BBBEDF",
"j 	c #CCCEE7",
"k 	c #E1E2F1",
"l 	c #F2F2F9",
"m 	c #F6F6FB",
"n 	c #F4F4FA",
"o 	c #F0F0F8",
"p 	c #F0F1F8",
"q 	c #BABDDE",
"r 	c #BBBEDE",
"s 	c #B5B8DB",
"t 	c #B2B5DA",
"u 	c #B8BBDD",
"v 	c #FFFFFF",
"w 	c #B9BDDE",
"x 	c #B4B7DC",
"y 	c #B1B5DA",
"z 	c #B7BBDD",
"A 	c #D1D3EA",
"B 	c #F0F1F9",
"C 	c #B6BADB",
"D 	c #B7BADB",
"E 	c #B3B6D9",
"F 	c #B1B4D8",
"G 	c #C7C9E3",
"H 	c #DCDEEE",
"I 	c #EEEFF6",
"J 	c #F2F3F9",
"K 	c #ECEDF6",
"L 	c #EDEDF6",
"M 	c #C1C4E7",
"N 	c #C1C5E7",
"O 	c #C0C3E7",
"P 	c #BFC2E6",
"Q 	c #C8CBEA",
"R 	c #D0D3EF",
"S 	c #D7D9F2",
"T 	c #D9DBF3",
"U 	c #D8DAF3",
"V 	c #D6D8F2",
"W 	c #D6D9F2",
"X 	c #C5C8E9",
"Y 	c #C4C7E8",
"Z 	c #C3C6E8",
"` 	c #A3A5C2",
" .	c #A3A6C2",
"..	c #A4A6C2",
"+.	c #A1A3C1",
"@.	c #9EA0BF",
"#.	c #9B9EBE",
"$.	c #9B9DBE",
"%.	c #9C9EBE",
"&.	c #616274",
"*.	c #5F6073",
"=.	c #5D5F72",
"-.	c #5C5D72",
";.	c #5B5D71",
">.	c #5B5D72",
",.	c #2D2E34",
"'.	c #2D2D34",
").	c #2D2E35",
"!.	c #2E2E35",
"~.	c #3B3C38",
"{.	c #84847B",
"].	c #CFD0C5",
". . . . . . . . . . . . . . . . . . . . . . . . ",
"+ + + + + + + + + + + + + + + + + + + + + + + + ",
"@ @ @ @ @ @ @ @ @ @ @ @ @ @ @ @ @ @ @ @ @ @ @ @ ",
"# # # # # # # # # # # # # # # # # # # # # # # # ",
"$ $ $ $ $ $ $ $ $ $ $ $ $ $ $ $ $ $ $ $ $ $ $ $ ",
"% % % % % % % % % % % % % & & & & & & & & & & & ",
"* * * * * * * = * * * = - ; ; ; ; ; ; ; ; ; ; ; ",
"> > > > > > > > > > > * * * * * * * * * * * * * ",
"* * * * * * * * * * * * * * * * * * * * * * * * ",
", , , , , ' ' ) ) ) ) ) ) ) ) ) ) ' ' , , , , , ",
"! ! ! ! ! ~ { ] ^ ] ] ] / / ] ] ] { ( ! ! ! ! ! ",
"_ _ : < _ [ } | 1 | | | | 2 | | | } [ _ < < _ _ ",
"3 3 3 3 3 [ 4 5 5 5 5 5 5 5 5 5 5 4 [ 3 3 3 3 3 ",
"6 6 7 8 9 0 a b c d e e e e d c b a 0 9 8 7 6 6 ",
"f 7 g h i j k l m n o p p o n m l k j i h g 7 f ",
"q r s t u e p v v v v v v v v v v p e u t s r q ",
"w q x y z A B v v v v v v v v v v B A z y x q w ",
"C D E F s G H I J p K L L K p J I H G s F E D C ",
"M N O P M Q R S T U V W W V U T S R Q M P O N M ",
"X X X X X Y Y Z Z Z Z Z Z Z Z Z Z Y Y X X X X X ",
"` `  ...` +.@.#.$.#.%.%.%.%.#.$.#.@.+.` .. .` ` ",
"&.&.&.&.&.*.=.-.;.>.-.-.-.-.>.;.-.=.*.&.&.&.&.&.",
",.,.,.'.,.).!.!.!.!.!.!.!.!.!.!.!.!.).,.'.,.,.,.",
"~.~.~.~.~.~.~.~.~.~.~.~.~.~.~.~.~.~.~.~.~.~.~.~.",
"{.{.{.{.{.{.{.{.{.{.{.{.{.{.{.{.{.{.{.{.{.{.{.{.",
"].].].].].].].].].].].].].].].].].].].].].].].]."};
