/* XPM */
static char * hide_pressed_xpm[] = {
"24 26 404 2",
"  	c None",
". 	c #292827",
"+ 	c #282827",
"@ 	c #282826",
"# 	c #282726",
"$ 	c #272726",
"% 	c #252523",
"& 	c #232321",
"* 	c #262524",
"= 	c #595B6A",
"- 	c #4E4F5E",
"; 	c #3F404F",
"> 	c #333442",
", 	c #30313E",
"' 	c #31323F",
") 	c #343542",
"! 	c #343442",
"~ 	c #353643",
"{ 	c #31313F",
"] 	c #2C2C3A",
"^ 	c #2B2C39",
"/ 	c #373846",
"( 	c #494A59",
"_ 	c #595A6A",
": 	c #9093B9",
"< 	c #787A9F",
"[ 	c #5A5C7E",
"} 	c #414364",
"| 	c #3B3D5D",
"1 	c #3D3F60",
"2 	c #434566",
"3 	c #424465",
"4 	c #424565",
"5 	c #3D3F5F",
"6 	c #3A3C5C",
"7 	c #3F4162",
"8 	c #585A7C",
"9 	c #77799E",
"0 	c #B1B5F0",
"a 	c #9296CD",
"b 	c #6C6FA3",
"c 	c #4D5081",
"d 	c #46497A",
"e 	c #4A4D7F",
"f 	c #515588",
"g 	c #505487",
"h 	c #505486",
"i 	c #4E5284",
"j 	c #4E5184",
"k 	c #4B4F81",
"l 	c #535688",
"m 	c #64689A",
"n 	c #8387BC",
"o 	c #9FA3DB",
"p 	c #B2B7F2",
"q 	c #AAAFF2",
"r 	c #8E92D0",
"s 	c #6C70A8",
"t 	c #51558A",
"u 	c #4C5086",
"v 	c #50548D",
"w 	c #575C96",
"x 	c #565B94",
"y 	c #555A93",
"z 	c #555A94",
"A 	c #51568F",
"B 	c #4E538D",
"C 	c #535890",
"D 	c #696EA6",
"E 	c #868BC4",
"F 	c #A1A6E2",
"G 	c #ACB0F1",
"H 	c #ADB3F6",
"I 	c #949ADE",
"J 	c #7E83C1",
"K 	c #6468A0",
"L 	c #515589",
"M 	c #4F5389",
"N 	c #545992",
"O 	c #595E9A",
"P 	c #585E98",
"Q 	c #585D97",
"R 	c #595E98",
"S 	c #515690",
"T 	c #4D528D",
"U 	c #7B7FB9",
"V 	c #A0A4DE",
"W 	c #B3B7F5",
"X 	c #AAAFF0",
"Y 	c #999EE2",
"Z 	c #8388C8",
"` 	c #7276B0",
" .	c #5D6195",
"..	c #505384",
"+.	c #505386",
"@.	c #55598F",
"#.	c #5A5E97",
"$.	c #595D95",
"%.	c #585C94",
"&.	c #51558D",
"*.	c #4D5189",
"=.	c #5A5E95",
"-.	c #7F83B9",
";.	c #A4A8DF",
">.	c #B2B6F0",
",.	c #A0A5E3",
"'.	c #878CCD",
").	c #8287C7",
"!.	c #7075AF",
"~.	c #515485",
"{.	c #525689",
"].	c #585C93",
"^.	c #5D629B",
"/.	c #5C6199",
"(.	c #5B6097",
"_.	c #5C6098",
":.	c #5C6198",
"<.	c #555991",
"[.	c #5D6199",
"}.	c #8084BB",
"|.	c #A3A7DE",
"1.	c #AFB3ED",
"2.	c #9EA2E0",
"3.	c #868BCC",
"4.	c #8287C6",
"5.	c #515586",
"6.	c #54578A",
"7.	c #5B5E95",
"8.	c #60649C",
"9.	c #5F639B",
"0.	c #5E6199",
"a.	c #5E629A",
"b.	c #585B93",
"c.	c #545890",
"d.	c #5F639A",
"e.	c #7E82B8",
"f.	c #9DA1D8",
"g.	c #A9ADE7",
"h.	c #9A9FDC",
"i.	c #868BCB",
"j.	c #7D82C2",
"k.	c #6D72AC",
"l.	c #5C5F93",
"m.	c #525687",
"n.	c #56598D",
"o.	c #5E6299",
"p.	c #6468A1",
"q.	c #63679F",
"r.	c #62669D",
"s.	c #63679E",
"t.	c #5C6097",
"u.	c #8185BC",
"v.	c #9FA3DA",
"w.	c #A8ADE6",
"x.	c #989DDA",
"y.	c #7B80C0",
"z.	c #6C70AA",
"A.	c #545788",
"B.	c #585B8F",
"C.	c #5E639E",
"D.	c #5A5E9B",
"E.	c #585C98",
"F.	c #585C99",
"G.	c #595D99",
"H.	c #535793",
"I.	c #525792",
"J.	c #62669E",
"K.	c #8387BD",
"L.	c #A1A5DB",
"M.	c #969BD8",
"N.	c #8085C5",
"O.	c #787DBC",
"P.	c #696DA7",
"Q.	c #5B5F92",
"R.	c #56598A",
"S.	c #5A5E91",
"T.	c #5F639C",
"U.	c #5E639F",
"V.	c #585D9B",
"W.	c #555A98",
"X.	c #565B98",
"Y.	c #575C99",
"Z.	c #575B99",
"`.	c #565B99",
" +	c #515693",
".+	c #525793",
"++	c #6368A1",
"@+	c #8589C0",
"#+	c #A2A6DD",
"$+	c #A8ACE5",
"%+	c #9498D6",
"&+	c #7C81C1",
"*+	c #757ABA",
"=+	c #676BA6",
"-+	c #5A5D91",
";+	c #555889",
">+	c #5C6093",
",+	c #6469A0",
"'+	c #686DA6",
")+	c #666BA4",
"!+	c #6469A1",
"~+	c #6469A2",
"{+	c #656AA2",
"]+	c #5F649C",
"^+	c #5C619A",
"/+	c #696EA5",
"(+	c #878BC1",
"_+	c #A6AAE4",
":+	c #9297D4",
"<+	c #7A7FBF",
"[+	c #7176B6",
"}+	c #6569A3",
"|+	c #55598E",
"1+	c #5D6194",
"2+	c #767AAB",
"3+	c #8C90BD",
"4+	c #989CC3",
"5+	c #9A9DC2",
"6+	c #989CC2",
"7+	c #9599C0",
"8+	c #9B9EC3",
"9+	c #9195BB",
"0+	c #8084B0",
"a+	c #7A7FB0",
"b+	c #888CC3",
"c+	c #9EA2DB",
"d+	c #A2A6E1",
"e+	c #9094D1",
"f+	c #767BBB",
"g+	c #6F74B3",
"h+	c #50548B",
"i+	c #4B4F84",
"j+	c #8C90B9",
"k+	c #BDC0DA",
"l+	c #E0E1EE",
"m+	c #E6E7F0",
"n+	c #E3E4EE",
"o+	c #DADCE9",
"p+	c #DBDDE9",
"q+	c #E7E8F1",
"r+	c #D9DAE6",
"s+	c #B1B4CD",
"t+	c #9194BE",
"u+	c #989CD7",
"v+	c #9DA1DE",
"w+	c #8E93D0",
"x+	c #7378B8",
"y+	c #6B6FAF",
"z+	c #61669F",
"A+	c #4C5088",
"B+	c #484C83",
"C+	c #5F6397",
"D+	c #A0A2C5",
"E+	c #E4E5F2",
"F+	c #FFFFFF",
"G+	c #D9DAE5",
"H+	c #A4A7CA",
"I+	c #8A8EC5",
"J+	c #9498D5",
"K+	c #8C90CD",
"L+	c #6F74B4",
"M+	c #696EAF",
"N+	c #5D629C",
"O+	c #464A82",
"P+	c #42457C",
"Q+	c #5B5E92",
"R+	c #9D9FC3",
"S+	c #E2E3EF",
"T+	c #D5D6E2",
"U+	c #A2A4C8",
"V+	c #898DC4",
"W+	c #9398D5",
"X+	c #989CDB",
"Y+	c #8B90CD",
"Z+	c #6E73B4",
"`+	c #656AAB",
" @	c #585C97",
".@	c #45487F",
"+@	c #43477B",
"@@	c #8D8FB9",
"#@	c #BDBFDA",
"$@	c #DEDFEB",
"%@	c #E3E4EC",
"&@	c #E0E0EA",
"*@	c #D8D8E6",
"=@	c #D9D9E6",
"-@	c #E4E5ED",
";@	c #D6D7E3",
">@	c #B0B2CC",
",@	c #9295BE",
"'@	c #989CD6",
")@	c #999EDA",
"!@	c #878CCA",
"~@	c #6A6FB1",
"{@	c #666CAF",
"]@	c #6064A2",
"^@	c #595D96",
"/@	c #60649A",
"(@	c #7377AE",
"_@	c #8F93C8",
":@	c #A3A7D8",
"<@	c #AFB2DD",
"[@	c #AFB2DB",
"}@	c #AEB1DB",
"|@	c #ABAED9",
"1@	c #B0B3DC",
"2@	c #A7ABD6",
"3@	c #979BCB",
"4@	c #9497CD",
"5@	c #9FA3DE",
"6@	c #AFB3EF",
"7@	c #A8ACEB",
"8@	c #8C90D1",
"9@	c #6B70B4",
"0@	c #6367A7",
"a@	c #6B6FAC",
"b@	c #797DB7",
"c@	c #8D91C9",
"d@	c #9B9FDA",
"e@	c #A3A7E4",
"f@	c #A1A6E5",
"g@	c #9FA4E3",
"h@	c #9DA1E0",
"i@	c #9DA2E0",
"j@	c #9DA2E1",
"k@	c #9A9FDE",
"l@	c #999EDC",
"m@	c #A6AAE8",
"n@	c #B9BDFA",
"o@	c #C2C7FF",
"p@	c #AFB3F1",
"q@	c #898DCC",
"r@	c #666AAA",
"s@	c #44487E",
"t@	c #5B5F94",
"u@	c #797DB3",
"v@	c #9599D0",
"w@	c #9CA1DC",
"x@	c #8E92D2",
"y@	c #8C90D0",
"z@	c #8C91D0",
"A@	c #8E92D1",
"B@	c #8D92D1",
"C@	c #8C90CF",
"D@	c #8F93D0",
"E@	c #9EA2DD",
"F@	c #ACB0E9",
"G@	c #9094CC",
"H@	c #686CA2",
"I@	c #46497F",
"J@	c #1E2041",
"K@	c #37395D",
"L@	c #57597F",
"M@	c #70739A",
"N@	c #7578A0",
"O@	c #6F729B",
"P@	c #656892",
"Q@	c #636691",
"R@	c #626591",
"S@	c #666992",
"T@	c #74779F",
"U@	c #6E7198",
"V@	c #55577D",
"W@	c #36385C",
"X@	c #10101D",
"Y@	c #1E1F2E",
"Z@	c #303141",
"`@	c #3D3E50",
" #	c #3F4051",
".#	c #3C3D4E",
"+#	c #393A4A",
"@#	c #3A3B4B",
"##	c #3A3C4C",
"$#	c #3A3C4D",
"%#	c #353647",
"&#	c #282939",
"*#	c #1A1B29",
"=#	c #0F101C",
"-#	c #3D3D38",
";#	c #3F3F3B",
">#	c #41413E",
",#	c #42423F",
"'#	c #42423E",
")#	c #40413D",
"!#	c #40403C",
"~#	c #40413C",
"{#	c #3D3D39",
"]#	c #3C3C38",
"^#	c #8D8E83",
"/#	c #898A7E",
"(#	c #858579",
"_#	c #818175",
":#	c #808074",
"<#	c #828276",
"[#	c #818276",
"}#	c #85867A",
"|#	c #8A8A7F",
"1#	c #D5D6C9",
"2#	c #D3D4C7",
"3#	c #D0D1C4",
"4#	c #CECEC1",
"5#	c #CDCEC1",
"6#	c #CECFC2",
"7#	c #CECEC2",
". + + + @ # # # @ @ @ @ @ @ @ # @ + $ % & & * @ ",
"= - ; > , ' ) ! ! ! ! ! ! ! ! ! ) ~ { ] ^ / ( _ ",
": < [ } | 1 2 3 3 3 3 3 3 3 3 3 4 2 5 6 7 8 9 : ",
"0 a b c d e f g h h h h h h h g i j k l m n o p ",
"q r s t u v w x y z z z z z z x A B C D E F G H ",
"I J K L M N O P Q Q Q Q Q Q Q R S T Q U V W X Y ",
"Z `  ...+.@.#.$.%.%.%.%.%.%.%.$.&.*.=.-.;.>.,.'.",
").!. .~.{.].^./.(._._._._._._.:.<.&.[.}.|.1.2.3.",
"4.!. .5.6.7.8.9.[.0.0.0.0.0.0.a.b.c.d.e.f.g.h.i.",
"j.k.l.m.n.o.p.q.r.r.r.r.r.r.r.s.t.%.s.u.v.w.x.).",
"y.z.l.A.B.[.C.D.E.F.G.G.G.G.F.G.H.I.J.K.L.w.M.N.",
"O.P.Q.R.S.T.U.V.W.X.Y.Z.Z.Y.X.`. +.+++@+#+$+%+&+",
"*+=+-+;+>+,+'+)+!+~+~+~+~+~+~+{+]+^+/+(+#+_+:+<+",
"[+}+|+f 1+2+3+4+5+6+7+7+7+7+6+8+9+0+a+b+c+d+e+f+",
"g+++h+i+ .j+k+l+m+n+o+p+p+o+n+q+r+s+t+b+u+v+w+x+",
"y+z+A+B+C+D+E+F+F+F+F+F+F+F+F+F+F+G+H+I+J+x.K+L+",
"M+N+O+P+Q+R+S+F+F+F+F+F+F+F+F+F+F+T+U+V+W+X+Y+Z+",
"`+ @.@+@S.@@#@$@%@&@*@=@=@*@&@-@;@>@,@V+'@)@!@~@",
"{@]@^@/@(@_@:@<@[@}@|@|@|@|@}@1@2@3@4@5@6@7@8@9@",
"0@a@b@c@d@e@f@g@h@i@j@j@j@j@i@j@k@l@m@n@o@p@q@r@",
"s@t@u@v@o w@:+x@y@z@A@B@B@A@z@z@C@D@E@F@F@G@H@I@",
"J@K@L@M@N@O@P@Q@R@Q@Q@Q@Q@Q@Q@R@Q@S@O@T@U@V@W@J@",
"X@Y@Z@`@ #.#+#@#@#@#@#@#@#@#@#@###@#.#$#%#&#*#=#",
"-#;#>#,#'#)#!#!#!#!#!#!#!#!#!#!#~#)#!#;#{#]#]#-#",
"^#/#(#_#:#_#<#[#[#[#[#[#[#[#[#[#[#[#_#_#<#}#|#^#",
"1#2#3#4#5#5#6#7#7#7#7#7#7#7#7#7#7#6#5#5#4#3#2#1#"};
