/* XPM */
static char * maximize_inactive_xpm[] = {
"24 26 227 2",
"  	c None",
". 	c #000000",
"+ 	c #46474D",
"@ 	c #47474D",
"# 	c #46464D",
"$ 	c #9E9FB0",
"% 	c #9EA0B0",
"& 	c #9D9EAF",
"* 	c #9B9DAF",
"= 	c #9A9CAE",
"- 	c #9A9BAE",
"; 	c #E0E2FD",
"> 	c #E0E3FD",
", 	c #E1E3FD",
"' 	c #DEE1FC",
") 	c #DCDFFC",
"! 	c #DADDFB",
"~ 	c #E9ECFF",
"{ 	c #E8EBFF",
"] 	c #E7EAFF",
"^ 	c #D9DCFD",
"/ 	c #D8DBFC",
"( 	c #D7DBFC",
"_ 	c #DEE1FF",
": 	c #E4E7FF",
"< 	c #E9EBFF",
"[ 	c #EAECFF",
"} 	c #EBEDFF",
"| 	c #DEE1FE",
"1 	c #D7DAFC",
"2 	c #D9DCFC",
"3 	c #C5C8E8",
"4 	c #C2C5E6",
"5 	c #C1C4E6",
"6 	c #C4C7E7",
"7 	c #D2D4EC",
"8 	c #E2E4F3",
"9 	c #F0F1F8",
"0 	c #F3F4F9",
"a 	c #F2F3F9",
"b 	c #EFF0F8",
"c 	c #F0F0F8",
"d 	c #EEEEF7",
"e 	c #EFF0F7",
"f 	c #ECEDF6",
"g 	c #DFE1F1",
"h 	c #D0D2EB",
"i 	c #C3C6E6",
"j 	c #C0C4E5",
"k 	c #C5C8E7",
"l 	c #C5C9E8",
"m 	c #C6C9E9",
"n 	c #C1C5E7",
"o 	c #BFC2E6",
"p 	c #C4C7E8",
"q 	c #D9DBF0",
"r 	c #F2F3FA",
"s 	c #FFFFFF",
"t 	c #EDEEF7",
"u 	c #D6D8EF",
"v 	c #C3C7E7",
"w 	c #BFC2E5",
"x 	c #C6C9E8",
"y 	c #F3F3FA",
"z 	c #F1F2F9",
"A 	c #D8DAEF",
"B 	c #BEC2E5",
"C 	c #C6C8E8",
"D 	c #C4C6E6",
"E 	c #C0C3E5",
"F 	c #BFC2E4",
"G 	c #D1D3EC",
"H 	c #E3E4F3",
"I 	c #F2F2F9",
"J 	c #F6F6FB",
"K 	c #F4F4FA",
"L 	c #EFEFF8",
"M 	c #F5F5FA",
"N 	c #F1F1F9",
"O 	c #D6D8EE",
"P 	c #C2C5E5",
"Q 	c #BDC0E3",
"R 	c #C4C7E6",
"S 	c #C3C5E5",
"T 	c #C2C4E4",
"U 	c #C1C4E4",
"V 	c #C2C4E5",
"W 	c #C7C9E6",
"X 	c #CBCDE8",
"Y 	c #D0D1EA",
"Z 	c #D1D2EB",
"` 	c #D2D4EB",
" .	c #D0D2EA",
"..	c #D4D5EC",
"+.	c #E1E2F2",
"@.	c #D4D6ED",
"#.	c #BDBFE2",
"$.	c #BFC1E3",
"%.	c #C1C3E3",
"&.	c #C2C4E3",
"*.	c #BFC1E2",
"=.	c #BBBDE0",
"-.	c #B8BBDF",
";.	c #B8BADF",
">.	c #BABCE0",
",.	c #D3D4EB",
"'.	c #F1F1F8",
").	c #D3D5EB",
"!.	c #C0C2E2",
"~.	c #BDBFE1",
"{.	c #C1C2E2",
"].	c #C1C3E2",
"^.	c #BEC0E1",
"/.	c #BABDDF",
"(.	c #B8BADE",
"_.	c #B7BADE",
":.	c #B9BBDF",
"<.	c #B5B7DD",
"[.	c #B3B5DC",
"}.	c #CED0E9",
"|.	c #EEEFF7",
"1.	c #D2D4EA",
"2.	c #BFC0E1",
"3.	c #BABCDF",
"4.	c #BCBEE0",
"5.	c #BEC0E0",
"6.	c #BDBFE0",
"7.	c #BCBFE0",
"8.	c #BDC0E0",
"9.	c #CACCE6",
"0.	c #D0D1E9",
"a.	c #C9CBE6",
"b.	c #BBBDDF",
"c.	c #B2B5DB",
"d.	c #B6B9DD",
"e.	c #CDCEE8",
"f.	c #D1D2E9",
"g.	c #B7BADD",
"h.	c #BABCDE",
"i.	c #BEC1E1",
"j.	c #B9BCDE",
"k.	c #BBBEDF",
"l.	c #CCCEE7",
"m.	c #E5E5F3",
"n.	c #F7F8FC",
"o.	c #F8F8FC",
"p.	c #E5E6F3",
"q.	c #C7C9E5",
"r.	c #B4B7DC",
"s.	c #B6B9DC",
"t.	c #CED0E8",
"u.	c #F3F4FA",
"v.	c #D1D3EA",
"w.	c #B5B8DC",
"x.	c #BABDDE",
"y.	c #BBBEDE",
"z.	c #B5B8DB",
"A.	c #B2B5DA",
"B.	c #B8BBDD",
"C.	c #D1D3E9",
"D.	c #F6F6FA",
"E.	c #F6F7FB",
"F.	c #CCCEE6",
"G.	c #B0B4D9",
"H.	c #CBCDE6",
"I.	c #F5F6FA",
"J.	c #D0D2E9",
"K.	c #B2B6DA",
"L.	c #B9BDDE",
"M.	c #B1B5DA",
"N.	c #B7BBDD",
"O.	c #D0D3E9",
"P.	c #F6F7FC",
"Q.	c #B0B4DA",
"R.	c #B0B3D9",
"S.	c #C9CCE6",
"T.	c #CED1E8",
"U.	c #B4B8DC",
"V.	c #B6BADB",
"W.	c #B7BADB",
"X.	c #B3B6D9",
"Y.	c #B1B4D8",
"Z.	c #C6C9E3",
"`.	c #E0E1F0",
" +	c #E0E2F0",
".+	c #C3C5E1",
"++	c #B0B3D8",
"@+	c #C1C4E1",
"#+	c #DDDFEE",
"$+	c #EFEFF7",
"%+	c #DDDEEE",
"&+	c #C5C7E2",
"*+	c #B1B5D9",
"=+	c #B3B6DA",
"-+	c #C1C4E7",
";+	c #C0C3E7",
">+	c #C7CAEA",
",+	c #D1D4EF",
"'+	c #D9DBF3",
")+	c #D2D4EF",
"!+	c #C6C9EA",
"~+	c #D2D5F0",
"{+	c #DADCF4",
"]+	c #D2D4F0",
"^+	c #C8CBEA",
"/+	c #C5C8E9",
"(+	c #C4C6E8",
"_+	c #C3C6E8",
":+	c #A3A5C2",
"<+	c #A3A6C2",
"[+	c #A4A6C2",
"}+	c #A1A3C1",
"|+	c #9DA0BF",
"1+	c #9B9DBE",
"2+	c #A1A4C1",
"3+	c #616274",
"4+	c #5F6073",
"5+	c #5D5E72",
"6+	c #5B5D71",
"7+	c #5F6173",
"8+	c #2D2E34",
"9+	c #2D2D34",
"0+	c #2D2E35",
"a+	c #2E2E35",
"b+	c #3B3C38",
"c+	c #84847B",
"d+	c #CFD0C5",
". . . . . . . . . . . . . . . . . . . . . . . . ",
"+ + + + + + + @ @ @ @ @ @ @ @ @ @ + + + # + + + ",
"$ $ $ % $ & * = - = = = = = = - = * & $ % % $ $ ",
"; ; > , ; ' ) ! ! ! ! ! ! ! ! ! ! ) ' > , , ; ; ",
"~ ~ ~ ~ ~ { { ] ] ] ] ] ] ] ] ] ] { { ~ ~ ~ ~ ~ ",
"^ ^ / ( ^ _ : < [ [ < < < < [ } [ : | / 1 / ^ 2 ",
"3 3 4 5 6 7 8 9 0 a b c b d e e f g h i j 4 k 6 ",
"l m n o p q r s s s s s s s s s s t u v w 5 3 3 ",
"3 x 5 w 6 q y s s s s s s s s s s z A v B 5 C 3 ",
"i D E F 4 G H I J K L L c M s s s N O P Q F R i ",
"S S T U V W X Y Z ` Y  ...+.J s s b @.U #.$.S S ",
"%.%.&.&.%.*.=.-.;.=.>.>.*.,.9 s s '.).!.=.~.&.%.",
"!.!.{.].!.^./.(._.:.<.[.:.}.|.s s '.1.2.3.4.{.!.",
"5.5.6.7.8.&.9.0.0.a.b.c.d.e.|.s s b f.7.g.h.i.5.",
"7.6.j.g.k.l.m.n.o.p.q.r.s.t.K s s u.v./.w.g.8.7.",
"x.y.z.A.B.C.D.s s E.F.G.G.H.I.s s M J.B.K.w.y.x.",
"L.x.r.M.N.O.J s s P.l.Q.R.S.z s s N T.B.c.U.x.L.",
"V.W.X.Y.z.Z.`.0 0  +.+++++@+#+$+$+%+&+z.*+=+W.V.",
"-+n ;+o -+>+,+'+'+)+!+o o !+~+{+{+]+^+-+o ;+n -+",
"/+/+/+/+/+p (+_+_+_+p /+/+p _+_+_+(+p /+/+/+/+/+",
":+:+<+[+:+}+|+1+1+|+2+[+[+2+|+1+1+|+}+:+[+<+:+:+",
"3+3+3+3+3+4+5+6+6+5+7+3+3+7+5+6+6+5+4+3+3+3+3+3+",
"8+8+8+9+8+0+a+a+a+a+0+9+9+0+a+a+a+a+0+8+9+8+8+8+",
"b+b+b+b+b+b+b+b+b+b+b+b+b+b+b+b+b+b+b+b+b+b+b+b+",
"c+c+c+c+c+c+c+c+c+c+c+c+c+c+c+c+c+c+c+c+c+c+c+c+",
"d+d+d+d+d+d+d+d+d+d+d+d+d+d+d+d+d+d+d+d+d+d+d+d+"};
