/* XPM */
static char * maximize_pressed_xpm[] = {
"24 26 450 2",
"  	c None",
". 	c #292827",
"+ 	c #282827",
"@ 	c #282826",
"# 	c #282726",
"$ 	c #272726",
"% 	c #252523",
"& 	c #232321",
"* 	c #262524",
"= 	c #595B6A",
"- 	c #4E4F5E",
"; 	c #3F404F",
"> 	c #333442",
", 	c #30313E",
"' 	c #32323F",
") 	c #353642",
"! 	c #353643",
"~ 	c #363643",
"{ 	c #363744",
"] 	c #31323F",
"^ 	c #2C2C39",
"/ 	c #2B2C39",
"( 	c #373846",
"_ 	c #494A59",
": 	c #595A6A",
"< 	c #9093B9",
"[ 	c #787A9F",
"} 	c #5A5D7F",
"| 	c #424464",
"1 	c #3B3D5D",
"2 	c #3A3C5D",
"3 	c #3B3D61",
"4 	c #37395E",
"5 	c #36395D",
"6 	c #373A5E",
"7 	c #36385D",
"8 	c #3B3E61",
"9 	c #3A3C5C",
"0 	c #404262",
"a 	c #595B7D",
"b 	c #77799E",
"c 	c #B1B5F0",
"d 	c #9295CD",
"e 	c #6D70A3",
"f 	c #4F5282",
"g 	c #464A7A",
"h 	c #45487C",
"i 	c #454980",
"j 	c #3F437C",
"k 	c #3E427A",
"l 	c #3E427B",
"m 	c #3F447C",
"n 	c #3D4179",
"o 	c #42467C",
"p 	c #464A7E",
"q 	c #535788",
"r 	c #66699B",
"s 	c #8488BC",
"t 	c #9FA3DB",
"u 	c #B2B7F2",
"v 	c #AAAFF2",
"w 	c #8E92D0",
"x 	c #6C70A8",
"y 	c #51558A",
"z 	c #4C5086",
"A 	c #4F538C",
"B 	c #545994",
"C 	c #525792",
"D 	c #515691",
"E 	c #525691",
"F 	c #525791",
"G 	c #4D528D",
"H 	c #4C518B",
"I 	c #525790",
"J 	c #696EA6",
"K 	c #878BC4",
"L 	c #A2A6E2",
"M 	c #ACB0F1",
"N 	c #ADB3F6",
"O 	c #949ADE",
"P 	c #7F83C1",
"Q 	c #61659D",
"R 	c #4E5288",
"S 	c #62679B",
"T 	c #7B80B0",
"U 	c #8A8EB9",
"V 	c #8E91BA",
"W 	c #8C90B9",
"X 	c #888CB6",
"Y 	c #898CB7",
"Z 	c #898DB7",
"` 	c #8D91BA",
" .	c #9094BC",
"..	c #8589B2",
"+.	c #7075A3",
"@.	c #686CA1",
"#.	c #7A7EB8",
"$.	c #9A9FDB",
"%.	c #AFB4F2",
"&.	c #AAAFF0",
"*.	c #999EE2",
"=.	c #8388C8",
"-.	c #7377B1",
";.	c #55598F",
">.	c #43467B",
",.	c #4C5084",
"'.	c #7B7EA8",
").	c #B2B4CF",
"!.	c #DADBE8",
"~.	c #E3E4ED",
"{.	c #DEE0EA",
"].	c #D6D7E4",
"^.	c #D7D9E5",
"/.	c #D6D8E5",
"(.	c #D2D3E2",
"_.	c #D7D8E5",
":.	c #D8DAE7",
"<.	c #C6C8D8",
"[.	c #9D9FBC",
"}.	c #7D80AC",
"|.	c #7C80B8",
"1.	c #989DD8",
"2.	c #AAAEEB",
"3.	c #A1A6E3",
"4.	c #878CCD",
"5.	c #8287C7",
"6.	c #7276B0",
"7.	c #51558D",
"8.	c #3E4279",
"9.	c #4E5286",
"0.	c #9093B7",
"a.	c #DEDFEC",
"b.	c #FFFFFF",
"c.	c #FFFFFE",
"d.	c #C5C6D7",
"e.	c #9196D3",
"f.	c #A3A8E6",
"g.	c #9FA4E1",
"h.	c #868BCC",
"i.	c #8287C6",
"j.	c #3F437A",
"k.	c #4F5388",
"l.	c #9194B8",
"m.	c #DFE0ED",
"n.	c #D1D1DE",
"o.	c #9597BC",
"p.	c #7A7EB6",
"q.	c #8B8FCD",
"r.	c #9DA1DF",
"s.	c #9CA1DD",
"t.	c #868BCB",
"u.	c #7D82C2",
"v.	c #6E73AC",
"w.	c #54578E",
"x.	c #46497F",
"y.	c #53578B",
"z.	c #8386B0",
"A.	c #BABBD6",
"B.	c #E1E2EE",
"C.	c #E9E9F2",
"D.	c #E5E5EF",
"E.	c #D7D8E7",
"F.	c #D6D7E6",
"G.	c #DADBE9",
"H.	c #E8E8F1",
"I.	c #D1D2DF",
"J.	c #9598BD",
"K.	c #7D81B9",
"L.	c #8E92CF",
"M.	c #9DA2DF",
"N.	c #9A9EDB",
"O.	c #7B80C0",
"P.	c #6C70AA",
"Q.	c #595C91",
"R.	c #4F5385",
"S.	c #575A8E",
"T.	c #6B6FA2",
"U.	c #7E81B2",
"V.	c #888CB8",
"W.	c #8A8DB7",
"X.	c #8D90B9",
"Y.	c #8689B5",
"Z.	c #8F92BA",
"`.	c #B1B3CF",
" +	c #E7E8F0",
".+	c #CDCEDD",
"++	c #9295BC",
"@+	c #7F83BB",
"#+	c #9094D1",
"$+	c #989DD9",
"%+	c #8085C5",
"&+	c #787DBC",
"*+	c #696DA7",
"=+	c #5B5F92",
"-+	c #56598A",
";+	c #5B5E92",
">+	c #5E629B",
",+	c #5A5F9D",
"'+	c #525797",
")+	c #505594",
"!+	c #575C99",
"~+	c #525796",
"{+	c #525795",
"]+	c #5F649D",
"^+	c #9194BC",
"/+	c #D2D3E1",
"(+	c #9598BF",
"_+	c #8186BD",
":+	c #9196D2",
"<+	c #9CA1DE",
"[+	c #959AD7",
"}+	c #7C81C1",
"|+	c #757ABA",
"1+	c #676BA5",
"2+	c #575A8A",
"3+	c #5C6093",
"4+	c #60649D",
"5+	c #5D629F",
"6+	c #555A9A",
"7+	c #555A98",
"8+	c #4B5192",
"9+	c #464C8F",
"0+	c #535997",
"a+	c #D7D8E6",
"b+	c #D4D5E2",
"c+	c #9699C0",
"d+	c #8387BF",
"e+	c #9297D3",
"f+	c #9CA0DE",
"g+	c #9398D5",
"h+	c #7A7FBF",
"i+	c #7176B6",
"j+	c #6569A3",
"k+	c #565A8E",
"l+	c #525688",
"m+	c #5D6195",
"n+	c #7276A9",
"o+	c #878BBA",
"p+	c #9296BF",
"q+	c #8F93BB",
"r+	c #8185B4",
"s+	c #6267A1",
"t+	c #4F5495",
"u+	c #575D9A",
"v+	c #8B8FB9",
"w+	c #D8DAE8",
"x+	c #D3D5E2",
"y+	c #989CC2",
"z+	c #858AC1",
"A+	c #9398D4",
"B+	c #9BA0DD",
"C+	c #9195D2",
"D+	c #767BBB",
"E+	c #6F74B3",
"F+	c #6368A1",
"G+	c #50548B",
"H+	c #4B4F84",
"I+	c #8C8FB9",
"J+	c #C6C8DF",
"K+	c #EDEEF5",
"L+	c #EAEBF2",
"M+	c #C4C6DC",
"N+	c #8488B6",
"O+	c #5C609E",
"P+	c #5F64A0",
"Q+	c #9497BF",
"R+	c #E5E6EF",
"S+	c #DBDCE6",
"T+	c #9DA0C5",
"U+	c #878BC3",
"V+	c #9A9EDC",
"W+	c #8F93D0",
"X+	c #7378B8",
"Y+	c #6B6FAF",
"Z+	c #61669F",
"`+	c #4C5088",
" @	c #484C83",
".@	c #5F6397",
"+@	c #9EA1C5",
"@@	c #EFF0F8",
"#@	c #EDEDF4",
"$@	c #9598C1",
"%@	c #5C61A0",
"&@	c #5C619F",
"*@	c #9396C0",
"=@	c #EAEAF2",
"-@	c #E0E1EA",
";@	c #A2A4C9",
">@	c #8A8EC5",
",@	c #9499D6",
"'@	c #989DDB",
")@	c #8C90CD",
"!@	c #6F74B4",
"~@	c #696EAF",
"{@	c #5D629C",
"]@	c #464A82",
"^@	c #42457C",
"/@	c #9B9EC2",
"(@	c #ECEDF6",
"_@	c #E9EAF1",
":@	c #9396BF",
"<@	c #5C609F",
"[@	c #5B5F9E",
"}@	c #8E91BB",
"|@	c #DEDFEA",
"1@	c #D4D5E1",
"2@	c #9C9EC4",
"3@	c #898DC4",
"4@	c #9599D6",
"5@	c #999DDB",
"6@	c #8B90CD",
"7@	c #6E73B4",
"8@	c #656AAB",
"9@	c #585C97",
"0@	c #45487F",
"a@	c #43477B",
"b@	c #5A5E91",
"c@	c #8C8FB8",
"d@	c #C4C6DE",
"e@	c #E9EAF2",
"f@	c #E6E6ED",
"g@	c #C0C2D8",
"h@	c #878AB7",
"i@	c #6266A2",
"j@	c #6165A1",
"k@	c #8386B5",
"l@	c #B9BBD4",
"m@	c #DBDCE8",
"n@	c #D6D7E2",
"o@	c #B0B2CB",
"p@	c #8E91BC",
"q@	c #8A8DC4",
"r@	c #999DD7",
"s@	c #878CCA",
"t@	c #6A6FB1",
"u@	c #666CAF",
"v@	c #6064A2",
"w@	c #595D96",
"x@	c #60649A",
"y@	c #7377AE",
"z@	c #8E92C8",
"A@	c #A6AADA",
"B@	c #B3B6E0",
"C@	c #B0B2DC",
"D@	c #A2A5D4",
"E@	c #8C90C8",
"F@	c #7E82C0",
"G@	c #A3A6D5",
"H@	c #B2B5DE",
"I@	c #ADB0D9",
"J@	c #9B9ECD",
"K@	c #9497CD",
"L@	c #9FA3DE",
"M@	c #AFB3EF",
"N@	c #A8ACEB",
"O@	c #8C90D1",
"P@	c #6B70B4",
"Q@	c #6367A7",
"R@	c #6B6FAC",
"S@	c #797DB7",
"T@	c #8D91C9",
"U@	c #9B9FDA",
"V@	c #A3A7E4",
"W@	c #A1A6E5",
"X@	c #9FA4E3",
"Y@	c #9DA1E0",
"Z@	c #9EA3E1",
"`@	c #A0A5E2",
" #	c #A2A6E3",
".#	c #9DA2E1",
"+#	c #9A9FDD",
"@#	c #999DDC",
"##	c #A6AAE8",
"$#	c #B9BDFA",
"%#	c #C2C7FF",
"&#	c #AFB3F1",
"*#	c #898DCC",
"=#	c #666AAA",
"-#	c #44487E",
";#	c #5B5F94",
">#	c #797DB3",
",#	c #9599D0",
"'#	c #9DA1DC",
")#	c #9196D4",
"!#	c #8D91D1",
"~#	c #8C90D0",
"{#	c #9195D3",
"]#	c #989DD7",
"^#	c #9DA1DA",
"/#	c #8A8FCF",
"(#	c #9EA2DD",
"_#	c #ACB0E9",
":#	c #9094CC",
"<#	c #686CA2",
"[#	c #1E2041",
"}#	c #37395D",
"|#	c #57597F",
"1#	c #70739A",
"2#	c #7578A0",
"3#	c #6F729B",
"4#	c #656892",
"5#	c #626591",
"6#	c #656893",
"7#	c #6B6D96",
"8#	c #6E7097",
"9#	c #74779F",
"0#	c #6E7198",
"a#	c #55577D",
"b#	c #36385C",
"c#	c #10101D",
"d#	c #1E1F2E",
"e#	c #303141",
"f#	c #3D3E50",
"g#	c #3F4051",
"h#	c #3C3D4E",
"i#	c #393A4A",
"j#	c #3A3B4B",
"k#	c #393A4B",
"l#	c #3B3C4C",
"m#	c #3A3C4D",
"n#	c #353647",
"o#	c #282939",
"p#	c #1A1B29",
"q#	c #0F101C",
"r#	c #3D3D38",
"s#	c #3F3F3B",
"t#	c #41413E",
"u#	c #42423F",
"v#	c #42423E",
"w#	c #40413D",
"x#	c #40403C",
"y#	c #40413C",
"z#	c #3D3D39",
"A#	c #3C3C38",
"B#	c #8D8E83",
"C#	c #898A7E",
"D#	c #858579",
"E#	c #818175",
"F#	c #808074",
"G#	c #828276",
"H#	c #818276",
"I#	c #85867A",
"J#	c #8A8A7F",
"K#	c #D5D6C9",
"L#	c #D3D4C7",
"M#	c #D0D1C4",
"N#	c #CECEC1",
"O#	c #CDCEC1",
"P#	c #CECFC2",
"Q#	c #CECEC2",
". + + + @ # # # @ @ @ @ @ @ @ # @ + $ % & & * @ ",
"= - ; > , ' ) ! ! ! ! ! ! ! ! ! ~ { ] ^ / ( _ : ",
"< [ } | 1 2 3 4 5 5 6 6 6 6 5 7 4 8 2 9 0 a b < ",
"c d e f g h i j k l m j j m l l n o p q r s t u ",
"v w x y z A B C D E F F F F E C G H I J K L M N ",
"O P Q z R S T U V W X Y Z Z `  ...+.@.#.$.%.&.*.",
"=.-.;.>.,.'.).!.~.{.].^./.(._.:.<.[.}.|.1.2.3.4.",
"5.6.7.8.9.0.a.b.b.b.b.b.b.b.b.b.c.d.< |.e.f.g.h.",
"i.6.7.j.k.l.m.b.b.b.b.b.b.b.b.b.b.n.o.p.q.r.s.t.",
"u.v.w.x.y.z.A.B.C.D.E.F.G.H.b.b.b.I.J.K.L.M.N.5.",
"O.P.Q.R.S.T.U.V.W.X.Y.Y.Z.`. +b.b..+++@+#+M.$+%+",
"&+*+=+-+;+>+,+'+)+!+~+{+]+^+!.b.b./+(+_+:+<+[+}+",
"|+1+;+2+3+4+5+6+~+7+8+9+0+Y a+b.b.b+c+d+e+f+g+h+",
"i+j+k+l+m+n+o+p+q+r+s+t+u+v+w+b.b.x+y+z+A+B+C+D+",
"E+F+G+H+m+I+J+K+L+M+N+O+P+Q+R+b.b.S+T+U+A+V+W+X+",
"Y+Z+`+ @.@+@@@b.b.#@$@%@&@*@=@b.b.-@;@>@,@'@)@!@",
"~@{@]@^@;+/@(@b.b._@:@<@[@}@|@b.b.1@2@3@4@5@6@7@",
"8@9@0@a@b@c@d@e@f@g@h@i@j@k@l@m@n@o@p@q@r@N.s@t@",
"u@v@w@x@y@z@A@B@C@D@E@F@F@E@G@H@I@J@K@L@M@N@O@P@",
"Q@R@S@T@U@V@W@X@Y@Z@`@ # #`@Z@.#+#@###$#%#&#*#=#",
"-#;#>#,#t '#)#!#~#{#]#^#^#]#{#~#/#w (#_#_#:#<#x.",
"[#}#|#1#2#3#4#5#5#6#7#8#8#7#6#5#5#4#3#9#0#a#b#[#",
"c#d#e#f#g#h#i#j#j#j#k#k#k#k#j#j#l#j#h#m#n#o#p#q#",
"r#s#t#u#v#w#x#x#x#x#x#x#x#x#x#x#y#w#x#s#z#A#A#r#",
"B#C#D#E#F#E#G#H#H#H#H#H#H#H#H#H#H#H#E#E#G#I#J#B#",
"K#L#M#N#O#O#P#Q#Q#Q#Q#Q#Q#Q#Q#Q#Q#P#O#O#N#M#L#K#"};
