/* XPM */
static char * maximize_active_xpm[] = {
"24 26 282 2",
"  	c None",
". 	c #292826",
"+ 	c #595A69",
"@ 	c #585A69",
"# 	c #595A6A",
"$ 	c #5A5B6A",
"% 	c #8E91B7",
"& 	c #8F92B8",
"* 	c #8F91B7",
"= 	c #8C8FB6",
"- 	c #898CB5",
"; 	c #8689B4",
"> 	c #8589B3",
", 	c #AFB3EE",
"' 	c #B0B4EE",
") 	c #B0B4EF",
"! 	c #ABB0ED",
"~ 	c #A6ABEA",
"{ 	c #A2A7E9",
"] 	c #A1A6E8",
"^ 	c #A3A7E9",
"/ 	c #A8AEF0",
"( 	c #A9AEF1",
"_ 	c #A7ADF0",
": 	c #A6ABEF",
"< 	c #A5AAEF",
"[ 	c #9399DD",
"} 	c #9499DD",
"| 	c #9196DC",
"1 	c #9095DB",
"2 	c #9398DC",
"3 	c #9EA3E1",
"4 	c #ACB0E7",
"5 	c #B7BBEB",
"6 	c #BABDED",
"7 	c #B8BCEC",
"8 	c #B6B9EB",
"9 	c #B6BAEB",
"0 	c #B9BDEC",
"a 	c #BBBFED",
"b 	c #ACB1E7",
"c 	c #9196DB",
"d 	c #9399DC",
"e 	c #8388C8",
"f 	c #7C82C5",
"g 	c #797FC4",
"h 	c #8085C7",
"i 	c #9FA2D4",
"j 	c #C3C6E4",
"k 	c #E2E3F1",
"l 	c #E9EAF4",
"m 	c #E6E7F3",
"n 	c #DFE0F0",
"o 	c #E0E2F1",
"p 	c #E0E1F0",
"q 	c #DCDDEF",
"r 	c #DFE0EF",
"s 	c #D8D9EC",
"t 	c #BDBFE1",
"u 	c #9CA0D3",
"v 	c #8186C7",
"w 	c #7A7FC4",
"x 	c #7D82C5",
"y 	c #8287C7",
"z 	c #8288C7",
"A 	c #787DC3",
"B 	c #7379C1",
"C 	c #7E83C5",
"D 	c #ABAFD9",
"E 	c #E2E4F2",
"F 	c #FFFFFF",
"G 	c #FFFFFE",
"H 	c #D8DAED",
"I 	c #A7ABD8",
"J 	c #7E84C6",
"K 	c #747AC1",
"L 	c #797EC3",
"M 	c #8186C6",
"N 	c #8388C7",
"O 	c #787DC2",
"P 	c #7379C0",
"Q 	c #ACAFDA",
"R 	c #E4E5F3",
"S 	c #E1E3F1",
"T 	c #ABAED9",
"U 	c #7D82C2",
"V 	c #7E83C3",
"W 	c #777CBF",
"X 	c #7379BE",
"Y 	c #7B80C1",
"Z 	c #9B9FD0",
"` 	c #C3C5E2",
" .	c #E3E4F1",
"..	c #EBEBF5",
"+.	c #E7E8F3",
"@.	c #DCDDEE",
"#.	c #DBDCED",
"$.	c #DEDFEF",
"%.	c #EAEBF4",
"&.	c #A7AAD5",
"*.	c #7A7FC1",
"=.	c #6F75BC",
"-.	c #747ABE",
";.	c #7F84C3",
">.	c #7B80C0",
",.	c #7C81C1",
"'.	c #797FC0",
").	c #787EBF",
"!.	c #8489C4",
"~.	c #8F93C9",
"{.	c #989BCD",
"].	c #9B9ECF",
"^.	c #9EA1D0",
"/.	c #989CCE",
"(.	c #A0A4D2",
"_.	c #BDBFE0",
":.	c #EBECF5",
"<.	c #DDDEEF",
"[.	c #A2A5D3",
"}.	c #787DBF",
"|.	c #6E74BA",
"1.	c #7378BC",
"2.	c #7D82C1",
"3.	c #787DBD",
"4.	c #797EBE",
"5.	c #7A7FBE",
"6.	c #797EBD",
"7.	c #7378BB",
"8.	c #6B71B7",
"9.	c #656BB4",
"0.	c #656AB3",
"a.	c #686EB5",
"b.	c #686EB6",
"c.	c #7479BB",
"d.	c #9FA2D0",
"e.	c #DEE0EF",
"f.	c #A0A3D0",
"g.	c #757ABC",
"h.	c #6A70B6",
"i.	c #6F74B9",
"j.	c #767BBB",
"k.	c #777CBB",
"l.	c #787DBC",
"m.	c #7176B8",
"n.	c #6A6FB5",
"o.	c #646AB2",
"p.	c #6369B2",
"q.	c #666CB3",
"r.	c #5E64AF",
"s.	c #5A60AD",
"t.	c #666BB3",
"u.	c #9599CB",
"v.	c #E0E1EF",
"w.	c #9EA1CF",
"x.	c #7378B9",
"y.	c #686DB4",
"z.	c #6D72B6",
"A.	c #777CBC",
"B.	c #7277B7",
"C.	c #7378B7",
"D.	c #7075B6",
"E.	c #6F74B5",
"F.	c #7177B7",
"G.	c #7C81BC",
"H.	c #8C90C5",
"I.	c #989CCC",
"J.	c #989CCB",
"K.	c #8A8FC4",
"L.	c #6C71B5",
"M.	c #5A60AB",
"N.	c #6268AF",
"O.	c #9296C8",
"P.	c #DEDFEE",
"Q.	c #9B9FCC",
"R.	c #6F74B6",
"S.	c #646AB0",
"T.	c #696EB3",
"U.	c #7478B8",
"V.	c #7075B5",
"W.	c #7176B5",
"X.	c #686EB1",
"Y.	c #646AAF",
"Z.	c #6D72B3",
"`.	c #9195C6",
" +	c #C6C8E2",
".+	c #EEEFF7",
"++	c #C8CAE3",
"@+	c #878BC1",
"#+	c #5F64AC",
"$+	c #6267AD",
"%+	c #969AC9",
"&+	c #E5E6F2",
"*+	c #9DA0CC",
"=+	c #6C71B3",
"-+	c #6066AD",
";+	c #656BAF",
">+	c #7176B6",
",+	c #6C71B1",
"'+	c #6E72B2",
")+	c #6166AB",
"!+	c #5B61A8",
"~+	c #686DAF",
"{+	c #9DA0CB",
"]+	c #EBECF4",
"^+	c #ECEDF5",
"/+	c #9295C5",
"(+	c #585DA6",
"_+	c #575DA6",
":+	c #9194C4",
"<+	c #E9E9F3",
"[+	c #9C9FCA",
"}+	c #6167AB",
"|+	c #6B70B1",
"1+	c #6C71B2",
"2+	c #5F65AB",
"3+	c #5A5FA8",
"4+	c #676CAF",
"5+	c #9C9FCB",
"6+	c #EBECF6",
"7+	c #ECEDF7",
"8+	c #565CA6",
"9+	c #8C90C3",
"0+	c #989BC9",
"a+	c #5B61A9",
"b+	c #6066AB",
"c+	c #676CAD",
"d+	c #686DAE",
"e+	c #5F65A9",
"f+	c #5B61A7",
"g+	c #646AAC",
"h+	c #898DC0",
"i+	c #BFC2DD",
"j+	c #C0C2DE",
"k+	c #8286BC",
"l+	c #595FA6",
"m+	c #595EA6",
"n+	c #7E83BA",
"o+	c #B9BCDA",
"p+	c #B8BBDA",
"q+	c #868ABE",
"r+	c #5C62A8",
"s+	c #6065AA",
"t+	c #696EB2",
"u+	c #696FB2",
"v+	c #666BB0",
"w+	c #686DB1",
"x+	c #767BB9",
"y+	c #8B8FC5",
"z+	c #9B9FCE",
"A+	c #6369AF",
"B+	c #7378B8",
"C+	c #8D91C5",
"D+	c #9DA0CE",
"E+	c #656AAA",
"F+	c #666AAA",
"G+	c #6469A9",
"H+	c #6368A8",
"I+	c #6267A8",
"J+	c #6569A9",
"K+	c #474B81",
"L+	c #474B80",
"M+	c #484C81",
"N+	c #494C81",
"O+	c #43467E",
"P+	c #3B3F7A",
"Q+	c #363A77",
"R+	c #44477F",
"S+	c #494D82",
"T+	c #202243",
"U+	c #212244",
"V+	c #212344",
"W+	c #1D1F42",
"X+	c #181A3F",
"Y+	c #14173D",
"Z+	c #1E2042",
"`+	c #10111E",
" @	c #11121E",
".@	c #12131F",
"+@	c #11111E",
"@@	c #3D3D38",
"#@	c #8D8D82",
"$@	c #D5D6C9",
". . . . . . . . . . . . . . . . . . . . . . . . ",
"+ + @ @ + + # $ $ $ $ $ $ $ $ $ $ # + + @ @ + + ",
"% % & & * = - ; > ; ; ; ; ; ; > ; - = * & & % % ",
", , ' ) , ! ~ { ] { ^ { { ^ { ] { ~ ! , ) ) , , ",
"/ / ( ( ( _ : < < < < < < < < < < : _ ( ( ( / / ",
"[ } | 1 2 3 4 5 6 7 8 9 9 9 0 a 7 b 3 2 1 c d 2 ",
"e e f g h i j k l m n o p q n r s t u v w x e y ",
"v z A B C D E F F F F F F F F F G H I J K L y M ",
"M N O P C Q R F F F F F F F F F F S T C P O y M ",
"U V W X Y Z `  ...+.@.#.$.%.F F F p &.*.=.-.;.U ",
">.,.'.).>.!.~.{.].^././.(._.:.F F <.[.}.|.1.2.,.",
"3.3.4.5.6.7.8.9.0.8.a.b.c.d.e.F F p f.g.h.i.4.3.",
"j.j.k.l.j.m.n.o.p.q.r.s.t.u.#.F F v.w.x.y.z.A.j.",
"B.C.D.E.F.G.H.I.J.K.L.M.N.O.#.F F P.Q.R.S.T.U.B.",
"V.W.X.Y.Z.`. +.+.+++@+#+$+%++.F F &+*+=+-+;+>+V.",
",+'+)+!+~+{+]+F F ^+/+(+_+:+%.F F <+[+~+!+}+'+,+",
"|+1+2+3+4+5+6+F F 7+`._+8+9+k F F p 0+4+a+b+1+|+",
"c+d+e+f+g+h+i+l l j+k+l+m+n+o+e.e.p+q+g+r+s+d+c+",
"t+u+v+Y.w+x+y+z+z+H.C.A+A+B+C+D+D+H.x+w+Y.v+u+t+",
"E+E+E+F+E+G+H+I+I+H+J+F+F+J+H+I+I+H+G+E+F+E+E+E+",
"K+L+M+N+K+O+P+Q+Q+P+R+S+S+R+P+Q+Q+P+O+K+N+M+L+K+",
"T+T+U+V+T+W+X+Y+Y+X+Z+V+V+Z+X+Y+Y+X+W+T+V+U+T+T+",
"`+`+`+`+`+ @ @.@.@ @+@`+`++@ @.@.@ @ @`+`+`+`+`+",
"@@@@@@@@@@@@@@@@@@@@@@@@@@@@@@@@@@@@@@@@@@@@@@@@",
"#@#@#@#@#@#@#@#@#@#@#@#@#@#@#@#@#@#@#@#@#@#@#@#@",
"$@$@$@$@$@$@$@$@$@$@$@$@$@$@$@$@$@$@$@$@$@$@$@$@"};
