/* XPM */
static char * maximize_prelight_xpm[] = {
"24 26 281 2",
"  	c None",
". 	c #292826",
"+ 	c #595A69",
"@ 	c #585A69",
"# 	c #595A6A",
"$ 	c #5A5B6A",
"% 	c #8E91B7",
"& 	c #8F92B8",
"* 	c #8F91B7",
"= 	c #8C8FB6",
"- 	c #898CB5",
"; 	c #8689B4",
"> 	c #8589B3",
", 	c #AFB3EE",
"' 	c #B0B4EE",
") 	c #B0B4EF",
"! 	c #ABB0ED",
"~ 	c #A6ABEA",
"{ 	c #A2A7E9",
"] 	c #A1A6E8",
"^ 	c #A3A7E9",
"/ 	c #A8AEF0",
"( 	c #A9AEF1",
"_ 	c #A7ADF0",
": 	c #A6ABEF",
"< 	c #A5AAEF",
"[ 	c #9399DD",
"} 	c #9499DD",
"| 	c #9196DC",
"1 	c #9095DB",
"2 	c #9398DC",
"3 	c #9EA3E1",
"4 	c #ACB0E7",
"5 	c #B7BBEB",
"6 	c #BABDED",
"7 	c #B8BCEC",
"8 	c #B6B9EB",
"9 	c #B6BAEB",
"0 	c #B9BDEC",
"a 	c #BBBFED",
"b 	c #ACB1E7",
"c 	c #9196DB",
"d 	c #9399DC",
"e 	c #8388C8",
"f 	c #7C82C5",
"g 	c #797FC4",
"h 	c #8085C7",
"i 	c #9FA2D4",
"j 	c #C3C6E4",
"k 	c #E2E3F1",
"l 	c #E9EBE3",
"m 	c #E6E7F3",
"n 	c #DFE0F0",
"o 	c #E0E2F1",
"p 	c #E0E1F0",
"q 	c #DCDDEF",
"r 	c #DFE0EF",
"s 	c #D8D9EC",
"t 	c #BDBFE1",
"u 	c #9CA0D3",
"v 	c #8186C7",
"w 	c #7A7FC4",
"x 	c #7D82C5",
"y 	c #8287C7",
"z 	c #8288C7",
"A 	c #787DC3",
"B 	c #7379C1",
"C 	c #7E83C5",
"D 	c #ABAFD9",
"E 	c #E2E4F2",
"F 	c #4EFF00",
"G 	c #D8DAED",
"H 	c #A7ABD8",
"I 	c #7E84C6",
"J 	c #747AC1",
"K 	c #797EC3",
"L 	c #8186C6",
"M 	c #8388C7",
"N 	c #787DC2",
"O 	c #7379C0",
"P 	c #ACAFDA",
"Q 	c #E4E5F3",
"R 	c #E1E3F1",
"S 	c #ABAED9",
"T 	c #7D82C2",
"U 	c #7E83C3",
"V 	c #777CBF",
"W 	c #7379BE",
"X 	c #7B80C1",
"Y 	c #9B9FD0",
"Z 	c #C3C5E2",
"` 	c #E3E4F1",
" .	c #EEF1A3",
"..	c #E7E8F3",
"+.	c #DCDDEE",
"@.	c #DBDCED",
"#.	c #DEDFEF",
"$.	c #ECEFC3",
"%.	c #A7AAD5",
"&.	c #7A7FC1",
"*.	c #6F75BC",
"=.	c #747ABE",
"-.	c #7F84C3",
";.	c #7B80C0",
">.	c #7C81C1",
",.	c #797FC0",
"'.	c #787EBF",
").	c #8489C4",
"!.	c #8F93C9",
"~.	c #989BCD",
"{.	c #9B9ECF",
"].	c #9EA1D0",
"^.	c #989CCE",
"/.	c #A0A4D2",
"(.	c #BDBFE0",
"_.	c #EEF2A3",
":.	c #DDDEEF",
"<.	c #A2A5D3",
"[.	c #787DBF",
"}.	c #6E74BA",
"|.	c #7378BC",
"1.	c #7D82C1",
"2.	c #787DBD",
"3.	c #797EBE",
"4.	c #7A7FBE",
"5.	c #797EBD",
"6.	c #7378BB",
"7.	c #6B71B7",
"8.	c #656BB4",
"9.	c #656AB3",
"0.	c #686EB5",
"a.	c #686EB6",
"b.	c #7479BB",
"c.	c #9FA2D0",
"d.	c #DEE0EF",
"e.	c #A0A3D0",
"f.	c #757ABC",
"g.	c #6A70B6",
"h.	c #6F74B9",
"i.	c #767BBB",
"j.	c #777CBB",
"k.	c #787DBC",
"l.	c #7176B8",
"m.	c #6A6FB5",
"n.	c #646AB2",
"o.	c #6369B2",
"p.	c #666CB3",
"q.	c #5E64AF",
"r.	c #5A60AD",
"s.	c #666BB3",
"t.	c #9599CB",
"u.	c #E0E1EF",
"v.	c #9EA1CF",
"w.	c #7378B9",
"x.	c #686DB4",
"y.	c #6D72B6",
"z.	c #777CBC",
"A.	c #7277B7",
"B.	c #7378B7",
"C.	c #7075B6",
"D.	c #6F74B5",
"E.	c #7177B7",
"F.	c #7C81BC",
"G.	c #8C90C5",
"H.	c #989CCC",
"I.	c #989CCB",
"J.	c #8A8FC4",
"K.	c #6C71B5",
"L.	c #5A60AB",
"M.	c #6268AF",
"N.	c #9296C8",
"O.	c #DEDFEE",
"P.	c #9B9FCC",
"Q.	c #6F74B6",
"R.	c #646AB0",
"S.	c #696EB3",
"T.	c #7478B8",
"U.	c #7075B5",
"V.	c #7176B5",
"W.	c #686EB1",
"X.	c #646AAF",
"Y.	c #6D72B3",
"Z.	c #9195C6",
"`.	c #C6C8E2",
" +	c #F3FA41",
".+	c #C8CAE3",
"++	c #878BC1",
"@+	c #5F64AC",
"#+	c #6267AD",
"$+	c #969AC9",
"%+	c #E5E6F2",
"&+	c #9DA0CC",
"*+	c #6C71B3",
"=+	c #6066AD",
"-+	c #656BAF",
";+	c #7176B6",
">+	c #6C71B1",
",+	c #6E72B2",
"'+	c #6166AB",
")+	c #5B61A8",
"!+	c #686DAF",
"~+	c #9DA0CB",
"{+	c #EEF2A2",
"]+	c #F0F582",
"^+	c #9295C5",
"/+	c #585DA6",
"(+	c #575DA6",
"_+	c #9194C4",
":+	c #E9EAE2",
"<+	c #9C9FCA",
"[+	c #6167AB",
"}+	c #6B70B1",
"|+	c #6C71B2",
"1+	c #5F65AB",
"2+	c #5A5FA8",
"3+	c #676CAF",
"4+	c #9C9FCB",
"5+	c #EEF2A4",
"6+	c #F0F583",
"7+	c #565CA6",
"8+	c #8C90C3",
"9+	c #989BC9",
"0+	c #5B61A9",
"a+	c #6066AB",
"b+	c #676CAD",
"c+	c #686DAE",
"d+	c #5F65A9",
"e+	c #5B61A7",
"f+	c #646AAC",
"g+	c #898DC0",
"h+	c #BFC2DD",
"i+	c #C0C2DE",
"j+	c #8286BC",
"k+	c #595FA6",
"l+	c #595EA6",
"m+	c #7E83BA",
"n+	c #B9BCDA",
"o+	c #B8BBDA",
"p+	c #868ABE",
"q+	c #5C62A8",
"r+	c #6065AA",
"s+	c #696EB2",
"t+	c #696FB2",
"u+	c #666BB0",
"v+	c #686DB1",
"w+	c #767BB9",
"x+	c #8B8FC5",
"y+	c #9B9FCE",
"z+	c #6369AF",
"A+	c #7378B8",
"B+	c #8D91C5",
"C+	c #9DA0CE",
"D+	c #656AAA",
"E+	c #666AAA",
"F+	c #6469A9",
"G+	c #6368A8",
"H+	c #6267A8",
"I+	c #6569A9",
"J+	c #474B81",
"K+	c #474B80",
"L+	c #484C81",
"M+	c #494C81",
"N+	c #43467E",
"O+	c #3B3F7A",
"P+	c #363A77",
"Q+	c #44477F",
"R+	c #494D82",
"S+	c #202243",
"T+	c #212244",
"U+	c #212344",
"V+	c #1D1F42",
"W+	c #181A3F",
"X+	c #14173D",
"Y+	c #1E2042",
"Z+	c #10111E",
"`+	c #11121E",
" @	c #12131F",
".@	c #11111E",
"+@	c #3D3D38",
"@@	c #8D8D82",
"#@	c #D5D6C9",
". . . . . . . . . . . . . . . . . . . . . . . . ",
"+ + @ @ + + # $ $ $ $ $ $ $ $ $ $ # + + @ @ + + ",
"% % & & * = - ; > ; ; ; ; ; ; > ; - = * & & % % ",
", , ' ) , ! ~ { ] { ^ { { ^ { ] { ~ ! , ) ) , , ",
"/ / ( ( ( _ : < < < < < < < < < < : _ ( ( ( / / ",
"[ } | 1 2 3 4 5 6 7 8 9 9 9 0 a 7 b 3 2 1 c d 2 ",
"e e f g h i j k l m n o p q n r s t u v w x e y ",
"v z A B C D E F F F F F F F F F F G H I J K y L ",
"L M N O C P Q F F F F F F F F F F R S C O N y L ",
"T U V W X Y Z `  ...+.@.#.$.F F F p %.&.*.=.-.T ",
";.>.,.'.;.).!.~.{.].^.^./.(._.F F :.<.[.}.|.1.>.",
"2.2.3.4.5.6.7.8.9.7.0.a.b.c.d.F F p e.f.g.h.3.2.",
"i.i.j.k.i.l.m.n.o.p.q.r.s.t.@.F F u.v.w.x.y.z.i.",
"A.B.C.D.E.F.G.H.I.J.K.L.M.N.@.F F O.P.Q.R.S.T.A.",
"U.V.W.X.Y.Z.`. + +.+++@+#+$+..F F %+&+*+=+-+;+U.",
">+,+'+)+!+~+{+F F ]+^+/+(+_+$.F F :+<+!+)+[+,+>+",
"}+|+1+2+3+4+5+F F 6+Z.(+7+8+k F F p 9+3+0+a+|+}+",
"b+c+d+e+f+g+h+l l i+j+k+l+m+n+d.d.o+p+f+q+r+c+b+",
"s+t+u+X.v+w+x+y+y+G.B.z+z+A+B+C+C+G.w+v+X.u+t+s+",
"D+D+D+E+D+F+G+H+H+G+I+E+E+I+G+H+H+G+F+D+E+D+D+D+",
"J+K+L+M+J+N+O+P+P+O+Q+R+R+Q+O+P+P+O+N+J+M+L+K+J+",
"S+S+T+U+S+V+W+X+X+W+Y+U+U+Y+W+X+X+W+V+S+U+T+S+S+",
"Z+Z+Z+Z+Z+`+`+ @ @`+.@Z+Z+.@`+ @ @`+`+Z+Z+Z+Z+Z+",
"+@+@+@+@+@+@+@+@+@+@+@+@+@+@+@+@+@+@+@+@+@+@+@+@",
"@@@@@@@@@@@@@@@@@@@@@@@@@@@@@@@@@@@@@@@@@@@@@@@@",
"#@#@#@#@#@#@#@#@#@#@#@#@#@#@#@#@#@#@#@#@#@#@#@#@"};
