/* XPM */
static char * shade_active_xpm[] = {
"24 26 195 2",
"  	c None",
". 	c #292826",
"+ 	c #595A69",
"@ 	c #585A69",
"# 	c #595A6A",
"$ 	c #5A5B6A",
"% 	c #8E91B7",
"& 	c #8F92B8",
"* 	c #8F91B7",
"= 	c #8C8FB6",
"- 	c #888BB5",
"; 	c #8588B3",
"> 	c #AFB3EE",
", 	c #AEB3EE",
"' 	c #B0B4EE",
") 	c #B0B5EF",
"! 	c #B0B4EF",
"~ 	c #ACB0ED",
"{ 	c #A6AAEA",
"] 	c #A1A6E8",
"^ 	c #A8AEF0",
"/ 	c #A8ADF0",
"( 	c #A9AEF1",
"_ 	c #A5ABEF",
": 	c #A2A8EE",
"< 	c #A1A7ED",
"[ 	c #A3A8EE",
"} 	c #A5AAEF",
"| 	c #9399DD",
"1 	c #9398DC",
"2 	c #949ADD",
"3 	c #969BDE",
"4 	c #9197DC",
"5 	c #8B91D9",
"6 	c #8A8FD8",
"7 	c #AAAFE6",
"8 	c #BDC0EE",
"9 	c #8388C8",
"0 	c #8288C8",
"a 	c #8489C8",
"b 	c #8287C8",
"c 	c #8085C7",
"d 	c #767CC2",
"e 	c #7278C1",
"f 	c #7A80C4",
"g 	c #989CD1",
"h 	c #C3C5E3",
"i 	c #E2E3F1",
"j 	c #8489C9",
"k 	c #8287C7",
"l 	c #8186C7",
"m 	c #7E83C5",
"n 	c #787EC3",
"o 	c #7076BF",
"p 	c #797EC3",
"q 	c #9397CF",
"r 	c #C0C2E3",
"s 	c #EEEFF7",
"t 	c #FFFFFF",
"u 	c #7E83C6",
"v 	c #8186C6",
"w 	c #8287C6",
"x 	c #7B80C3",
"y 	c #7A7FC3",
"z 	c #8085C6",
"A 	c #9EA2D4",
"B 	c #C7C9E7",
"C 	c #F4F5FB",
"D 	c #7D82C2",
"E 	c #7E83C3",
"F 	c #7A7FC1",
"G 	c #797EC0",
"H 	c #767BBF",
"I 	c #8589C6",
"J 	c #A1A5D4",
"K 	c #D1D3EA",
"L 	c #FBFBFD",
"M 	c #7B80C0",
"N 	c #7C81C1",
"O 	c #767BBE",
"P 	c #7378BC",
"Q 	c #9094CA",
"R 	c #B7BADD",
"S 	c #E5E6F2",
"T 	c #FFFFFE",
"U 	c #F9F9FC",
"V 	c #787DBD",
"W 	c #797EBE",
"X 	c #7378BB",
"Y 	c #7075B9",
"Z 	c #767BBC",
"` 	c #9094C8",
" .	c #B1B4D8",
"..	c #CED0E6",
"+.	c #D6D7E9",
"@.	c #D2D4E8",
"#.	c #C9CBE3",
"$.	c #C6C8E2",
"%.	c #767BBB",
"&.	c #7378B9",
"*.	c #7176B8",
"=.	c #868BC3",
"-.	c #999DCC",
";.	c #A5A8D1",
">.	c #A3A6D0",
",.	c #9DA0CE",
"'.	c #989CCB",
").	c #9A9ECC",
"!.	c #7277B7",
"~.	c #7378B7",
"{.	c #6F74B6",
"].	c #6D73B5",
"^.	c #8186BF",
"/.	c #9497C8",
"(.	c #A0A4CF",
"_.	c #A1A4CF",
":.	c #9CA0CD",
"<.	c #999CCB",
"[.	c #7075B5",
"}.	c #7176B5",
"|.	c #696FB1",
"1.	c #666BB0",
"2.	c #6D72B4",
"3.	c #8D91C4",
"4.	c #B3B6D9",
"5.	c #D3D5EA",
"6.	c #DBDCEE",
"7.	c #D8D9EC",
"8.	c #D1D2E8",
"9.	c #D2D3E9",
"0.	c #6C71B1",
"a.	c #6D72B2",
"b.	c #6267AB",
"c.	c #5C62A8",
"d.	c #686DAF",
"e.	c #9B9FCA",
"f.	c #DADBEB",
"g.	c #6B70B1",
"h.	c #6C71B2",
"i.	c #5F65AB",
"j.	c #5A5FA8",
"k.	c #676CAF",
"l.	c #9EA1CC",
"m.	c #E1E2F0",
"n.	c #676CAD",
"o.	c #686DAE",
"p.	c #5F65A9",
"q.	c #5B61A7",
"r.	c #646AAC",
"s.	c #8A8EC0",
"t.	c #B8BAD9",
"u.	c #DDDEED",
"v.	c #E6E7F2",
"w.	c #E2E3F0",
"x.	c #D9DBEB",
"y.	c #DADCEC",
"z.	c #696EB2",
"A.	c #696FB2",
"B.	c #646AAF",
"C.	c #686DB1",
"D.	c #767BB9",
"E.	c #888DC3",
"F.	c #979BCB",
"G.	c #9A9ECD",
"H.	c #999CCC",
"I.	c #9599CA",
"J.	c #969ACA",
"K.	c #656AAA",
"L.	c #666AAA",
"M.	c #6469A9",
"N.	c #6368A8",
"O.	c #6267A8",
"P.	c #474B81",
"Q.	c #474B80",
"R.	c #484C81",
"S.	c #494C81",
"T.	c #42467E",
"U.	c #3C407B",
"V.	c #373B78",
"W.	c #363A77",
"X.	c #383C78",
"Y.	c #202243",
"Z.	c #212244",
"`.	c #212344",
" +	c #1D1F42",
".+	c #191B3F",
"++	c #16183E",
"@+	c #15173D",
"#+	c #10111E",
"$+	c #11121E",
"%+	c #12121F",
"&+	c #12131F",
"*+	c #3D3D38",
"=+	c #8D8D82",
"-+	c #D5D6C9",
". . . . . . . . . . . . . . . . . . . . . . . . ",
"+ + + + + + @ @ + + # $ $ # + + @ @ + + + + + + ",
"% % % % % % & & * = - ; ; - = * & & % % % % % % ",
"> > > > > , ' ) ! ~ { ] ] { ~ ! ) ' , > > > > > ",
"^ ^ ^ / ( ( / _ : < [ } } [ < : _ / ( ( / ^ ^ ^ ",
"| | | 1 2 3 4 5 6 2 7 8 8 7 2 6 5 4 3 2 1 1 1 1 ",
"9 0 9 a b c d e f g h i i h g f e d c 0 j 9 k k ",
"l l k 9 m n o p q r s t t s r q p o n u 9 k v v ",
"v v v w x y z A B C t t t t C B A z y x w v v v ",
"D E F G H I J K L t t t t t t L K J I H G F E D ",
"M N O P O Q R S T t t U U t t T S R Q O P O N N ",
"V W X Y Z `  ...+.@.#.$.$.#.@.+... .` Z Y X W V ",
"%.%.&.*.%.=.-.;.>.,.'.).).'.,.>.;.-.=.%.*.&.%.%.",
"!.~.{.].!.^./.(._.:.'.<.<.'.:._.(./.^.!.].{.~.!.",
"[.}.|.1.2.3.4.5.6.7.8.9.9.8.7.6.5.4.3.2.1.|.}.[.",
"0.a.b.c.d.e.f.t t t t t t t t t t f.e.d.c.b.a.0.",
"g.h.i.j.k.l.m.t t t t t t t t t t m.l.k.j.i.h.g.",
"n.o.p.q.r.s.t.u.v.w.x.y.y.x.w.v.u.t.s.r.q.p.o.n.",
"z.A.1.B.C.D.E.F.G.H.I.J.J.I.H.G.F.E.D.C.B.1.A.z.",
"K.K.K.L.K.M.N.O.O.O.O.O.O.O.O.O.O.N.M.K.L.K.K.K.",
"P.Q.R.S.P.T.U.V.W.V.X.X.X.X.V.W.V.U.T.P.S.R.Q.P.",
"Y.Y.Z.`.Y. +.+++@+@+++++++++@+@+++.+ +Y.`.Z.Y.Y.",
"#+#+#+#+#+$+$+%+&+&+%+%+%+%+&+&+%+$+$+#+#+#+#+#+",
"*+*+*+*+*+*+*+*+*+*+*+*+*+*+*+*+*+*+*+*+*+*+*+*+",
"=+=+=+=+=+=+=+=+=+=+=+=+=+=+=+=+=+=+=+=+=+=+=+=+",
"-+-+-+-+-+-+-+-+-+-+-+-+-+-+-+-+-+-+-+-+-+-+-+-+"};
