/* XPM */
static char * shade_inactive_xpm[] = {
"24 26 179 2",
"  	c None",
". 	c #000000",
"+ 	c #46474D",
"@ 	c #47474D",
"# 	c #46464D",
"$ 	c #9E9FB0",
"% 	c #9EA0B0",
"& 	c #9D9EAF",
"* 	c #9B9DAF",
"= 	c #9A9BAE",
"- 	c #E0E2FD",
"; 	c #E0E3FD",
"> 	c #E1E3FD",
", 	c #DFE1FD",
"' 	c #DCDEFB",
") 	c #DADCFB",
"! 	c #DCDFFC",
"~ 	c #E9ECFF",
"{ 	c #E7EAFF",
"] 	c #E6E9FF",
"^ 	c #D9DCFD",
"/ 	c #D9DDFD",
"( 	c #DADDFD",
"_ 	c #D8DBFD",
": 	c #D5D9FB",
"< 	c #D5D8FB",
"[ 	c #E3E6FF",
"} 	c #ECEEFF",
"| 	c #D4D8FB",
"1 	c #D8DBFC",
"2 	c #D9DCFC",
"3 	c #C5C8E8",
"4 	c #C5C8E7",
"5 	c #C4C7E7",
"6 	c #BFC3E5",
"7 	c #BDC1E4",
"8 	c #C1C4E6",
"9 	c #CFD1EB",
"0 	c #E2E4F3",
"a 	c #F0F1F8",
"b 	c #E2E3F2",
"c 	c #CED1EB",
"d 	c #C0C4E5",
"e 	c #BDC0E4",
"f 	c #BFC2E4",
"g 	c #C3C6E6",
"h 	c #C4C8E7",
"i 	c #C5C9E8",
"j 	c #C6C9E9",
"k 	c #C4C7E8",
"l 	c #C1C5E7",
"m 	c #BDC1E5",
"n 	c #C2C5E7",
"o 	c #CED0EB",
"p 	c #E2E4F4",
"q 	c #F7F8FC",
"r 	c #FFFFFF",
"s 	c #F7F8FB",
"t 	c #E2E3F3",
"u 	c #CDD0EB",
"v 	c #C3C7E7",
"w 	c #C6C9E8",
"x 	c #C2C6E7",
"y 	c #D3D5EE",
"z 	c #E5E7F5",
"A 	c #FAFBFD",
"B 	c #FAFAFD",
"C 	c #D2D5ED",
"D 	c #C2C5E6",
"E 	c #C4C6E6",
"F 	c #C2C4E5",
"G 	c #C1C4E5",
"H 	c #C0C3E5",
"I 	c #C7C9E8",
"J 	c #D4D6ED",
"K 	c #EAEBF7",
"L 	c #FDFDFF",
"M 	c #FDFDFE",
"N 	c #C3C5E5",
"O 	c #C0C2E4",
"P 	c #BFC1E3",
"Q 	c #CCCEE9",
"R 	c #DEDFF1",
"S 	c #F3F3FA",
"T 	c #FCFCFE",
"U 	c #C1C3E3",
"V 	c #BFC1E2",
"W 	c #BDBFE1",
"X 	c #C0C2E3",
"Y 	c #CCCEE8",
"Z 	c #DBDCEE",
"` 	c #E8E9F4",
" .	c #ECECF6",
"..	c #EAEBF5",
"+.	c #E6E7F3",
"@.	c #E5E6F3",
"#.	c #ECEDF6",
"$.	c #DBDCEF",
"%.	c #C2C3E3",
"&.	c #C0C2E2",
"*.	c #BFC0E1",
"=.	c #BEC0E1",
"-.	c #C8C9E5",
";.	c #D0D1E9",
">.	c #D5D7EB",
",.	c #D5D6EB",
"'.	c #D2D3EA",
").	c #D0D2E9",
"!.	c #BEC0E0",
"~.	c #BCBFE0",
"{.	c #BCBEDF",
"].	c #C5C7E4",
"^.	c #CDCFE8",
"/.	c #D3D5EA",
"(.	c #D4D5EB",
"_.	c #BDBFE0",
":.	c #B9BCDE",
"<.	c #B8BADD",
"[.	c #BBBEDF",
"}.	c #CACCE6",
"|.	c #DCDDEF",
"1.	c #EBEBF6",
"2.	c #EFEFF8",
"3.	c #EDEEF7",
"4.	c #EAEAF5",
"5.	c #BABDDE",
"6.	c #BBBEDE",
"7.	c #B5B8DC",
"8.	c #B2B6DA",
"9.	c #B8BBDD",
"0.	c #B9BDDE",
"a.	c #B4B7DC",
"b.	c #B1B5DA",
"c.	c #B7BBDD",
"d.	c #D1D3EA",
"e.	c #F1F2F9",
"f.	c #B6BADB",
"g.	c #B7BADB",
"h.	c #B3B6D9",
"i.	c #B1B4D8",
"j.	c #B5B8DB",
"k.	c #C7C9E3",
"l.	c #DCDEEE",
"m.	c #EEEFF6",
"n.	c #F2F3F9",
"o.	c #EDEDF6",
"p.	c #C1C4E7",
"q.	c #C0C3E7",
"r.	c #BFC2E6",
"s.	c #C8CBEA",
"t.	c #D0D3EF",
"u.	c #D7D9F2",
"v.	c #D9DBF3",
"w.	c #D8DAF3",
"x.	c #D6D8F2",
"y.	c #D6D9F2",
"z.	c #C5C8E9",
"A.	c #C3C6E8",
"B.	c #A3A5C2",
"C.	c #A3A6C2",
"D.	c #A4A6C2",
"E.	c #A1A3C1",
"F.	c #9EA0BF",
"G.	c #9B9EBE",
"H.	c #9B9DBE",
"I.	c #9C9EBE",
"J.	c #616274",
"K.	c #5F6073",
"L.	c #5D5F72",
"M.	c #5C5D72",
"N.	c #5B5D71",
"O.	c #5B5D72",
"P.	c #2D2E34",
"Q.	c #2D2D34",
"R.	c #2D2E35",
"S.	c #2E2E35",
"T.	c #3B3C38",
"U.	c #84847B",
"V.	c #CFD0C5",
". . . . . . . . . . . . . . . . . . . . . . . . ",
"+ + + + + + + + + + + @ @ + + + # + + + + + + + ",
"$ $ $ $ $ $ $ % $ & * = = * & $ % % $ $ $ $ $ $ ",
"- - - - - - ; > > , ' ) ) ! , > > > - - - - - - ",
"~ ~ ~ ~ ~ ~ ~ { ] ] ] { { ] ] ] { ~ ~ ~ ~ ~ ~ ~ ",
"^ ^ ^ ^ / ( _ : < / [ } } [ ^ | < 1 ( ^ 2 2 2 2 ",
"3 4 3 3 4 5 6 7 8 9 0 a a b c d e f g 5 4 h 5 5 ",
"i i j j k l m n o p q r r s t u 8 e 8 v w 3 3 3 ",
"3 3 3 3 x n 3 y z A r r r r B z C 5 D D 3 3 3 3 ",
"g E F G H I J K L r r r r r r M K J I H G F E g ",
"N N O P O Q R S r r r T T r r r S R Q O P O N N ",
"U U V W X Y Z `  ...+.@.@.+...#.` $.Y X W V %.U ",
"&.&.*.=.&.-.;.>.,.'.;.).).;.'.,.>.;.-.&.=.=.&.&.",
"!.!.~.{.!.].^./.(.'.;.;.;.;.'.(./.^.].!.{.~.!.!.",
"~._.:.<.[.}.|.1.2.3.4.....4.3.2.1.|.}.[.<.:._.~.",
"5.6.7.8.9.).3.r r r r r r r r r r 3.).9.8.7.6.5.",
"0.5.a.b.c.d.e.r r r r r r r r r r e.d.c.b.a.5.0.",
"f.g.h.i.j.k.l.m.n.a #.o.o.#.a n.m.l.k.j.i.h.g.f.",
"p.l q.r.p.s.t.u.v.w.x.y.y.x.w.v.u.t.s.p.r.q.l p.",
"z.z.z.z.z.k k A.A.A.A.A.A.A.A.A.A.k k z.z.z.z.z.",
"B.B.C.D.B.E.F.G.H.G.I.I.I.I.G.H.G.F.E.B.D.C.B.B.",
"J.J.J.J.J.K.L.M.N.O.M.M.M.M.O.N.M.L.K.J.J.J.J.J.",
"P.P.P.Q.P.R.S.S.S.S.S.S.S.S.S.S.S.S.R.P.Q.P.P.P.",
"T.T.T.T.T.T.T.T.T.T.T.T.T.T.T.T.T.T.T.T.T.T.T.T.",
"U.U.U.U.U.U.U.U.U.U.U.U.U.U.U.U.U.U.U.U.U.U.U.U.",
"V.V.V.V.V.V.V.V.V.V.V.V.V.V.V.V.V.V.V.V.V.V.V.V."};
