/* XPM */
static char * shade_pressed_xpm[] = {
"24 26 425 2",
"  	c None",
". 	c #292827",
"+ 	c #282827",
"@ 	c #282826",
"# 	c #282726",
"$ 	c #272726",
"% 	c #252523",
"& 	c #232321",
"* 	c #262524",
"= 	c #595B6A",
"- 	c #4E4F5E",
"; 	c #3F404F",
"> 	c #333442",
", 	c #30313E",
"' 	c #31323F",
") 	c #343442",
"! 	c #333441",
"~ 	c #343542",
"{ 	c #353542",
"] 	c #353643",
"^ 	c #31313F",
"/ 	c #2C2C3A",
"( 	c #2B2C39",
"_ 	c #373846",
": 	c #494A59",
"< 	c #595A6A",
"[ 	c #9093B9",
"} 	c #787A9F",
"| 	c #5A5C7E",
"1 	c #414364",
"2 	c #3B3D5D",
"3 	c #3D3F60",
"4 	c #444666",
"5 	c #434566",
"6 	c #434565",
"7 	c #3F4163",
"8 	c #3A3C60",
"9 	c #36385D",
"0 	c #3D3F5F",
"a 	c #3A3C5C",
"b 	c #3F4162",
"c 	c #585A7C",
"d 	c #77799E",
"e 	c #B1B5F0",
"f 	c #9296CD",
"g 	c #6C6FA3",
"h 	c #4D5081",
"i 	c #46497A",
"j 	c #494D7F",
"k 	c #525689",
"l 	c #535688",
"m 	c #525587",
"n 	c #4C5084",
"o 	c #44487E",
"p 	c #3D417A",
"q 	c #525688",
"r 	c #505486",
"s 	c #4F5385",
"t 	c #4B4F81",
"u 	c #64689A",
"v 	c #8387BC",
"w 	c #9FA3DB",
"x 	c #B2B7F2",
"y 	c #AAAFF2",
"z 	c #8E92D0",
"A 	c #6C70A8",
"B 	c #51548A",
"C 	c #4C5086",
"D 	c #51568E",
"E 	c #565B95",
"F 	c #525792",
"G 	c #4E538F",
"H 	c #4D528E",
"I 	c #4F5490",
"J 	c #4D528C",
"K 	c #4E538C",
"L 	c #545991",
"M 	c #6A6FA7",
"N 	c #868AC4",
"O 	c #A1A6E2",
"P 	c #ACB0F1",
"Q 	c #ADB3F6",
"R 	c #949ADE",
"S 	c #7E83C1",
"T 	c #6468A0",
"U 	c #515589",
"V 	c #50548A",
"W 	c #565B94",
"X 	c #565B98",
"Y 	c #4E5391",
"Z 	c #4B518F",
"` 	c #5B6099",
" .	c #797DAD",
"..	c #9295BC",
"+.	c #4C5290",
"@.	c #464C8A",
"#.	c #4A4F8B",
"$.	c #7C80B9",
"%.	c #9FA4DE",
"&.	c #B3B7F4",
"*.	c #AAAFF0",
"=.	c #999EE2",
"-.	c #8388C8",
";.	c #7176B0",
">.	c #5E6295",
",.	c #515484",
"'.	c #4F5386",
").	c #52568E",
"!.	c #4A4F8D",
"~.	c #444988",
"{.	c #4E538E",
"].	c #777BA8",
"^.	c #B1B3CD",
"/.	c #DBDCE8",
"(.	c #4F548F",
"_.	c #3C4180",
":.	c #3D427F",
"<.	c #575C93",
"[.	c #7E83B9",
"}.	c #A5A9E0",
"|.	c #B2B7F0",
"1.	c #A0A5E3",
"2.	c #878CCD",
"3.	c #8287C7",
"4.	c #7075AF",
"5.	c #5E6296",
"6.	c #535687",
"7.	c #4E5287",
"8.	c #4E528D",
"9.	c #484D8D",
"0.	c #525793",
"a.	c #7376A6",
"b.	c #AEB0CC",
"c.	c #EDEEF4",
"d.	c #FFFFFF",
"e.	c #7477A7",
"f.	c #4B4F8A",
"g.	c #3B407F",
"h.	c #535792",
"i.	c #7C80B8",
"j.	c #B0B4EE",
"k.	c #9DA2E0",
"l.	c #868BCC",
"m.	c #8287C6",
"n.	c #5D6094",
"o.	c #525586",
"p.	c #4C4F85",
"q.	c #51558F",
"r.	c #5D619B",
"s.	c #8285B0",
"t.	c #B4B6CF",
"u.	c #EFEFF4",
"v.	c #B5B7D0",
"w.	c #7B7DA9",
"x.	c #51558E",
"y.	c #565A94",
"z.	c #767AB3",
"A.	c #9EA2D8",
"B.	c #A8ADE7",
"C.	c #9A9FDC",
"D.	c #868BCB",
"E.	c #7D82C2",
"F.	c #6E72AC",
"G.	c #585B91",
"H.	c #4D5084",
"I.	c #4D5087",
"J.	c #65699D",
"K.	c #8C8FB9",
"L.	c #C5C7DC",
"M.	c #F7F7FA",
"N.	c #F8F8FB",
"O.	c #BEBFD4",
"P.	c #8083AD",
"Q.	c #6A6DA2",
"R.	c #787CB6",
"S.	c #9A9ED7",
"T.	c #A4A9E4",
"U.	c #999DDA",
"V.	c #7B80C0",
"W.	c #6D71AA",
"X.	c #54588E",
"Y.	c #494D82",
"Z.	c #51558B",
"`.	c #787BAA",
" +	c #ACAECE",
".+	c #E2E3EE",
"++	c #F8F9FB",
"@+	c #DBDCE7",
"#+	c #A0A3C1",
"$+	c #7D80AF",
"%+	c #969AD5",
"&+	c #A1A5E2",
"*+	c #979CD9",
"=+	c #8085C5",
"-+	c #787DBC",
";+	c #6A6EA8",
">+	c #54578E",
",+	c #4A4E83",
"'+	c #575B90",
")+	c #8083B0",
"!+	c #ADB0D0",
"~+	c #CED0E3",
"{+	c #D5D7E6",
"]+	c #D1D3E4",
"^+	c #C1C4DA",
"/+	c #D6D8E7",
"(+	c #C7C8DB",
"_+	c #A1A4C3",
":+	c #8488B5",
"<+	c #8286BE",
"[+	c #979BD6",
"}+	c #A0A5E1",
"|+	c #9599D6",
"1+	c #7C81C1",
"2+	c #757ABA",
"3+	c #686CA6",
"4+	c #55598E",
"5+	c #4E5285",
"6+	c #5B5F93",
"7+	c #9498C1",
"8+	c #A1A4C8",
"9+	c #9CA0C4",
"0+	c #9599C0",
"a+	c #9094BC",
"b+	c #9295BD",
"c+	c #9DA1C5",
"d+	c #999DC0",
"e+	c #888CB5",
"f+	c #7E82B2",
"g+	c #868BC1",
"h+	c #9B9FD9",
"i+	c #A2A6E2",
"j+	c #9397D4",
"k+	c #7A7FBF",
"l+	c #7176B6",
"m+	c #6569A3",
"n+	c #515487",
"o+	c #9195C0",
"p+	c #9CA0C5",
"q+	c #9A9DC2",
"r+	c #9598BF",
"s+	c #9194BD",
"t+	c #9A9EC3",
"u+	c #9598BE",
"v+	c #8589B3",
"w+	c #7D82B2",
"x+	c #888DC3",
"y+	c #9DA1DA",
"z+	c #A1A6E1",
"A+	c #9094D1",
"B+	c #767BBB",
"C+	c #6F74B3",
"D+	c #6368A1",
"E+	c #4D5085",
"F+	c #5E6195",
"G+	c #878BB6",
"H+	c #B1B4D3",
"I+	c #CFD1E3",
"J+	c #D4D6E5",
"K+	c #D2D3E3",
"L+	c #CBCDDF",
"M+	c #CCCDE0",
"N+	c #C8C9DB",
"O+	c #A5A8C6",
"P+	c #8C8FBB",
"Q+	c #999ED8",
"R+	c #9EA2DE",
"S+	c #8E93D0",
"T+	c #7378B8",
"U+	c #6B6FAF",
"V+	c #61659F",
"W+	c #4D5189",
"X+	c #494D84",
"Y+	c #606397",
"Z+	c #9D9FC4",
"`+	c #DDDEED",
" @	c #D1D3E1",
".@	c #8A8EC5",
"+@	c #999DDB",
"@@	c #8C90CD",
"#@	c #6F74B4",
"$@	c #696EAF",
"%@	c #5D629C",
"&@	c #464A82",
"*@	c #42457C",
"=@	c #5B5E92",
"-@	c #9DA0C3",
";@	c #E3E3F0",
">@	c #D6D7E2",
",@	c #A2A5C8",
"'@	c #898CC4",
")@	c #9398D5",
"!@	c #989CDB",
"~@	c #8B90CD",
"{@	c #6E73B4",
"]@	c #656AAB",
"^@	c #585C97",
"/@	c #45487F",
"(@	c #43477B",
"_@	c #5A5E91",
":@	c #8D8FB9",
"<@	c #BDBFDA",
"[@	c #DEDFEB",
"}@	c #E3E4EC",
"|@	c #E0E0EA",
"1@	c #D8D8E6",
"2@	c #D9D9E6",
"3@	c #E4E5ED",
"4@	c #D6D7E3",
"5@	c #B0B2CC",
"6@	c #9295BE",
"7@	c #898DC4",
"8@	c #989CD6",
"9@	c #999EDA",
"0@	c #878CCA",
"a@	c #6A6FB1",
"b@	c #666CAF",
"c@	c #6064A2",
"d@	c #595D96",
"e@	c #60649A",
"f@	c #7377AE",
"g@	c #8F93C8",
"h@	c #A3A7D8",
"i@	c #AFB2DD",
"j@	c #AFB2DB",
"k@	c #AEB1DB",
"l@	c #ABAED9",
"m@	c #B0B3DC",
"n@	c #A7ABD6",
"o@	c #979BCB",
"p@	c #9497CD",
"q@	c #9FA3DE",
"r@	c #AFB3EF",
"s@	c #A8ACEB",
"t@	c #8C90D1",
"u@	c #6B70B4",
"v@	c #6367A7",
"w@	c #6B6FAC",
"x@	c #797DB7",
"y@	c #8D91C9",
"z@	c #9B9FDA",
"A@	c #A3A7E4",
"B@	c #A1A6E5",
"C@	c #9FA4E3",
"D@	c #9DA1E0",
"E@	c #9DA2E1",
"F@	c #9A9FDE",
"G@	c #999EDC",
"H@	c #A6AAE8",
"I@	c #B9BDFA",
"J@	c #C2C7FF",
"K@	c #AFB3F1",
"L@	c #898DCC",
"M@	c #666AAA",
"N@	c #5B5F94",
"O@	c #797DB3",
"P@	c #9599D0",
"Q@	c #9CA1DC",
"R@	c #9297D4",
"S@	c #8E92D2",
"T@	c #8C90D0",
"U@	c #8C91D0",
"V@	c #8E92D1",
"W@	c #8D92D1",
"X@	c #8C90CF",
"Y@	c #8F93D0",
"Z@	c #9EA2DD",
"`@	c #ACB0E9",
" #	c #9094CC",
".#	c #686CA2",
"+#	c #46497F",
"@#	c #1E2041",
"##	c #37395D",
"$#	c #57597F",
"%#	c #70739A",
"&#	c #7578A0",
"*#	c #6F729B",
"=#	c #656892",
"-#	c #636691",
";#	c #626591",
">#	c #666992",
",#	c #74779F",
"'#	c #6E7198",
")#	c #55577D",
"!#	c #36385C",
"~#	c #10101D",
"{#	c #1E1F2E",
"]#	c #303141",
"^#	c #3D3E50",
"/#	c #3F4051",
"(#	c #3C3D4E",
"_#	c #393A4A",
":#	c #3A3B4B",
"<#	c #3A3C4C",
"[#	c #3A3C4D",
"}#	c #353647",
"|#	c #282939",
"1#	c #1A1B29",
"2#	c #0F101C",
"3#	c #3D3D38",
"4#	c #3F3F3B",
"5#	c #41413E",
"6#	c #42423F",
"7#	c #42423E",
"8#	c #40413D",
"9#	c #40403C",
"0#	c #40413C",
"a#	c #3D3D39",
"b#	c #3C3C38",
"c#	c #8D8E83",
"d#	c #898A7E",
"e#	c #858579",
"f#	c #818175",
"g#	c #808074",
"h#	c #828276",
"i#	c #818276",
"j#	c #85867A",
"k#	c #8A8A7F",
"l#	c #D5D6C9",
"m#	c #D3D4C7",
"n#	c #D0D1C4",
"o#	c #CECEC1",
"p#	c #CDCEC1",
"q#	c #CECFC2",
"r#	c #CECEC2",
". + + + @ # # # @ @ @ @ @ @ @ # @ + $ % & & * @ ",
"= - ; > , ' ) ! ) ~ { ] ] { ~ > ~ ] ^ / ( _ : < ",
"[ } | 1 2 3 4 5 6 7 8 9 9 8 7 6 4 4 0 a b c d [ ",
"e f g h i j k l m n o p p o n q r s t l u v w x ",
"y z A B C D E F G H I F F I H G J K L M N O P Q ",
"R S T U V W X Y Z `  ..... .` +.@.#.` $.%.&.*.=.",
"-.;.>.,.'.).!.~.{.].^././.^.].(._.:.<.[.}.|.1.2.",
"3.4.5.6.7.8.9.0.a.b.c.d.d.c.b.e.f.g.h.i.}.j.k.l.",
"m.4.n.o.p.q.r.s.t.u.d.d.d.d.u.v.w.x.y.z.A.B.C.D.",
"E.F.G.H.I.J.K.L.M.d.d.d.d.d.d.N.O.P.Q.R.S.T.U.3.",
"V.W.X.Y.Z.`. +.+d.d.d.++++d.d.d.@+#+$+$.%+&+*+=+",
"-+;+>+,+'+)+!+~+{+]+L.^+^+L.]+/+(+_+:+<+[+}+|+1+",
"2+3+4+5+6+ .7+8+9+0+a+b+b+a+0+c+d+e+f+g+h+i+j+k+",
"l+m+4+n+>. .o+p+q+r+a+s+s+a+r+t+u+v+w+x+y+z+A+B+",
"C+D+Z.E+F+G+H+I+J+K+L+M+M+L+K+{+N+O+P+x+Q+R+S+T+",
"U+V+W+X+Y+Z+`+d.d.d.d.d.d.d.d.d.d. @8+.@|++@@@#@",
"$@%@&@*@=@-@;@d.d.d.d.d.d.d.d.d.d.>@,@'@)@!@~@{@",
"]@^@/@(@_@:@<@[@}@|@1@2@2@1@|@3@4@5@6@7@8@9@0@a@",
"b@c@d@e@f@g@h@i@j@k@l@l@l@l@k@m@n@o@p@q@r@s@t@u@",
"v@w@x@y@z@A@B@C@D@k.E@E@E@E@k.E@F@G@H@I@J@K@L@M@",
"o N@O@P@w Q@R@S@T@U@V@W@W@V@U@U@X@Y@Z@`@`@ #.#+#",
"@###$#%#&#*#=#-#;#-#-#-#-#-#-#;#-#>#*#,#'#)#!#@#",
"~#{#]#^#/#(#_#:#:#:#:#:#:#:#:#:#<#:#(#[#}#|#1#2#",
"3#4#5#6#7#8#9#9#9#9#9#9#9#9#9#9#0#8#9#4#a#b#b#3#",
"c#d#e#f#g#f#h#i#i#i#i#i#i#i#i#i#i#i#f#f#h#j#k#c#",
"l#m#n#o#p#p#q#r#r#r#r#r#r#r#r#r#r#q#p#p#o#n#m#l#"};
