/* XPM */
static char * close_active_xpm[] = {
"34 23 159 2",
"  	c #0C1124",
". 	c #0E1025",
"+ 	c #0E1124",
"@ 	c #0E1122",
"# 	c #0C1125",
"$ 	c #0B1023",
"% 	c #0D1225",
"& 	c #71799D",
"* 	c #72779F",
"= 	c #73789E",
"- 	c #70789D",
"; 	c #72789C",
"> 	c #72779D",
", 	c #404354",
"' 	c #3F4458",
") 	c #404356",
"! 	c #404559",
"~ 	c #414457",
"{ 	c #3F4457",
"] 	c #3E4454",
"^ 	c #3F4555",
"/ 	c #3E4356",
"( 	c #3E4558",
"_ 	c #0D0B10",
": 	c #000100",
"< 	c #000000",
"[ 	c #000002",
"} 	c #010101",
"| 	c #080808",
"1 	c #18191D",
"2 	c #343642",
"3 	c #404352",
"4 	c #43455A",
"5 	c #000202",
"6 	c #797EA4",
"7 	c #606583",
"8 	c #606582",
"9 	c #616580",
"0 	c #616683",
"a 	c #5F6481",
"b 	c #616684",
"c 	c #5E6380",
"d 	c #525872",
"e 	c #0F0E13",
"f 	c #323641",
"g 	c #3C4858",
"h 	c #404558",
"i 	c #414358",
"j 	c #414455",
"k 	c #424459",
"l 	c #404257",
"m 	c #46485D",
"n 	c #535971",
"o 	c #545976",
"p 	c #19161D",
"q 	c #454859",
"r 	c #606783",
"s 	c #3E4357",
"t 	c #44465B",
"u 	c #5F6982",
"v 	c #040203",
"w 	c #4B4D62",
"x 	c #010000",
"y 	c #424556",
"z 	c #414453",
"A 	c #F2F6FF",
"B 	c #41435A",
"C 	c #F1F5FF",
"D 	c #F2F7FD",
"E 	c #5F6585",
"F 	c #4E5366",
"G 	c #505666",
"H 	c #F2F7FB",
"I 	c #424558",
"J 	c #505568",
"K 	c #606680",
"L 	c #F3F7FF",
"M 	c #626784",
"N 	c #0F142A",
"O 	c #0A0D1C",
"P 	c #0B0E1D",
"Q 	c #0A0E1A",
"R 	c #0B0F1B",
"S 	c #0B0E1F",
"T 	c #BDC0CF",
"U 	c #BCBFCE",
"V 	c #BCC0CC",
"W 	c #0C0F1E",
"X 	c #0E142C",
"Y 	c #2D3245",
"Z 	c #10152B",
"` 	c #0C0E1D",
" .	c #0B0D1C",
"..	c #0C0E1B",
"+.	c #0B0D1A",
"@.	c #0D0F1C",
"#.	c #BEC2CE",
"$.	c #BCBFD0",
"%.	c #BCC0CB",
"&.	c #101529",
"*.	c #11162A",
"=.	c #0C101C",
"-.	c #BDC1CD",
";.	c #2D3246",
">.	c #010103",
",.	c #0F1428",
"'.	c #0D0F1E",
").	c #BEC1D0",
"!.	c #10172A",
"~.	c #020106",
"{.	c #2E3347",
"].	c #111629",
"^.	c #0A0E19",
"/.	c #0F1223",
"(.	c #0C1326",
"_.	c #100F15",
":.	c #2C3145",
"<.	c #000300",
"[.	c #161938",
"}.	c #0F1024",
"|.	c #000407",
"1.	c #2E3339",
"2.	c #252942",
"3.	c #050507",
"4.	c #000004",
"5.	c #030303",
"6.	c #0E121B",
"7.	c #373B47",
"8.	c #35374E",
"9.	c #1E223D",
"0.	c #595C6F",
"a.	c #565C6A",
"b.	c #575D6D",
"c.	c #585B6E",
"d.	c #585B6C",
"e.	c #595C6D",
"f.	c #575A6B",
"g.	c #545768",
"h.	c #484B5E",
"i.	c #31364C",
"j.	c #20243D",
"k.	c #1A1F35",
"l.	c #2D3248",
"m.	c #2E3349",
"n.	c #2B3046",
"o.	c #1D213C",
"p.	c #191E34",
"q.	c #191D38",
"r.	c #1A1E37",
"s.	c #191D36",
"t.	c #1A1E39",
"u.	c #181E34",
"v.	c #181E36",
"w.	c #191F37",
"x.	c #1A2038",
"y.	c #181E38",
"z.	c #191F39",
"A.	c #171D35",
"B.	c #181C37",
"  . +     @ # #             #   $ %   %                     +   %   ",
"& * = - - ; > = > = > * * = > > > > = > > = > > > > > > > > = - > - ",
", ' ) ! ' ~ { { ] ^ ^ { { / ' / { { ' ' { / { { { { { { { { { ( ' ' ",
"_ : < < [ [ [ [ < < < < } < < < } < } < < < < } < < } < } | 1 2 3 4 ",
"5 6 7 8 9 9 0 a 0 8 8 0 8 0 8 b 7 b 8 0 8 b 8 8 0 0 8 0 0 c d e f g ",
": a ' { { ' { h / { ' ' ' h i ~ ~ ) ~ ~ ~ j k i l i i i k m n o p q ",
"< r s h / ' { { ' ! ' ' { ^ ' ' ' { { { { { { { { { { { { { t u v w ",
"x 8 ' ) y i ) ) ~ ) ~ z A A A j B ~ C D A ~ { { { { { { { { ^ E x F ",
": 8 ~ ' ' ~ i ~ ~ ~ ~ ~ j A A A z A A A z i { { { { { { { { { b < G ",
": 0 ~ ~ h ~ { { h { ' ' h ] A A H A A ~ ~ B ~ ~ ~ ~ ~ ~ ~ ~ I 7 < J ",
"[ K ~ ) ~ ~ { { { { s ' / { z A A L , ~ i , ~ ~ ~ ~ ~ ~ ~ ~ , M < J ",
"< N O P P P Q R Q R O P P R S T U V W O O R P P P P P P P P P X < Y ",
"} Z P P O `  .` ..+.+...@.+.V U #.$.%.P R O P P P P P P P P Q &.< Y ",
"< *.+.R =.+.R Q Q Q R R Q -.-.V P V T -.O R R R R R R R R R Q *.[ ;.",
">.,.'.P O ` P O P P O P ).U U W P W U -.-.Q P P P P P P P P W !.~.{.",
"[ ].+.R R  .^.R R R R R Q P R O P O P O P S R R R R R R R R /.(._.:.",
"<.[.N &.&.&.&.&.&.&.&.&.&.&.,.&.&.&.&.&.*.,.&.&.&.&.&.&.&.&.}.|.1.2.",
"3.< < < < 4.< < < < < < < < < } < < < } < < < < < < < < } 5.6.7.8.9.",
"0.0.a.b.0.0.0.0.0.0.0.0.0.0.0.0.c.0.0.0.0.0.d.e.e.e.e.e.f.g.h.i.j.k.",
";.l.m.l.l.{.;.;.;.;.;.;.;.;.;.;.{.:.;.;.;.;.m.l.m.l.l.m.m.n.2.o.p.k.",
"q.q.q.r.s.q.s.s.s.s.s.s.s.s.s.s.s.s.r.s.r.s.t.q.q.q.q.q.t.t.u.v.v.w.",
"x.y.u.v.v.w.y.y.y.y.y.y.y.y.y.z.y.y.y.z.y.y.v.w.w.A.w.v.v.v.t.s.r.s.",
"B.r.q.z.t.s.s.s.s.s.s.s.s.s.r.s.s.s.r.s.s.s.t.q.t.q.t.q.q.q.y.y.s.r."};
