/* XPM */
static char * close_prelight_xpm[] = {
"34 23 149 2",
"  	c None",
". 	c #0C1124",
"+ 	c #0E1025",
"@ 	c #0E1124",
"# 	c #0E1122",
"$ 	c #0C1125",
"% 	c #0B1023",
"& 	c #0D1225",
"* 	c #71799D",
"= 	c #72779F",
"- 	c #73789E",
"; 	c #70789D",
"> 	c #72789C",
", 	c #72779D",
"' 	c #404354",
") 	c #3F4458",
"! 	c #404356",
"~ 	c #404559",
"{ 	c #414457",
"] 	c #3F4457",
"^ 	c #3E4454",
"/ 	c #3F4555",
"( 	c #3E4356",
"_ 	c #3E4558",
": 	c #0D0B10",
"< 	c #000100",
"[ 	c #000000",
"} 	c #000002",
"| 	c #010101",
"1 	c #080808",
"2 	c #18191D",
"3 	c #343642",
"4 	c #404352",
"5 	c #43455A",
"6 	c #000202",
"7 	c #797EA4",
"8 	c #606583",
"9 	c #606582",
"0 	c #616580",
"a 	c #616683",
"b 	c #5F6481",
"c 	c #616684",
"d 	c #5E6380",
"e 	c #525872",
"f 	c #0F0E13",
"g 	c #323641",
"h 	c #3C4858",
"i 	c #404558",
"j 	c #414358",
"k 	c #414455",
"l 	c #424459",
"m 	c #404257",
"n 	c #46485D",
"o 	c #535971",
"p 	c #545976",
"q 	c #19161D",
"r 	c #454859",
"s 	c #606783",
"t 	c #3E4357",
"u 	c #44465B",
"v 	c #5F6982",
"w 	c #040203",
"x 	c #4B4D62",
"y 	c #010000",
"z 	c #424556",
"A 	c #414453",
"B 	c #FF0000",
"C 	c #41435A",
"D 	c #5F6585",
"E 	c #4E5366",
"F 	c #505666",
"G 	c #424558",
"H 	c #505568",
"I 	c #606680",
"J 	c #626784",
"K 	c #0F142A",
"L 	c #0A0D1C",
"M 	c #0B0E1D",
"N 	c #0A0E1A",
"O 	c #0B0F1B",
"P 	c #0B0E1F",
"Q 	c #8A0505",
"R 	c #0C0F1E",
"S 	c #0E142C",
"T 	c #2D3245",
"U 	c #10152B",
"V 	c #0C0E1D",
"W 	c #0B0D1C",
"X 	c #0C0E1B",
"Y 	c #0B0D1A",
"Z 	c #0D0F1C",
"` 	c #101529",
" .	c #11162A",
"..	c #0C101C",
"+.	c #2D3246",
"@.	c #010103",
"#.	c #0F1428",
"$.	c #0D0F1E",
"%.	c #10172A",
"&.	c #020106",
"*.	c #2E3347",
"=.	c #111629",
"-.	c #0A0E19",
";.	c #0F1223",
">.	c #0C1326",
",.	c #100F15",
"'.	c #2C3145",
").	c #000300",
"!.	c #161938",
"~.	c #0F1024",
"{.	c #000407",
"].	c #2E3339",
"^.	c #252942",
"/.	c #050507",
"(.	c #000004",
"_.	c #030303",
":.	c #0E121B",
"<.	c #373B47",
"[.	c #35374E",
"}.	c #1E223D",
"|.	c #595C6F",
"1.	c #565C6A",
"2.	c #575D6D",
"3.	c #585B6E",
"4.	c #585B6C",
"5.	c #595C6D",
"6.	c #575A6B",
"7.	c #545768",
"8.	c #484B5E",
"9.	c #31364C",
"0.	c #20243D",
"a.	c #1A1F35",
"b.	c #2D3248",
"c.	c #2E3349",
"d.	c #2B3046",
"e.	c #1D213C",
"f.	c #191E34",
"g.	c #191D38",
"h.	c #1A1E37",
"i.	c #191D36",
"j.	c #1A1E39",
"k.	c #181E34",
"l.	c #181E36",
"m.	c #191F37",
"n.	c #1A2038",
"o.	c #181E38",
"p.	c #191F39",
"q.	c #171D35",
"r.	c #181C37",
". + @ . . # $ $ . . . . . . $ . % & . & . . . . . . . . . . @ . & . ",
"* = - ; ; > , - , - , = = - , , , , - , , - , , , , , , , , - ; , ; ",
"' ) ! ~ ) { ] ] ^ / / ] ] ( ) ( ] ] ) ) ] ( ] ] ] ] ] ] ] ] ] _ ) ) ",
": < [ [ } } } } [ [ [ [ | [ [ [ | [ | [ [ [ [ | [ [ | [ | 1 2 3 4 5 ",
"6 7 8 9 0 0 a b a 9 9 a 9 a 9 c 8 c 9 a 9 c 9 9 a a 9 a a d e f g h ",
"< b ) ] ] ) ] i ( ] ) ) ) i j { { ! { { { k l j m j j j l n o p q r ",
"[ s t i ( ) ] ] ) ~ ) ) ] / ) ) ) ] ] ] ] ] ] ] ] ] ] ] ] ] u v w x ",
"y 9 ) ! z j ! ! { ! { A B B B k C { B B B { ] ] ] ] ] ] ] ] / D y E ",
"< 9 { ) ) { j { { { { { k B B B A B B B A j ] ] ] ] ] ] ] ] ] c [ F ",
"< a { { i { ] ] i ] ) ) i ^ B B B B B { { C { { { { { { { { G 8 [ H ",
"} I { ! { { ] ] ] ] t ) ( ] A B B B ' { j ' { { { { { { { { ' J [ H ",
"[ K L M M M N O N O L M M O P Q Q Q R L L O M M M M M M M M M S [ T ",
"| U M M L V W V X Y Y X Z Y Q Q Q Q Q M O L M M M M M M M M N ` [ T ",
"[  .Y O ..Y O N N N O O N Q Q Q M Q Q Q L O O O O O O O O O N  .} +.",
"@.#.$.M L V M L M M L M Q Q Q R M R Q Q Q N M M M M M M M M R %.&.*.",
"} =.Y O O W -.O O O O O N M O L M L M L M P O O O O O O O O ;.>.,.'.",
").!.K ` ` ` ` ` ` ` ` ` ` ` #.` ` ` ` `  .#.` ` ` ` ` ` ` ` ~.{.].^.",
"/.[ [ [ [ (.[ [ [ [ [ [ [ [ [ | [ [ [ | [ [ [ [ [ [ [ [ | _.:.<.[.}.",
"|.|.1.2.|.|.|.|.|.|.|.|.|.|.|.|.3.|.|.|.|.|.4.5.5.5.5.5.6.7.8.9.0.a.",
"+.b.c.b.b.*.+.+.+.+.+.+.+.+.+.+.*.'.+.+.+.+.c.b.c.b.b.c.c.d.^.e.f.a.",
"g.g.g.h.i.g.i.i.i.i.i.i.i.i.i.i.i.i.h.i.h.i.j.g.g.g.g.g.j.j.k.l.l.m.",
"n.o.k.l.l.m.o.o.o.o.o.o.o.o.o.p.o.o.o.p.o.o.l.m.m.q.m.l.l.l.j.i.h.i.",
"r.h.g.p.j.i.i.i.i.i.i.i.i.i.h.i.i.i.h.i.i.i.j.g.j.g.j.g.g.g.o.o.i.h."};
