/* XPM */
static char * hide_prelight_xpm[] = {
"32 23 123 2",
"  	c None",
". 	c #0C1127",
"+ 	c #0E1124",
"@ 	c #0C1124",
"# 	c #0D1023",
"$ 	c #0C1125",
"% 	c #0F1022",
"& 	c #6F799D",
"* 	c #71799E",
"= 	c #6F779E",
"- 	c #73799D",
"; 	c #72789C",
"> 	c #72779D",
", 	c #71779B",
"' 	c #414457",
") 	c #414358",
"! 	c #424358",
"~ 	c #424554",
"{ 	c #3F4457",
"] 	c #3F4458",
"^ 	c #3F4555",
"/ 	c #343645",
"( 	c #141821",
"_ 	c #06070B",
": 	c #000000",
"< 	c #000002",
"[ 	c #000100",
"} 	c #42445B",
"| 	c #333743",
"1 	c #0B1111",
"2 	c #525870",
"3 	c #5F637E",
"4 	c #616683",
"5 	c #606582",
"6 	c #606680",
"7 	c #616483",
"8 	c #797EA4",
"9 	c #43485B",
"0 	c #161B1E",
"a 	c #535971",
"b 	c #535973",
"c 	c #44495D",
"d 	c #404356",
"e 	c #5E6784",
"f 	c #4B4C61",
"g 	c #040402",
"h 	c #626785",
"i 	c #46485D",
"j 	c #3E4356",
"k 	c #5F6683",
"l 	c #4E5366",
"m 	c #616882",
"n 	c #424556",
"o 	c #5F6682",
"p 	c #505666",
"q 	c #616684",
"r 	c #424558",
"s 	c #414455",
"t 	c #4F5565",
"u 	c #616580",
"v 	c #404354",
"w 	c #414453",
"x 	c #6792FF",
"y 	c #2C3242",
"z 	c #10152B",
"A 	c #0B0E1F",
"B 	c #0B0E1D",
"C 	c #0A0D1C",
"D 	c #0B0F1B",
"E 	c #003CD4",
"F 	c #0E142A",
"G 	c #2E3346",
"H 	c #0F1428",
"I 	c #0C0E1D",
"J 	c #0C0E1B",
"K 	c #0A0E1A",
"L 	c #0C101C",
"M 	c #2D3246",
"N 	c #101528",
"O 	c #0B0D1A",
"P 	c #020106",
"Q 	c #111629",
"R 	c #0C0F1E",
"S 	c #2C3145",
"T 	c #100F15",
"U 	c #0D1225",
"V 	c #0F1223",
"W 	c #101529",
"X 	c #27293E",
"Y 	c #2F333E",
"Z 	c #000308",
"` 	c #101221",
" .	c #131429",
"..	c #101431",
"+.	c #151934",
"@.	c #1E2339",
"#.	c #34364D",
"$.	c #383B4A",
"%.	c #0D111A",
"&.	c #000604",
"*.	c #1B2036",
"=.	c #20253B",
"-.	c #31364A",
";.	c #464B5F",
">.	c #52576A",
",.	c #595C6F",
"'.	c #585B6A",
").	c #5A5D6E",
"!.	c #181E36",
"~.	c #1A1E37",
"{.	c #262B41",
"].	c #2A2F45",
"^.	c #2D3248",
"/.	c #2C3147",
"(.	c #2E3349",
"_.	c #191F39",
":.	c #191F37",
"<.	c #191D36",
"[.	c #191D38",
"}.	c #181C35",
"|.	c #181E38",
"1.	c #181E34",
"2.	c #1A1E39",
". + @ # $ @ @ @ @ @ @ @ @ @ @ @ @ @ @ @ @ @ @ @ @ @ @ @ @ $ % . ",
"& * = - ; > > > > > > > > > > > > > > > > > > > > > > > > * , > ",
"' ) ! ~ ' { { { { { { { { { { { { { { { { { { { { { { { { ] ) ' ",
"{ ^ / ( _ : : : : : : : : : : : : : : : : : : : : : : : : < [ [ ",
"} | 1 2 3 4 4 4 4 4 4 4 4 5 5 5 5 5 5 5 5 5 5 5 5 5 5 5 5 6 7 8 ",
"9 0 a b c ) ) ) ) ) ) ) ) ) ) ) ) ) ) ) ) ) ) ) ) ) ) ) ) ] d e ",
"f g h i j { { { { { { { { { { { { { { { { { { { { { { { { { { k ",
"l < m ' ] { { { { { { { { { { { { { { { { { { { { { { { { n ] o ",
"p [ q { ] { { { { ] { { j { { { { { { { { j { { ] { { { { { ] 4 ",
"p [ 4 { { ' r ' ' ' ' ' s ' ' ' ' ' ' ' ' s ' ' ' ' ' r ' ' ' 4 ",
"t : u d ' ' d ' v s s w x x x x x x x x x x w s s v ' d ' ' ' 5 ",
"y : z A B B B C B C B D E E E E E E E E E E D B C B C B B B C F ",
"G < H I J D K D K L D K E E E E E E E E E E K D L K D K D B B z ",
"M < N I O D K D D C B B C D D D D D D D D C B B C D D K D K D H ",
"M P Q R C B C K B B B C B B B B B B B B B B C B B B K C B C D z ",
"S T U V R C C D D L K D D D D D D D D D D D D K L D D C C D K W ",
"X Y Z `  .W W W W W W W W W W W W W W W W W W W W W W W W N ..+.",
"@.#.$.%.&.: : : : : : : : : : : : : : : : : : : : : : : : : < : ",
"*.=.-.;.>.,.,.,.,.,.,.,.,.,.,.,.,.,.,.,.,.,.,.,.,.,.,.,.,.,.'.).",
"!.~.@.{.].M M M M M M M M M M M M M M M M M M M M M M M M ^./.(.",
"!.!._.!.:.<.<.<.<.<.<.<.<.<.<.<.<.<.<.<.<.<.<.<.<.<.<.<.<.[.[.<.",
"~.}.~.<.[.|.|.|.|.|.|.|.|.|.|.|.|.|.|.|.|.|.|.|.|.|.|.|.|.!.1.:.",
"!.~.|.:.!.~.~.~.~.~.~.~.~.<.<.<.<.<.<.<.<.<.<.<.<.<.<.<.<.<.2.~."};
