/* XPM */
static char * hide_pressed_xpm[] = {
"32 23 109 2",
"  	c None",
". 	c #0C1127",
"+ 	c #0E1124",
"@ 	c #0C1124",
"# 	c #0D1023",
"$ 	c #0C1125",
"% 	c #0F1022",
"& 	c #6F799D",
"* 	c #71799E",
"= 	c #6F779E",
"- 	c #73799D",
"; 	c #72789C",
"> 	c #72779D",
", 	c #71779B",
"' 	c #414457",
") 	c #414358",
"! 	c #424358",
"~ 	c #424554",
"{ 	c #3F4457",
"] 	c #3F4458",
"^ 	c #3F4555",
"/ 	c #343645",
"( 	c #141821",
"_ 	c #06070B",
": 	c #000000",
"< 	c #000002",
"[ 	c #000100",
"} 	c #42445B",
"| 	c #333743",
"1 	c #0B1111",
"2 	c #181C2C",
"3 	c #1B1E2F",
"4 	c #1B1E30",
"5 	c #202337",
"6 	c #43485B",
"7 	c #161B1E",
"8 	c #181C2D",
"9 	c #0A0D1C",
"0 	c #1A1F30",
"a 	c #4B4C61",
"b 	c #040402",
"c 	c #1B1F31",
"d 	c #4E5366",
"e 	c #1B1F30",
"f 	c #505666",
"g 	c #4F5565",
"h 	c #F2F5FF",
"i 	c #F2F6FF",
"j 	c #2C3242",
"k 	c #10152B",
"l 	c #0B0E1F",
"m 	c #0B0E1D",
"n 	c #0B0F1B",
"o 	c #BCC0CC",
"p 	c #BDC1CD",
"q 	c #0E142A",
"r 	c #2E3346",
"s 	c #0F1428",
"t 	c #0C0E1D",
"u 	c #0C0E1B",
"v 	c #0A0E1A",
"w 	c #0C101C",
"x 	c #BDC0CF",
"y 	c #2D3246",
"z 	c #101528",
"A 	c #0B0D1A",
"B 	c #020106",
"C 	c #111629",
"D 	c #0C0F1E",
"E 	c #2C3145",
"F 	c #100F15",
"G 	c #0D1225",
"H 	c #0F1223",
"I 	c #101529",
"J 	c #27293E",
"K 	c #2F333E",
"L 	c #000308",
"M 	c #101221",
"N 	c #131429",
"O 	c #101431",
"P 	c #151934",
"Q 	c #1E2339",
"R 	c #34364D",
"S 	c #383B4A",
"T 	c #0D111A",
"U 	c #000604",
"V 	c #1B2036",
"W 	c #20253B",
"X 	c #31364A",
"Y 	c #464B5F",
"Z 	c #52576A",
"` 	c #595C6F",
" .	c #585B6A",
"..	c #5A5D6E",
"+.	c #181E36",
"@.	c #1A1E37",
"#.	c #262B41",
"$.	c #2A2F45",
"%.	c #2D3248",
"&.	c #2C3147",
"*.	c #2E3349",
"=.	c #191F39",
"-.	c #191F37",
";.	c #191D36",
">.	c #191D38",
",.	c #181C35",
"'.	c #181E38",
").	c #181E34",
"!.	c #1A1E39",
". + @ # $ @ @ @ @ @ @ @ @ @ @ @ @ @ @ @ @ @ @ @ @ @ @ @ @ $ % . ",
"& * = - ; > > > > > > > > > > > > > > > > > > > > > > > > * , > ",
"' ) ! ~ ' { { { { { { { { { { { { { { { { { { { { { { { { ] ) ' ",
"{ ^ / ( _ : : : : : : : : : : : : : : : : : : : : : : : : < [ [ ",
"} | 1 2 3 4 4 4 4 4 4 4 4 4 4 4 4 4 4 4 4 4 4 4 4 4 4 4 4 4 4 5 ",
"6 7 8 9 9 9 9 9 9 9 9 9 9 9 9 9 9 9 9 9 9 9 9 9 9 9 9 9 9 9 9 0 ",
"a b c 9 9 9 9 9 9 9 9 9 9 9 9 9 9 9 9 9 9 9 9 9 9 9 9 9 9 9 9 4 ",
"d < e 9 9 9 9 9 9 9 9 9 9 9 9 9 9 9 9 9 9 9 9 9 9 9 9 9 9 9 9 4 ",
"f [ 4 9 9 9 9 9 9 9 9 9 9 9 9 9 9 9 9 9 9 9 9 9 9 9 9 9 9 9 9 4 ",
"f [ 4 9 9 9 9 9 9 9 9 9 9 9 9 9 9 9 9 9 9 9 9 9 9 9 9 9 9 9 9 4 ",
"g : 4 9 9 9 9 9 9 9 9 9 h i i i i i i i i h 9 9 9 9 9 9 9 9 9 4 ",
"j : k l m m m 9 m 9 m n o p p p p p p p p o n m 9 m 9 m m m 9 q ",
"r < s t u n v n v w n v p x x x x x x x x p v n w v n v n m m k ",
"y < z t A n v n n 9 m m 9 n n n n n n n n 9 m m 9 n n v n v n s ",
"y B C D 9 m 9 v m m m 9 m m m m m m m m m m 9 m m m v 9 m 9 n k ",
"E F G H D 9 9 n n w v n n n n n n n n n n n n v w n n 9 9 n v I ",
"J K L M N I I I I I I I I I I I I I I I I I I I I I I I I z O P ",
"Q R S T U : : : : : : : : : : : : : : : : : : : : : : : : : < : ",
"V W X Y Z ` ` ` ` ` ` ` ` ` ` ` ` ` ` ` ` ` ` ` ` ` ` ` ` `  ...",
"+.@.Q #.$.y y y y y y y y y y y y y y y y y y y y y y y y %.&.*.",
"+.+.=.+.-.;.;.;.;.;.;.;.;.;.;.;.;.;.;.;.;.;.;.;.;.;.;.;.;.>.>.;.",
"@.,.@.;.>.'.'.'.'.'.'.'.'.'.'.'.'.'.'.'.'.'.'.'.'.'.'.'.'.+.).-.",
"+.@.'.-.+.@.@.@.@.@.@.@.@.;.;.;.;.;.;.;.;.;.;.;.;.;.;.;.;.;.!.@."};
