/* XPM */
static char * maximize_active_xpm[] = {
"31 23 113 2",
"  	c #0E1122",
". 	c #0A1123",
"+ 	c #0F1024",
"@ 	c #0B1023",
"# 	c #0E1124",
"$ 	c #0C1125",
"% 	c #0C1124",
"& 	c #0E1025",
"* 	c #71799D",
"= 	c #71799E",
"- 	c #72779D",
"; 	c #73789E",
"> 	c #72779F",
", 	c #7179A0",
"' 	c #404356",
") 	c #414358",
"! 	c #3F4458",
"~ 	c #414457",
"{ 	c #3F4457",
"] 	c #3E4454",
"^ 	c #3F4555",
"/ 	c #3E4356",
"( 	c #404559",
"_ 	c #0E0C11",
": 	c #000002",
"< 	c #000103",
"[ 	c #000000",
"} 	c #010101",
"| 	c #000100",
"1 	c #797FA1",
"2 	c #616580",
"3 	c #616683",
"4 	c #606583",
"5 	c #5F6481",
"6 	c #606582",
"7 	c #797DA0",
"8 	c #606783",
"9 	c #404558",
"0 	c #616781",
"a 	c #010000",
"b 	c #616483",
"c 	c #3E4557",
"d 	c #414453",
"e 	c #F2F6FF",
"f 	c #626683",
"g 	c #5F6683",
"h 	c #424558",
"i 	c #3E4357",
"j 	c #F3F5FF",
"k 	c #F3F6FF",
"l 	c #616684",
"m 	c #404354",
"n 	c #414455",
"o 	c #F1F5FF",
"p 	c #0F152D",
"q 	c #0B0E1D",
"r 	c #0A0E1A",
"s 	c #0B0F1B",
"t 	c #0C0F1E",
"u 	c #BCC0CC",
"v 	c #BEC0CD",
"w 	c #0A0D1C",
"x 	c #BDC0CF",
"y 	c #BDC1CD",
"z 	c #11162C",
"A 	c #0F152B",
"B 	c #0C0E1D",
"C 	c #0D0F1E",
"D 	c #0C101C",
"E 	c #BEC0CF",
"F 	c #0C0E1B",
"G 	c #0B0D1A",
"H 	c #BDBFCC",
"I 	c #10152B",
"J 	c #0F1629",
"K 	c #BCBFCE",
"L 	c #BEC1D0",
"M 	c #101528",
"N 	c #0B0D1C",
"O 	c #0B0E1F",
"P 	c #0F1428",
"Q 	c #020001",
"R 	c #000300",
"S 	c #151934",
"T 	c #101529",
"U 	c #0F132C",
"V 	c #161A35",
"W 	c #050505",
"X 	c #000004",
"Y 	c #585A6F",
"Z 	c #595B70",
"` 	c #595C6D",
" .	c #585B6C",
"..	c #595C6B",
"+.	c #595C6F",
"@.	c #575D6B",
"#.	c #585B6E",
"$.	c #2D3246",
"%.	c #2D314A",
"&.	c #2E3349",
"*.	c #2E3347",
"=.	c #2C3147",
"-.	c #2D3248",
";.	c #1A1E37",
">.	c #1A1F35",
",.	c #181C37",
"'.	c #191D38",
").	c #1A1E39",
"!.	c #191D36",
"~.	c #191F35",
"{.	c #181E36",
"].	c #1A2036",
"^.	c #181E38",
"  . + @ # $ $ % % % % % % % % % % % % % % % % % % % % % % & & ",
"* = - = - - ; - ; - > > ; - - - - - - - - - - - - - - - - - , ",
"' ) ! ' ~ { { ] ^ ^ { { / { { { { { { { { { { { { { { { { ~ ( ",
"_ : < [ [ : : [ [ [ [ } [ [ [ [ [ [ [ [ [ [ [ [ [ [ [ [ [ | < ",
"| 1 2 3 4 3 5 3 6 6 3 6 3 6 6 6 6 6 6 6 6 6 6 6 6 6 6 6 6 4 7 ",
"[ 8 / { ! { 9 / { ! ! ! 9 ~ ~ ~ ~ ~ ~ ~ ~ ) ) ) ) ) ) ) ) { 0 ",
"a 4 { ~ { { { ! ( ! ! { ^ { { { { { { { { { { { { { { { { { 6 ",
"a b c ~ { ' ' ~ ' ~ d e e e e e e e e e e { { { { { { { { / f ",
"| g ' h i ~ ^ ! { 9 ' e e e e e e e e j k { { { { { { { { { 6 ",
"[ l ~ m ( ) ~ ! { 9 ~ e k { { { { ~ n o e ~ ~ ~ ~ ~ ~ ~ ~ ~ 3 ",
"[ 5 ~ ~ ' ~ ~ ~ n m n e j { { ! ( ) n o e ~ ~ ~ ~ ~ ~ ~ ~ h 2 ",
"[ p q r q q s q q q t u v s s s w q w x y q q q q q q q q w z ",
"[ A B C q s D r s s r E v q w s F G F H E q q q q q q q q q I ",
"a J F G s q w s s r s y u K x x K L K x K s s s s s s s s s M ",
"a A N C q w O s w q s K y y y x x K K x x q q q q q q q q q P ",
"Q J B G s r q r q w r q q F B N B F F r q s s s s s s s s s M ",
"R S M I T T T T T T T T T T T T T T T T T T T T T T T T T U V ",
"W [ X [ [ [ [ [ [ [ [ [ [ [ [ [ [ [ [ [ [ [ [ [ [ [ [ [ [ [ [ ",
"Y Z `  ...+.+.+.+.+.+.+.+.+.+.+.+.+.+.+.+.+.+.+.+.+.+.+.+.@.#.",
"$.%.&.*.=.$.$.$.$.$.$.$.$.$.$.$.$.$.$.$.$.$.$.$.$.$.$.$.$.-.%.",
";.>.,.'.).!.!.!.!.!.!.!.!.!.!.!.!.!.!.!.!.!.!.!.!.!.!.!.!.,.;.",
"~.{.].{.{.^.^.^.^.^.^.^.^.^.^.^.^.^.^.^.^.^.^.^.^.^.^.^.^.~.^.",
",.).!.;.).!.!.!.!.!.!.!.!.!.!.!.!.!.!.!.!.!.!.!.!.!.!.!.!.^.'."};
