/* XPM */
static char * maximize_prelight_xpm[] = {
"31 23 104 2",
"  	c None",
". 	c #0E1122",
"+ 	c #0A1123",
"@ 	c #0F1024",
"# 	c #0B1023",
"$ 	c #0E1124",
"% 	c #0C1125",
"& 	c #0C1124",
"* 	c #0E1025",
"= 	c #71799D",
"- 	c #71799E",
"; 	c #72779D",
"> 	c #73789E",
", 	c #72779F",
"' 	c #7179A0",
") 	c #404356",
"! 	c #414358",
"~ 	c #3F4458",
"{ 	c #414457",
"] 	c #3F4457",
"^ 	c #3E4454",
"/ 	c #3F4555",
"( 	c #3E4356",
"_ 	c #404559",
": 	c #0E0C11",
"< 	c #000002",
"[ 	c #000103",
"} 	c #000000",
"| 	c #010101",
"1 	c #000100",
"2 	c #797FA1",
"3 	c #616580",
"4 	c #616683",
"5 	c #606583",
"6 	c #5F6481",
"7 	c #606582",
"8 	c #797DA0",
"9 	c #606783",
"0 	c #404558",
"a 	c #616781",
"b 	c #010000",
"c 	c #616483",
"d 	c #3E4557",
"e 	c #414453",
"f 	c #FFF600",
"g 	c #626683",
"h 	c #5F6683",
"i 	c #424558",
"j 	c #3E4357",
"k 	c #616684",
"l 	c #404354",
"m 	c #414455",
"n 	c #0F152D",
"o 	c #0B0E1D",
"p 	c #0A0E1A",
"q 	c #0B0F1B",
"r 	c #0C0F1E",
"s 	c #C3BC00",
"t 	c #0A0D1C",
"u 	c #11162C",
"v 	c #0F152B",
"w 	c #0C0E1D",
"x 	c #0D0F1E",
"y 	c #0C101C",
"z 	c #0C0E1B",
"A 	c #0B0D1A",
"B 	c #10152B",
"C 	c #0F1629",
"D 	c #101528",
"E 	c #0B0D1C",
"F 	c #0B0E1F",
"G 	c #0F1428",
"H 	c #020001",
"I 	c #000300",
"J 	c #151934",
"K 	c #101529",
"L 	c #0F132C",
"M 	c #161A35",
"N 	c #050505",
"O 	c #000004",
"P 	c #585A6F",
"Q 	c #595B70",
"R 	c #595C6D",
"S 	c #585B6C",
"T 	c #595C6B",
"U 	c #595C6F",
"V 	c #575D6B",
"W 	c #585B6E",
"X 	c #2D3246",
"Y 	c #2D314A",
"Z 	c #2E3349",
"` 	c #2E3347",
" .	c #2C3147",
"..	c #2D3248",
"+.	c #1A1E37",
"@.	c #1A1F35",
"#.	c #181C37",
"$.	c #191D38",
"%.	c #1A1E39",
"&.	c #191D36",
"*.	c #191F35",
"=.	c #181E36",
"-.	c #1A2036",
";.	c #181E38",
". + @ # $ % % & & & & & & & & & & & & & & & & & & & & & & * * ",
"= - ; - ; ; > ; > ; , , > ; ; ; ; ; ; ; ; ; ; ; ; ; ; ; ; ; ' ",
") ! ~ ) { ] ] ^ / / ] ] ( ] ] ] ] ] ] ] ] ] ] ] ] ] ] ] ] { _ ",
": < [ } } < < } } } } | } } } } } } } } } } } } } } } } } 1 [ ",
"1 2 3 4 5 4 6 4 7 7 4 7 4 7 7 7 7 7 7 7 7 7 7 7 7 7 7 7 7 5 8 ",
"} 9 ( ] ~ ] 0 ( ] ~ ~ ~ 0 { { { { { { { { ! ! ! ! ! ! ! ! ] a ",
"b 5 ] { ] ] ] ~ _ ~ ~ ] / ] ] ] ] ] ] ] ] ] ] ] ] ] ] ] ] ] 7 ",
"b c d { ] ) ) { ) { e f f f f f f f f f f ] ] ] ] ] ] ] ] ( g ",
"1 h ) i j { / ~ ] 0 ) f f f f f f f f f f ] ] ] ] ] ] ] ] ] 7 ",
"} k { l _ ! { ~ ] 0 { f f ] ] ] ] { m f f { { { { { { { { { 4 ",
"} 6 { { ) { { { m l m f f ] ] ~ _ ! m f f { { { { { { { { i 3 ",
"} n o p o o q o o o r s s q q q t o t s s o o o o o o o o t u ",
"} v w x o q y p q q p s s o t q z A z s s o o o o o o o o o B ",
"b C z A q o t q q p q s s s s s s s s s s q q q q q q q q q D ",
"b v E x o t F q t o q s s s s s s s s s s o o o o o o o o o G ",
"H C w A q p o p o t p o o z w E w z z p o q q q q q q q q q D ",
"I J D B K K K K K K K K K K K K K K K K K K K K K K K K K L M ",
"N } O } } } } } } } } } } } } } } } } } } } } } } } } } } } } ",
"P Q R S T U U U U U U U U U U U U U U U U U U U U U U U U V W ",
"X Y Z `  .X X X X X X X X X X X X X X X X X X X X X X X X ..Y ",
"+.@.#.$.%.&.&.&.&.&.&.&.&.&.&.&.&.&.&.&.&.&.&.&.&.&.&.&.&.#.+.",
"*.=.-.=.=.;.;.;.;.;.;.;.;.;.;.;.;.;.;.;.;.;.;.;.;.;.;.;.;.*.;.",
"#.%.&.+.%.&.&.&.&.&.&.&.&.&.&.&.&.&.&.&.&.&.&.&.&.&.&.&.&.;.$."};
