/* XPM */
static char * title_1_active_xpm[] = {
"2 23 9 1",
" 	c #0C1124",
".	c #72779D",
"+	c #404558",
"@	c #3F4457",
"#	c #414457",
"$	c #191D36",
"%	c #191E34",
"&	c #181E36",
"*	c #191D38",
"  ",
"..",
"++",
"@@",
"##",
"@@",
"@@",
"##",
"@@",
"@@",
"@@",
"@@",
"$$",
"%%",
"%%",
"%%",
"%%",
"&&",
"$$",
"&&",
"$$",
"**",
"$$"};
