/* XPM */
static char * top_right_active_xpm[] = {
"6 23 72 1",
" 	c None",
".	c #0E1316",
"+	c #52587C",
"@	c #414457",
"#	c #818DB5",
"$	c #5A6084",
"%	c #5A6487",
"&	c #878BB8",
"*	c #424556",
"=	c #767FA6",
"-	c #8186B0",
";	c #3A4050",
">	c #3E4359",
",	c #404656",
"'	c #8188B2",
")	c #0E1124",
"!	c #383E4E",
"~	c #3F4659",
"{	c #404257",
"]	c #404559",
"^	c #838BB2",
"/	c #0B1224",
"(	c #383B4A",
"_	c #3F4457",
":	c #414358",
"<	c #424558",
"[	c #838CB5",
"}	c #0F1126",
"|	c #262739",
"1	c #323449",
"2	c #3F4555",
"3	c #8790BB",
"4	c #1D2236",
"5	c #191D38",
"6	c #1F2639",
"7	c #3B4254",
"8	c #8B92C0",
"9	c #0C1222",
"0	c #1B2234",
"a	c #181E38",
"b	c #212639",
"c	c #8992BD",
"d	c #0C1124",
"e	c #1C2134",
"f	c #1C1D32",
"g	c #1C1E35",
"h	c #181E36",
"i	c #6A72A1",
"j	c #0E1122",
"k	c #1D2033",
"l	c #171E38",
"m	c #191E34",
"n	c #4B588D",
"o	c #192136",
"p	c #191F37",
"q	c #3A477B",
"r	c #181E34",
"s	c #1B1D36",
"t	c #1A1E37",
"u	c #38457C",
"v	c #171D37",
"w	c #3D487E",
"x	c #0E1025",
"y	c #191D36",
"z	c #191F39",
"A	c #191F35",
"B	c #3C4681",
"C	c #191D3A",
"D	c #181C35",
"E	c #181F3B",
"F	c #3C4980",
"G	c #0C1125",
".     ",
"+..   ",
"@#$.  ",
"@@@%. ",
"@@@&. ",
"****=.",
"****-.",
"****-.",
"****-.",
";>*,')",
"!~{]^/",
"(_:<[}",
"|1_23)",
"456789",
"0a5bcd",
"efghij",
"klmhn9",
"ompmqd",
"rsatu}",
"hghvwx",
"pyrzwd",
"ytA5B)",
"tCDEFG"};
