/* XPM */
static char * close_pressed_xpm[] = {
"34 23 141 2",
"  	c None",
". 	c #0C1124",
"+ 	c #0E1025",
"@ 	c #0E1124",
"# 	c #0E1122",
"$ 	c #0C1125",
"% 	c #0B1023",
"& 	c #0D1225",
"* 	c #71799D",
"= 	c #72779F",
"- 	c #73789E",
"; 	c #70789D",
"> 	c #72789C",
", 	c #72779D",
"' 	c #404354",
") 	c #3F4458",
"! 	c #404356",
"~ 	c #404559",
"{ 	c #414457",
"] 	c #3F4457",
"^ 	c #3E4454",
"/ 	c #3F4555",
"( 	c #3E4356",
"_ 	c #3E4558",
": 	c #0D0B10",
"< 	c #000100",
"[ 	c #000000",
"} 	c #000002",
"| 	c #010101",
"1 	c #080808",
"2 	c #18191D",
"3 	c #343642",
"4 	c #404352",
"5 	c #43455A",
"6 	c #000202",
"7 	c #202434",
"8 	c #0D111D",
"9 	c #1B1F2E",
"0 	c #1B1F2D",
"a 	c #1A1F2D",
"b 	c #181C2A",
"c 	c #0F0E13",
"d 	c #323641",
"e 	c #3C4858",
"f 	c #0A0E19",
"g 	c #181D2A",
"h 	c #181D2B",
"i 	c #19161D",
"j 	c #454859",
"k 	c #1B202E",
"l 	c #040203",
"m 	c #4B4D62",
"n 	c #010000",
"o 	c #F2F6FF",
"p 	c #F1F5FF",
"q 	c #F2F7FD",
"r 	c #4E5366",
"s 	c #505666",
"t 	c #F2F7FB",
"u 	c #505568",
"v 	c #F3F7FF",
"w 	c #0F142A",
"x 	c #0A0D1C",
"y 	c #0B0E1D",
"z 	c #0B0F1B",
"A 	c #0B0E1F",
"B 	c #BDC0CF",
"C 	c #BCBFCE",
"D 	c #BCC0CC",
"E 	c #0C0F1E",
"F 	c #0A0F1C",
"G 	c #2D3245",
"H 	c #10152B",
"I 	c #0C0E1D",
"J 	c #0B0D1C",
"K 	c #0C0E1B",
"L 	c #0B0D1A",
"M 	c #0D0F1C",
"N 	c #BEC2CE",
"O 	c #BCBFD0",
"P 	c #BCC0CB",
"Q 	c #0A0E1A",
"R 	c #101529",
"S 	c #11162A",
"T 	c #0C101C",
"U 	c #BDC1CD",
"V 	c #2D3246",
"W 	c #010103",
"X 	c #0F1428",
"Y 	c #0D0F1E",
"Z 	c #BEC1D0",
"` 	c #10172A",
" .	c #020106",
"..	c #2E3347",
"+.	c #111629",
"@.	c #0F1223",
"#.	c #0C1326",
"$.	c #100F15",
"%.	c #2C3145",
"&.	c #000300",
"*.	c #161938",
"=.	c #0F1024",
"-.	c #000407",
";.	c #2E3339",
">.	c #252942",
",.	c #050507",
"'.	c #000004",
").	c #030303",
"!.	c #0E121B",
"~.	c #373B47",
"{.	c #35374E",
"].	c #1E223D",
"^.	c #595C6F",
"/.	c #565C6A",
"(.	c #575D6D",
"_.	c #585B6E",
":.	c #585B6C",
"<.	c #595C6D",
"[.	c #575A6B",
"}.	c #545768",
"|.	c #484B5E",
"1.	c #31364C",
"2.	c #20243D",
"3.	c #1A1F35",
"4.	c #2D3248",
"5.	c #2E3349",
"6.	c #2B3046",
"7.	c #1D213C",
"8.	c #191E34",
"9.	c #191D38",
"0.	c #1A1E37",
"a.	c #191D36",
"b.	c #1A1E39",
"c.	c #181E34",
"d.	c #181E36",
"e.	c #191F37",
"f.	c #1A2038",
"g.	c #181E38",
"h.	c #191F39",
"i.	c #171D35",
"j.	c #181C37",
". + @ . . # $ $ . . . . . . $ . % & . & . . . . . . . . . . @ . & . ",
"* = - ; ; > , - , - , = = - , , , , - , , - , , , , , , , , - ; , ; ",
"' ) ! ~ ) { ] ] ^ / / ] ] ( ) ( ] ] ) ) ] ( ] ] ] ] ] ] ] ] ] _ ) ) ",
": < [ [ } } } } [ [ [ [ | [ [ [ | [ | [ [ [ [ | [ [ | [ | 1 2 3 4 5 ",
"6 7 8 9 0 0 9 0 9 9 9 9 9 9 9 9 9 9 9 9 9 9 9 9 9 9 9 9 9 a b c d e ",
"< 0 f f f f f f f f f f f f f f f f f f f f f f f f f f f f g h i j ",
"[ 9 f f f f f f f f f f f f f f f f f f f f f f f f f f f f f k l m ",
"n 9 f f f f f f f f f f o o o f f f p q o f f f f f f f f f f 9 n r ",
"< 9 f f f f f f f f f f f o o o f o o o f f f f f f f f f f f 9 [ s ",
"< 9 f f f f f f f f f f f f o o t o o f f f f f f f f f f f f 9 [ u ",
"} 0 f f f f f f f f f f f f f o o v f f f f f f f f f f f f f 9 [ u ",
"[ w x y y y f f f z x y y z A B C D E x x z y y y y y f f f f F [ G ",
"| H y y x I J I K L L K M L D C N O P y z x y y y y y y y y Q R [ G ",
"[ S L z T L z Q Q Q z z Q U U D y D B U x z z z z z z z z z Q S } V ",
"W X Y y x I y x y y x y Z C C E y E C U U Q y y y y y y y y E `  ...",
"} +.L z z J f z z z z z Q y z x y x y x y A z z z z z z z z @.#.$.%.",
"&.*.w R R R R R R R R R R R X R R R R R S X R R R R R R R R =.-.;.>.",
",.[ [ [ [ '.[ [ [ [ [ [ [ [ [ | [ [ [ | [ [ [ [ [ [ [ [ | ).!.~.{.].",
"^.^./.(.^.^.^.^.^.^.^.^.^.^.^.^._.^.^.^.^.^.:.<.<.<.<.<.[.}.|.1.2.3.",
"V 4.5.4.4...V V V V V V V V V V ..%.V V V V 5.4.5.4.4.5.5.6.>.7.8.3.",
"9.9.9.0.a.9.a.a.a.a.a.a.a.a.a.a.a.a.0.a.0.a.b.9.9.9.9.9.b.b.c.d.d.e.",
"f.g.c.d.d.e.g.g.g.g.g.g.g.g.g.h.g.g.g.h.g.g.d.e.e.i.e.d.d.d.b.a.0.a.",
"j.0.9.h.b.a.a.a.a.a.a.a.a.a.0.a.a.a.0.a.a.a.b.9.b.9.b.9.9.9.g.g.a.0."};
