/* XPM */
static char * close_inactive_xpm[] = {
"34 23 147 2",
"  	c #0C1125",
". 	c #0E1025",
"+ 	c #0C1124",
"@ 	c #0D1021",
"# 	c #0F1126",
"$ 	c #0D1023",
"% 	c #0C1222",
"& 	c #0D1225",
"* 	c #0B1023",
"= 	c #0D1323",
"- 	c #0C1127",
"; 	c #70789D",
"> 	c #72779D",
", 	c #7178A2",
"' 	c #70789C",
") 	c #7179A0",
"! 	c #70789F",
"~ 	c #71799E",
"{ 	c #73769F",
"] 	c #71799D",
"^ 	c #6E789C",
"/ 	c #414457",
"( 	c #414455",
"_ 	c #3F4457",
": 	c #3F4555",
"< 	c #404257",
"[ 	c #424558",
"} 	c #3E4356",
"| 	c #404356",
"1 	c #3F4458",
"2 	c #0F0A10",
"3 	c #000000",
"4 	c #010101",
"5 	c #000002",
"6 	c #010103",
"7 	c #08070C",
"8 	c #18171D",
"9 	c #333743",
"0 	c #000100",
"a 	c #7880A5",
"b 	c #606582",
"c 	c #626681",
"d 	c #5F6680",
"e 	c #606783",
"f 	c #5F6682",
"g 	c #616882",
"h 	c #5B627C",
"i 	c #515872",
"j 	c #0F0E13",
"k 	c #333542",
"l 	c #010000",
"m 	c #606784",
"n 	c #424357",
"o 	c #404559",
"p 	c #3E4357",
"q 	c #454A5E",
"r 	c #53586E",
"s 	c #545871",
"t 	c #15181F",
"u 	c #454859",
"v 	c #606583",
"w 	c #43455A",
"x 	c #414358",
"y 	c #404558",
"z 	c #42475A",
"A 	c #636886",
"B 	c #030303",
"C 	c #494F5F",
"D 	c #616683",
"E 	c #404656",
"F 	c #4E5464",
"G 	c #525566",
"H 	c #525568",
"I 	c #616781",
"J 	c #10152B",
"K 	c #0A0E1A",
"L 	c #0B0E1D",
"M 	c #0B0F1B",
"N 	c #0C0F1E",
"O 	c #0F152B",
"P 	c #303247",
"Q 	c #010100",
"R 	c #0B0E1F",
"S 	c #0A0C19",
"T 	c #0A0D1C",
"U 	c #2D3246",
"V 	c #101529",
"W 	c #0C0E1B",
"X 	c #0A0D1E",
"Y 	c #11162A",
"Z 	c #2D3248",
"` 	c #0C101C",
" .	c #14142C",
"..	c #000201",
"+.	c #2F3146",
"@.	c #0F1427",
"#.	c #0B0C1E",
"$.	c #0B0F1A",
"%.	c #0D101F",
"&.	c #0F1223",
"*.	c #101123",
"=.	c #0C1117",
"-.	c #2D2F46",
";.	c #151B35",
">.	c #121429",
",.	c #0F1428",
"'.	c #10142D",
").	c #0E1327",
"!.	c #010409",
"~.	c #2F333E",
"{.	c #282A3F",
"].	c #09040B",
"^.	c #050409",
"/.	c #121116",
"(.	c #383C48",
"_.	c #35374C",
":.	c #1F233C",
"<.	c #585B6C",
"[.	c #575D69",
"}.	c #575C70",
"|.	c #575C6F",
"1.	c #595C6D",
"2.	c #575D6D",
"3.	c #565C6C",
"4.	c #515767",
"5.	c #464B5E",
"6.	c #34364B",
"7.	c #1A1E37",
"8.	c #2E3347",
"9.	c #2F3148",
"0.	c #2C3248",
"a.	c #2F3245",
"b.	c #2D3245",
"c.	c #2E3349",
"d.	c #2B3046",
"e.	c #262B41",
"f.	c #1D213A",
"g.	c #1A1F33",
"h.	c #181E34",
"i.	c #181E38",
"j.	c #191D38",
"k.	c #181E36",
"l.	c #191D36",
"m.	c #171D37",
"n.	c #1A1E39",
"o.	c #191D3A",
"p.	c #191E34",
"  . + @ # $ % + + + + + + + + + + + + + + + + & * + % = +   - + $ = ",
"; > ; , ' ) ! ; ; ; ; ; ; ; ; ; ; ; ; ; ; ; ; ; ! ! ! ! ; ~ ; { ] ^ ",
"/ ( _ : < [ } / / / / / / / / / / / / / / / / / / / / | | / / _ 1 [ ",
"2 3 4 5 5 3 3 3 3 3 3 3 3 3 3 3 3 3 3 3 3 3 3 5 6 3 3 4 5 7 8 9 < _ ",
"0 a b c d e b f f f f f f f f f f f f f f f f f f e f f g h i j k [ ",
"l m _ n o p / _ _ _ _ _ _ _ _ _ _ _ _ _ _ _ _ _ _ _ _ _ o q r s t u ",
"3 v w } x _ _ _ _ _ _ _ _ _ _ _ _ _ _ _ _ _ _ _ _ _ _ _ _ y z A B C ",
"3 D / E / } _ _ _ _ _ _ _ _ _ _ _ _ _ _ _ _ _ _ _ _ _ _ } _ y v 3 F ",
"3 v x _ < 1 _ 1 1 1 1 1 1 1 1 1 1 1 1 1 1 1 1 1 1 1 1 1 1 1 p D 3 G ",
"3 D | _ [ _ / _ _ _ _ _ _ _ _ _ _ _ _ _ _ _ _ _ _ _ _ _ _ _ _ b 3 H ",
"5 b [ } / | [ / / / / / / / / / / / / / / / / / / / | / / / / I 3 H ",
"3 J K L M N L L L L L L L L L L L L L L L L L L L L L L L L L O 3 P ",
"Q J M R S T L L L L L L L L L L L L L L L L L L L L L L L L T J l U ",
"l V W X W M M M M M M M M M M M M M M M M M M M M K M M M M M Y l Z ",
"3 O L W T L M L L L L L L L L L L L L L L L L L L L L K K M `  ...+.",
"3 @.M #.$.K M M M M M M M M M M M M M M M M M $.$.M M M L %.&.*.=.-.",
"0 ;.J >.,.V '.V V V V V V V V V V V V V V V V '.'.J J V V ,.).!.~.{.",
"].0 3 6 3 4 3 3 3 3 3 3 3 3 3 3 3 3 3 3 3 3 3 3 4 3 3 3 5 ^./.(._.:.",
"<.[.}.<.|.1.|.1.1.1.1.1.1.1.1.1.1.1.1.1.1.1.1.2.3.2.2.3.3.4.5.6.:.7.",
"8.9.0.U U a.b.Z Z Z Z Z Z Z Z Z Z Z Z Z Z Z Z Z c.c.Z Z c.d.e.f.g.h.",
"h.7.i.j.k.l.m.j.j.j.j.j.j.j.j.j.j.j.j.j.j.j.j.7.l.j.n.n.j.n.j.o.k.i.",
"k.k.k.k.k.k.k.k.k.k.k.k.k.k.k.k.k.k.k.k.k.k.k.k.k.k.k.k.k.k.k.p.k.i.",
"k.k.k.k.k.k.k.k.k.k.k.k.k.k.k.k.k.k.k.k.k.k.k.k.k.k.k.k.k.k.k.k.k.k."};
