/* XPM */
static char * hide_active_xpm[] = {
"32 23 125 2",
"  	c #0C1127",
". 	c #0E1124",
"+ 	c #0C1124",
"@ 	c #0D1023",
"# 	c #0C1125",
"$ 	c #0F1022",
"% 	c #6F799D",
"& 	c #71799E",
"* 	c #6F779E",
"= 	c #73799D",
"- 	c #72789C",
"; 	c #72779D",
"> 	c #71779B",
", 	c #414457",
"' 	c #414358",
") 	c #424358",
"! 	c #424554",
"~ 	c #3F4457",
"{ 	c #3F4458",
"] 	c #3F4555",
"^ 	c #343645",
"/ 	c #141821",
"( 	c #06070B",
"_ 	c #000000",
": 	c #000002",
"< 	c #000100",
"[ 	c #42445B",
"} 	c #333743",
"| 	c #0B1111",
"1 	c #525870",
"2 	c #5F637E",
"3 	c #616683",
"4 	c #606582",
"5 	c #606680",
"6 	c #616483",
"7 	c #797EA4",
"8 	c #43485B",
"9 	c #161B1E",
"0 	c #535971",
"a 	c #535973",
"b 	c #44495D",
"c 	c #404356",
"d 	c #5E6784",
"e 	c #4B4C61",
"f 	c #040402",
"g 	c #626785",
"h 	c #46485D",
"i 	c #3E4356",
"j 	c #5F6683",
"k 	c #4E5366",
"l 	c #616882",
"m 	c #424556",
"n 	c #5F6682",
"o 	c #505666",
"p 	c #616684",
"q 	c #424558",
"r 	c #414455",
"s 	c #4F5565",
"t 	c #616580",
"u 	c #404354",
"v 	c #414453",
"w 	c #F2F5FF",
"x 	c #F2F6FF",
"y 	c #2C3242",
"z 	c #10152B",
"A 	c #0B0E1F",
"B 	c #0B0E1D",
"C 	c #0A0D1C",
"D 	c #0B0F1B",
"E 	c #BCC0CC",
"F 	c #BDC1CD",
"G 	c #0E142A",
"H 	c #2E3346",
"I 	c #0F1428",
"J 	c #0C0E1D",
"K 	c #0C0E1B",
"L 	c #0A0E1A",
"M 	c #0C101C",
"N 	c #BDC0CF",
"O 	c #2D3246",
"P 	c #101528",
"Q 	c #0B0D1A",
"R 	c #020106",
"S 	c #111629",
"T 	c #0C0F1E",
"U 	c #2C3145",
"V 	c #100F15",
"W 	c #0D1225",
"X 	c #0F1223",
"Y 	c #101529",
"Z 	c #27293E",
"` 	c #2F333E",
" .	c #000308",
"..	c #101221",
"+.	c #131429",
"@.	c #101431",
"#.	c #151934",
"$.	c #1E2339",
"%.	c #34364D",
"&.	c #383B4A",
"*.	c #0D111A",
"=.	c #000604",
"-.	c #1B2036",
";.	c #20253B",
">.	c #31364A",
",.	c #464B5F",
"'.	c #52576A",
").	c #595C6F",
"!.	c #585B6A",
"~.	c #5A5D6E",
"{.	c #181E36",
"].	c #1A1E37",
"^.	c #262B41",
"/.	c #2A2F45",
"(.	c #2D3248",
"_.	c #2C3147",
":.	c #2E3349",
"<.	c #191F39",
"[.	c #191F37",
"}.	c #191D36",
"|.	c #191D38",
"1.	c #181C35",
"2.	c #181E38",
"3.	c #181E34",
"4.	c #1A1E39",
"  . + @ # + + + + + + + + + + + + + + + + + + + + + + + + # $   ",
"% & * = - ; ; ; ; ; ; ; ; ; ; ; ; ; ; ; ; ; ; ; ; ; ; ; ; & > ; ",
", ' ) ! , ~ ~ ~ ~ ~ ~ ~ ~ ~ ~ ~ ~ ~ ~ ~ ~ ~ ~ ~ ~ ~ ~ ~ ~ { ' , ",
"~ ] ^ / ( _ _ _ _ _ _ _ _ _ _ _ _ _ _ _ _ _ _ _ _ _ _ _ _ : < < ",
"[ } | 1 2 3 3 3 3 3 3 3 3 4 4 4 4 4 4 4 4 4 4 4 4 4 4 4 4 5 6 7 ",
"8 9 0 a b ' ' ' ' ' ' ' ' ' ' ' ' ' ' ' ' ' ' ' ' ' ' ' ' { c d ",
"e f g h i ~ ~ ~ ~ ~ ~ ~ ~ ~ ~ ~ ~ ~ ~ ~ ~ ~ ~ ~ ~ ~ ~ ~ ~ ~ ~ j ",
"k : l , { ~ ~ ~ ~ ~ ~ ~ ~ ~ ~ ~ ~ ~ ~ ~ ~ ~ ~ ~ ~ ~ ~ ~ ~ m { n ",
"o < p ~ { ~ ~ ~ ~ { ~ ~ i ~ ~ ~ ~ ~ ~ ~ ~ i ~ ~ { ~ ~ ~ ~ ~ { 3 ",
"o < 3 ~ ~ , q , , , , , r , , , , , , , , r , , , , , q , , , 3 ",
"s _ t c , , c , u r r v w x x x x x x x x w v r r u , c , , , 4 ",
"y _ z A B B B C B C B D E F F F F F F F F E D B C B C B B B C G ",
"H : I J K D L D L M D L F N N N N N N N N F L D M L D L D B B z ",
"O : P J Q D L D D C B B C D D D D D D D D C B B C D D L D L D I ",
"O R S T C B C L B B B C B B B B B B B B B B C B B B L C B C D z ",
"U V W X T C C D D M L D D D D D D D D D D D D L M D D C C D L Y ",
"Z `  ...+.Y Y Y Y Y Y Y Y Y Y Y Y Y Y Y Y Y Y Y Y Y Y Y Y P @.#.",
"$.%.&.*.=._ _ _ _ _ _ _ _ _ _ _ _ _ _ _ _ _ _ _ _ _ _ _ _ _ : _ ",
"-.;.>.,.'.).).).).).).).).).).).).).).).).).).).).).).).).).!.~.",
"{.].$.^./.O O O O O O O O O O O O O O O O O O O O O O O O (._.:.",
"{.{.<.{.[.}.}.}.}.}.}.}.}.}.}.}.}.}.}.}.}.}.}.}.}.}.}.}.}.|.|.}.",
"].1.].}.|.2.2.2.2.2.2.2.2.2.2.2.2.2.2.2.2.2.2.2.2.2.2.2.2.{.3.[.",
"{.].2.[.{.].].].].].].].].}.}.}.}.}.}.}.}.}.}.}.}.}.}.}.}.}.4.]."};
