/* XPM */
static char * hide_inactive_xpm[] = {
"32 23 108 2",
"  	c #0A0F22",
". 	c #0B1224",
"+ 	c #0B1127",
"@ 	c #0C1222",
"# 	c #0E1124",
"$ 	c #0E1025",
"% 	c #0C1124",
"& 	c #0B1121",
"* 	c #7179A0",
"= 	c #70789D",
"- 	c #73799D",
"; 	c #72779D",
"> 	c #72779F",
", 	c #6F789F",
"' 	c #414457",
") 	c #42445B",
"! 	c #3F4457",
"~ 	c #3F4458",
"{ 	c #414358",
"] 	c #343642",
"^ 	c #17171F",
"/ 	c #070707",
"( 	c #000000",
"_ 	c #414455",
": 	c #333645",
"< 	c #0B1111",
"[ 	c #52566F",
"} 	c #5E6381",
"| 	c #616882",
"1 	c #5F6682",
"2 	c #616684",
"3 	c #777FA3",
"4 	c #454859",
"5 	c #151A1E",
"6 	c #565871",
"7 	c #545873",
"8 	c #44495F",
"9 	c #404558",
"0 	c #424558",
"a 	c #606783",
"b 	c #4A4D60",
"c 	c #040404",
"d 	c #616683",
"e 	c #43485C",
"f 	c #606583",
"g 	c #515465",
"h 	c #636885",
"i 	c #010101",
"j 	c #606582",
"k 	c #3E4357",
"l 	c #525568",
"m 	c #000002",
"n 	c #616580",
"o 	c #616781",
"p 	c #404356",
"q 	c #303346",
"r 	c #10142D",
"s 	c #0B0E1D",
"t 	c #0A0D1C",
"u 	c #10152B",
"v 	c #2E3144",
"w 	c #0B0F1B",
"x 	c #0F1428",
"y 	c #2F3146",
"z 	c #0A0E1A",
"A 	c #101529",
"B 	c #000302",
"C 	c #13132B",
"D 	c #0C0E1D",
"E 	c #0C0E1B",
"F 	c #2D3248",
"G 	c #0B0F18",
"H 	c #101221",
"I 	c #0F1225",
"J 	c #0C0F1E",
"K 	c #101626",
"L 	c #27293E",
"M 	c #2F333E",
"N 	c #000509",
"O 	c #0E1122",
"P 	c #101528",
"Q 	c #12142B",
"R 	c #141A34",
"S 	c #1D233D",
"T 	c #36384D",
"U 	c #383A46",
"V 	c #10131A",
"W 	c #040507",
"X 	c #000100",
"Y 	c #1A1E39",
"Z 	c #20253B",
"` 	c #34364D",
" .	c #494C5F",
"..	c #535667",
"+.	c #595A6C",
"@.	c #595C6D",
"#.	c #575C6F",
"$.	c #575D6B",
"%.	c #181E36",
"&.	c #181E34",
"*.	c #1D213A",
"=.	c #252B43",
"-.	c #2B3046",
";.	c #191F37",
">.	c #171E38",
",.	c #191D38",
"'.	c #181E38",
").	c #1A1E37",
"  . + @ # $ % % % % % % % % % % % % % % % % % % % % % % % % & $ ",
"* = - ; > ; = = = = = = = = = = = = = = = = = = = = = = = = , ; ",
"' ' ) ! ! ~ ' ' ' ' ' ' ' ' ' ' ' ' ' ' ' ' ' ' ' ' ' ' ' ' ! ' ",
"~ { ] ^ / ( ( ( ( ( ( ( ( ( ( ( ( ( ( ( ( ( ( ( ( ( ( ( ( ( ( ( ",
"_ : < [ } | 1 1 1 1 1 1 1 1 1 1 1 1 1 1 1 1 1 1 1 1 1 1 1 1 2 3 ",
"4 5 6 7 8 9 ! ! ! ! ! ! ! ! ! ! ! ! ! ! ! ! ! ! ! ! ! ! ! ! 0 a ",
"b c d e ! ' ! ! ! ! ! ! ! ! ! ! ! ! ! ! ! ! ! ! ! ! ! ! ! ! ~ f ",
"g ( h ~ ! ' ! ! ! ! ! ! ! ! ! ! ! ! ! ! ! ! ! ! ! ! ! ! ! ! ! d ",
"g i j k ! ' ~ ~ ~ ~ ~ ~ ~ ~ ~ ~ ~ ~ ~ ~ ~ ~ ~ ~ ~ ~ ~ ~ ~ ~ ~ f ",
"l m j { ! 0 ! ! ! ! ! ! ! ! ! ! ! ! ! ! ! ! ! ! ! ! ! ! ! ! ! n ",
"l i o ' _ p ' ' ' ' ' ' ' ' ' ' ' ' ' ' ' ' ' ' ' ' ' ' ' ' ! n ",
"q ( r s s s s s s s s s s s s s s s s s s s s s s s s s s s t u ",
"v ( u w w t s s s s s s s s s s s s s s s s s s s s s s s s s x ",
"y ( u w z s w w w w w w w w w w w w w w w w w w w w w w w w s A ",
"y B C D z E s s s s s s s s s s s s s s s s s s s s s s s s s A ",
"F G H I J s w w w w w w w w w w w w w w w w w w w w w w w w z K ",
"L M N O P Q A A A A A A A A A A A A A A A A A A A A A A A A r R ",
"S T U V W m ( ( ( ( ( ( ( ( ( ( ( ( ( ( ( ( ( ( ( ( ( ( ( ( ( X ",
"Y Z `  ...+.@.@.@.@.@.@.@.@.@.@.@.@.@.@.@.@.@.@.@.@.@.@.@.@.#.$.",
"%.&.*.=.-.y F F F F F F F F F F F F F F F F F F F F F F F F F F ",
";.;.%.>.>.%.,.,.,.,.,.,.,.,.,.,.,.,.,.,.,.,.,.,.,.,.,.,.,.,.'.).",
"%.%.%.%.%.%.%.%.%.%.%.%.%.%.%.%.%.%.%.%.%.%.%.%.%.%.%.%.%.%.%.%.",
"%.%.%.%.%.%.%.%.%.%.%.%.%.%.%.%.%.%.%.%.%.%.%.%.%.%.%.%.%.%.%.%."};
