/* XPM */
static char * left_active_xpm[] = {
"3 10 9 1",
" 	c #0C1124",
".	c #3C477F",
"+	c #181E36",
"@	c #181E34",
"#	c #3C477D",
"$	c #1A1E37",
"%	c #3B487D",
"&	c #3B487F",
"*	c #3A477E",
" .+",
" .+",
" .+",
" .@",
" #$",
" #$",
" #$",
" %+",
" &+",
" *+"};
