/* XPM */
static char * maximize_pressed_xpm[] = {
"31 23 99 2",
"  	c None",
". 	c #0E1122",
"+ 	c #0A1123",
"@ 	c #0F1024",
"# 	c #0B1023",
"$ 	c #0E1124",
"% 	c #0C1125",
"& 	c #0C1124",
"* 	c #0E1025",
"= 	c #71799D",
"- 	c #71799E",
"; 	c #72779D",
"> 	c #73789E",
", 	c #72779F",
"' 	c #7179A0",
") 	c #404356",
"! 	c #414358",
"~ 	c #3F4458",
"{ 	c #414457",
"] 	c #3F4457",
"^ 	c #3E4454",
"/ 	c #3F4555",
"( 	c #3E4356",
"_ 	c #404559",
": 	c #0E0C11",
"< 	c #000002",
"[ 	c #000103",
"} 	c #000000",
"| 	c #010101",
"1 	c #000100",
"2 	c #0E1121",
"3 	c #1B1E30",
"4 	c #1B1F30",
"5 	c #0A0D1C",
"6 	c #010000",
"7 	c #F2F6FF",
"8 	c #F3F5FF",
"9 	c #F3F6FF",
"0 	c #414455",
"a 	c #F1F5FF",
"b 	c #0D1020",
"c 	c #0F152D",
"d 	c #0B0E1D",
"e 	c #0A0E1A",
"f 	c #0B0F1B",
"g 	c #0C0F1E",
"h 	c #BCC0CC",
"i 	c #BEC0CD",
"j 	c #BDC0CF",
"k 	c #BDC1CD",
"l 	c #11162C",
"m 	c #0F152B",
"n 	c #0C0E1D",
"o 	c #0D0F1E",
"p 	c #0C101C",
"q 	c #BEC0CF",
"r 	c #0C0E1B",
"s 	c #0B0D1A",
"t 	c #BDBFCC",
"u 	c #10152B",
"v 	c #0F1629",
"w 	c #BCBFCE",
"x 	c #BEC1D0",
"y 	c #101528",
"z 	c #0B0D1C",
"A 	c #0B0E1F",
"B 	c #0F1428",
"C 	c #020001",
"D 	c #000300",
"E 	c #151934",
"F 	c #101529",
"G 	c #0F132C",
"H 	c #161A35",
"I 	c #050505",
"J 	c #000004",
"K 	c #585A6F",
"L 	c #595B70",
"M 	c #595C6D",
"N 	c #585B6C",
"O 	c #595C6B",
"P 	c #595C6F",
"Q 	c #575D6B",
"R 	c #585B6E",
"S 	c #2D3246",
"T 	c #2D314A",
"U 	c #2E3349",
"V 	c #2E3347",
"W 	c #2C3147",
"X 	c #2D3248",
"Y 	c #1A1E37",
"Z 	c #1A1F35",
"` 	c #181C37",
" .	c #191D38",
"..	c #1A1E39",
"+.	c #191D36",
"@.	c #191F35",
"#.	c #181E36",
"$.	c #1A2036",
"%.	c #181E38",
". + @ # $ % % & & & & & & & & & & & & & & & & & & & & & & * * ",
"= - ; - ; ; > ; > ; , , > ; ; ; ; ; ; ; ; ; ; ; ; ; ; ; ; ; ' ",
") ! ~ ) { ] ] ^ / / ] ] ( ] ] ] ] ] ] ] ] ] ] ] ] ] ] ] ] { _ ",
": < [ } } < < } } } } | } } } } } } } } } } } } } } } } } 1 [ ",
"1 2 3 3 3 3 3 3 3 3 3 3 3 3 3 3 3 3 3 3 3 3 3 3 3 3 3 3 3 3 2 ",
"} 4 5 5 5 5 5 5 5 5 5 5 5 5 5 5 5 5 5 5 5 5 5 5 5 5 5 5 5 5 4 ",
"6 3 5 5 5 5 5 5 5 5 5 5 5 5 5 5 5 5 5 5 5 5 5 5 5 5 5 5 5 5 3 ",
"6 3 5 5 5 5 5 5 5 5 5 7 7 7 7 7 7 7 7 7 7 5 5 5 5 5 5 5 5 5 3 ",
"1 3 5 5 5 5 5 5 5 5 5 7 7 7 7 7 7 7 7 8 9 5 5 5 5 5 5 5 5 5 3 ",
"} 3 5 5 5 5 5 5 5 5 5 7 9 ] ] ] ] { 0 a 7 5 5 5 5 5 5 5 5 5 3 ",
"} b 5 5 5 5 5 5 5 5 5 7 8 ] ] ~ _ ! 0 a 7 5 5 5 5 5 5 5 5 5 3 ",
"} c d e d d f d d d g h i f f f 5 d 5 j k d d d d d d d d 5 l ",
"} m n o d f p e f f e q i d 5 f r s r t q d d d d d d d d d u ",
"6 v r s f d 5 f f e f k h w j j w x w j w f f f f f f f f f y ",
"6 m z o d 5 A f 5 d f w k k k j j w w j j d d d d d d d d d B ",
"C v n s f e d e d 5 e d d r n z n r r e d f f f f f f f f f y ",
"D E y u F F F F F F F F F F F F F F F F F F F F F F F F F G H ",
"I } J } } } } } } } } } } } } } } } } } } } } } } } } } } } } ",
"K L M N O P P P P P P P P P P P P P P P P P P P P P P P P Q R ",
"S T U V W S S S S S S S S S S S S S S S S S S S S S S S S X T ",
"Y Z `  ...+.+.+.+.+.+.+.+.+.+.+.+.+.+.+.+.+.+.+.+.+.+.+.+.` Y ",
"@.#.$.#.#.%.%.%.%.%.%.%.%.%.%.%.%.%.%.%.%.%.%.%.%.%.%.%.%.@.%.",
"` ..+.Y ..+.+.+.+.+.+.+.+.+.+.+.+.+.+.+.+.+.+.+.+.+.+.+.+.%. ."};
