/* XPM */
static char * maximize_inactive_xpm[] = {
"31 23 80 1",
" 	c #0B1024",
".	c #0E1124",
"+	c #0D1323",
"@	c #0E1025",
"#	c #0C1124",
"$	c #0C1125",
"%	c #70789F",
"&	c #7179A0",
"*	c #70789D",
"=	c #414455",
"-	c #3F4555",
";	c #3E4454",
">	c #404558",
",	c #404356",
"'	c #414457",
")	c #100B11",
"!	c #000100",
"~	c #000000",
"{	c #000002",
"]	c #020003",
"^	c #000200",
"/	c #777FA6",
"(	c #616781",
"_	c #606582",
":	c #606783",
"<	c #60667E",
"[	c #5F6682",
"}	c #7880A5",
"|	c #010000",
"1	c #3F4458",
"2	c #3F445A",
"3	c #3F4457",
"4	c #606583",
"5	c #3E4357",
"6	c #424558",
"7	c #616683",
"8	c #3E4356",
"9	c #000201",
"0	c #616684",
"a	c #010100",
"b	c #0F152B",
"c	c #0B0E1D",
"d	c #0C101C",
"e	c #0F142A",
"f	c #0B0F1B",
"g	c #0A0E1A",
"h	c #0E142A",
"i	c #101529",
"j	c #0A0D1C",
"k	c #0C0E1B",
"l	c #0B0D1C",
"m	c #010101",
"n	c #10152B",
"o	c #0B0E1F",
"p	c #0C0E1D",
"q	c #111629",
"r	c #101528",
"s	c #151A37",
"t	c #141A34",
"u	c #09040B",
"v	c #595B6A",
"w	c #585E6E",
"x	c #565B6E",
"y	c #595C6D",
"z	c #575C6F",
"A	c #575D6D",
"B	c #2F3245",
"C	c #2D3248",
"D	c #2E3349",
"E	c #2D3246",
"F	c #2E324B",
"G	c #181E34",
"H	c #181D3A",
"I	c #181E38",
"J	c #191E34",
"K	c #191D36",
"L	c #191F39",
"M	c #191D38",
"N	c #191E3B",
"O	c #181E36",
" .+@@#########################$",
"%&&**%************************&",
"=-;>,-'''''''''''''''''''''''';",
")!~~{]~~~~~~~~~~~~~~~~~~~~~~~~!",
"^/(_:<[[[[[[[[[[[[[[[[[[[[[[[[}",
"|:=12'333333333333333333333333(",
"^4>5563333333333333333333333334",
"!783>=333333333333333333333333_",
"94>1561111111111111111111111110",
"!_8'>'333333333333333333333333_",
"{76'''''''''''''''''''''''''''7",
"abcdccccccccccccccccccccccccccb",
"~ecfgccccccccccccccccccccccccch",
"~ijkflffffffffffffffffffffffffi",
"mnfjopccccccccccccccccccccccccn",
"{qfggpffffffffffffffffffffffffr",
"!seniriiiiiiiiiiiiiiiiiiiiiiiit",
"u!m~~{~~~~~~~~~~~~~~~~~~~~~~~~!",
"vwxyyzyyyyyyyyyyyyyyyyyyyyyyyyA",
"BCDDCECCCCCCCCCCCCCCCCCCCCCCCCF",
"GHIJKLMMMMMMMMMMMMMMMMMMMMMMMML",
"NOGKKOOOOOOOOOOOOOOOOOOOOOOOOOO",
"OOOOOOOOOOOOOOOOOOOOOOOOOOOOOOO"};
