/* XPM */
static char * right_active_xpm[] = {
"3 10 6 1",
" 	c #191D38",
".	c #3C477F",
"+	c #0C1125",
"@	c #3C4681",
"#	c #0C1124",
"$	c #191D36",
" .+",
" .+",
" @+",
" @#",
" .#",
"$.#",
"$.#",
"$.#",
"$.#",
"$.#"};
