/* XPM */
static char * top_left_active_xpm[] = {
"6 23 72 1",
" 	c None",
".	c #0E1316",
"+	c #52587C",
"@	c #5A6084",
"#	c #818DB5",
"$	c #414457",
"%	c #5A6487",
"&	c #878BB8",
"*	c #767FA6",
"=	c #424556",
"-	c #8186B0",
";	c #0E1124",
">	c #8188B2",
",	c #404656",
"'	c #3E4359",
")	c #3A4050",
"!	c #0B1224",
"~	c #838BB2",
"{	c #404559",
"]	c #404257",
"^	c #3F4659",
"/	c #383E4E",
"(	c #0F1126",
"_	c #838CB5",
":	c #424558",
"<	c #414358",
"[	c #3F4457",
"}	c #383B4A",
"|	c #8790BB",
"1	c #3F4555",
"2	c #323449",
"3	c #262739",
"4	c #0C1222",
"5	c #8B92C0",
"6	c #3B4254",
"7	c #1F2639",
"8	c #191D38",
"9	c #1D2236",
"0	c #0C1124",
"a	c #8992BD",
"b	c #212639",
"c	c #181E38",
"d	c #1B2234",
"e	c #0E1122",
"f	c #6A72A1",
"g	c #181E36",
"h	c #1C1E35",
"i	c #1C1D32",
"j	c #1C2134",
"k	c #4B588D",
"l	c #191E34",
"m	c #171E38",
"n	c #1D2033",
"o	c #3A477B",
"p	c #191F37",
"q	c #192136",
"r	c #38457C",
"s	c #1A1E37",
"t	c #1B1D36",
"u	c #181E34",
"v	c #0E1025",
"w	c #3D487E",
"x	c #171D37",
"y	c #191F39",
"z	c #191D36",
"A	c #3C4681",
"B	c #191F35",
"C	c #0C1125",
"D	c #3C4980",
"E	c #181F3B",
"F	c #181C35",
"G	c #191D3A",
"     .",
"   ..+",
"  .@#$",
" .%$$$",
" .&$$$",
".*====",
".-====",
".-====",
".-====",
";>,=')",
"!~{]^/",
"(_:<[}",
";|1[23",
"456789",
"0ab8cd",
"efghij",
"4kglmn",
"0olplq",
"(rsctu",
"vwxghg",
"0wyuzp",
";A8Bsz",
"CDEFGs"};
