/* XPM */
static char * close_pressed_xpm[] = {
"18 20 3 1",
" 	c None",
".	c #FFFFFF",
"+	c #030303",
"                  ",
"                  ",
"                  ",
"..................",
"...++++++++++++...",
"...++++++++++++...",
"...++.++++++.++...",
"...++..++++..++...",
"...+++..++..+++...",
"...++++....++++...",
"...+++++..+++++...",
"...++++....++++...",
"...+++..++..+++...",
"...++..++++..++...",
"...++++++++++++...",
"...++++++++++++...",
"...++++++++++++...",
"..................",
"                  ",
"                  "};
