/* XPM */
static char * close_active_xpm[] = {
"18 20 4 1",
" 	c None",
".	c #000000",
"+	c #FFFFFF",
"@	c #030303",
"                  ",
"                  ",
"                  ",
"..................",
".++++++++++++++++.",
".++++++++++++++++.",
".+++.@++++++@.+++.",
".++++@@++++@@++++.",
".+++++@@++@@+++++.",
".++++++@@@@++++++.",
".+++++++@@+++++++.",
".++++++@@@@++++++.",
".+++++@@++@@+++++.",
".++++@@++++@@++++.",
".+++..++++++..+++.",
".++++++++++++++++.",
".++++++++++++++++.",
"..................",
"                  ",
"                  "};
