/* XPM */
static char * shade_toggled_pressed_xpm[] = {
"26 29 4 1",
" 	c None",
".	c #FFFFFF",
"+	c #000000 s active_color_1",
"@	c #030303",
"                          ",
"                          ",
"                          ",
"                          ",
".+......................+.",
".+......................+.",
".+..@@@@@@@@@@@@@@@@@@..+.",
".+..@@@@@@@@@@@@@@@@@@..+.",
".+..@@@@@@@@@@@@@@@@@@..+.",
".+..@@@@@@@@@@@@@@@@@@..+.",
".+..@@@............@@@..+.",
".+..@@@............@@@..+.",
".+..@@@@@@@@@@@@@@@@@@..+.",
".+..@@@..@@@@@@@@..@@@..+.",
".+..@@@...@@@@@@...@@@..+.",
".+..@@@@...@@@@...@@@@..+.",
".+..@@@@@...@@...@@@@@..+.",
".+..@@@@@@......@@@@@@..+.",
".+..@@@@@@@....@@@@@@@..+.",
".+..@@@@@@@@..@@@@@@@@..+.",
".+..@@@@@@@@@@@@@@@@@@..+.",
".+..@@@@@@@@@@@@@@@@@@..+.",
".+..@@@@@@@@@@@@@@@@@@..+.",
".+..@@@@@@@@@@@@@@@@@@..+.",
".+......................+.",
".+......................+.",
"                          ",
"                          ",
"                          "};
