/* XPM */
static char * title_3_active_xpm[] = {
"6 20 3 1",
" 	c #5B0D57",
".	c #FFFFFF",
"+	c #000000",
"      ",
"      ",
"      ",
"......",
"......",
"......",
"......",
"......",
"......",
"......",
"......",
"......",
"......",
"......",
"......",
"......",
"......",
"......",
"++++++",
"......"};
