/* XPM */
static char * title_5_active_xpm[] = {
"6 20 2 1",
" 	c #FFFFFF",
".	c #0078FF",
"      ",
"......",
"......",
"      ",
".. .. ",
". .. .",
" .  . ",
"      ",
" .. ..",
".. .. ",
"      ",
".. .. ",
". .. .",
"      ",
" .. ..",
".. .. ",
"      ",
"......",
"......",
"      "};
