/* XPM */
static char * title_2_inactive_xpm[] = {
"6 20 2 1",
" 	c #FFFFFF",
".	c #000000",
"      ",
"......",
"      ",
"      ",
"      ",
"      ",
"      ",
"      ",
"      ",
"      ",
"      ",
"      ",
"      ",
"      ",
"      ",
"      ",
"      ",
"      ",
"      ",
"......"};
