/* XPM */
static char * title_1_inactive_xpm[] = {
"6 20 2 1",
" 	c #FFFFFF",
".	c #000000",
"      ",
"......",
"      ",
"      ",
"      ",
"      ",
"      ",
"      ",
"      ",
"      ",
"      ",
"      ",
"      ",
"      ",
"      ",
"      ",
"      ",
"      ",
"      ",
"......"};
