/* XPM */
static char * title_2_active_xpm[] = {
"6 20 2 1",
" 	c #000000",
".	c #FFFFFF",
"      ",
"      ",
"      ",
"......",
"......",
"......",
"......",
"......",
"......",
"......",
"......",
"......",
"......",
"......",
"......",
"......",
"......",
"......",
"      ",
"......"};
