/* XPM */
static char * title_1_active_xpm[] = {
"6 20 15 1",
" 	c #000817",
".	c #00050B",
"+	c #00050A",
"@	c #000611",
"#	c #00040A",
"$	c #000713",
"%	c #D9D9D9",
"&	c #CFCFCF",
"*	c #0064D5",
"=	c #E4E4E4",
"-	c #EEEEEE",
";	c #0075F9",
">	c #0078FF",
",	c #FFFFFF",
"'	c #000000",
" .+++@",
".#+##+",
"$.+++$",
"%&*=-;",
">>,>>,",
",,>,,>",
",,>,,>",
">>,>>,",
">>,>>,",
",,>,,>",
",,>,,>",
">>,>>,",
">>,>>,",
",,>,,>",
",,>,,>",
">>,>>,",
",,>,,>",
",,,,,,",
"''''''",
",,,,,,"};
