/* XPM */
static char * title_5_active_xpm[] = {
"6 20 3 1",
" 	c #000000",
".	c #FFFFFF",
"+	c #0078FF",
"      ",
"      ",
"      ",
".. .. ",
"++.++.",
"..+..+",
"..+..+",
"++.++.",
"++.++.",
"..+..+",
"..+..+",
"++.++.",
"++.++.",
"..+..+",
"..+..+",
"++.++.",
"..+..+",
"......",
"      ",
"......"};
