/* XPM */
static char * title_4_active_xpm[] = {
"6 20 4 1",
" 	c #5B0D57",
".	c #000000",
"+	c #0078FF",
"@	c #FFFFFF",
"    .+",
"    .+",
"    .+",
"@@@@.@",
"@@@@.@",
"@@@@.@",
"@@@@.@",
"@@@@.@",
"@@@@.@",
"@@@@.@",
"@@@@.@",
"@@@@.@",
"@@@@.@",
"@@@@.@",
"@@@@.@",
"@@@@.@",
"@@@@.@",
"@@@@.@",
".....+",
"@@@@@@"};
