/* XPM */
static char * title_1_active_xpm[] = {
"6 20 3 1",
" 	c #FFFFFF",
".	c #0078FF",
"+	c #0012FF",
"      ",
"......",
"......",
"      ",
"......",
"+..+..",
"..+..+",
".+..+.",
"+..+..",
"..+..+",
".+..+.",
"+..+..",
"..+..+",
".+..+.",
"+..+..",
"......",
"      ",
"......",
"......",
"      "};
