/* XPM */
static char * top_right_active_xpm[] = {
"5 20 2 1",
" 	c #FFFFFF",
".	c #0078FF",
"    .",
"... .",
"... .",
" .. .",
" .. .",
" .. .",
" .. .",
" .. .",
" .. .",
" .. .",
" .. .",
" .. .",
" .. .",
" .. .",
" .. .",
" .. .",
" .. .",
" .. .",
"... .",
" .. ."};
