/* XPM */
static char * top_left_inactive_xpm[] = {
"3 20 2 1",
" 	c #FFFFFF",
".	c #000000",
"   ",
" ..",
" . ",
" . ",
" . ",
" . ",
" . ",
" . ",
" . ",
" . ",
" . ",
" . ",
" . ",
" . ",
" . ",
" . ",
" . ",
" . ",
" . ",
" .."};
