/* XPM */
static char * top_right_inactive_xpm[] = {
"3 20 2 1",
" 	c #FFFFFF",
".	c #000000",
"   ",
".. ",
" . ",
" . ",
" . ",
" . ",
" . ",
" . ",
" . ",
" . ",
" . ",
" . ",
" . ",
" . ",
" . ",
" . ",
" . ",
" . ",
" . ",
".. "};
